<?xml version="1.0" encoding="utf-8"?>
<!-- Generator: Adobe Illustrator 19.0.0, SVG Export Plug-In . SVG Version: 6.00 Build 0)  -->
<svg height="140" width="140" version="1.1" id="Слой_1" xmlns="http://www.w3.org/2000/svg" xmlns:xlink="http://www.w3.org/1999/xlink" x="0px" y="0px"
	 viewBox="-191.3 312 219.3 218.7" style="enable-background:new -191.3 312 219.3 218.7;" xml:space="preserve">
<style type="text/css">
	.st0{opacity:0.75;fill:#FFFFFF;stroke:url(#SVGID_1_);enable-background:new    ;}
	.st1{fill:#775873;}
</style>
<linearGradient id="SVGID_1_" gradientUnits="userSpaceOnUse" x1="-188.7341" y1="473.7507" x2="26.1626" y2="364.2549" gradientTransform="matrix(1 0 0 1 0 2.18)">
	<stop  offset="0" style="stop-color:#E8715C"/>
	<stop  offset="1" style="stop-color:#755671"/>
</linearGradient>
<circle class="st0" cx="-81.3" cy="421.2" r="107.7"/>
<g>
	<path class="st1" d="M-127.2,468.1c-0.3,0-0.5,0-0.8,0c-4.2,0-8.4,0-12.6,0c-2.5,0-4.2-2-3.8-4.4c0.3-1.8,1.7-3.2,3.5-3.2
		c0.3,0,0.6,0,0.9,0c10.2,0,20.5,0,30.7,0c0.3,0,0.5,0,0.9,0c-0.3-0.2-0.3-0.3-0.4-0.3c-10.4-7.7-16.6-18-19.1-30.6
		c-0.7-3.4-0.9-6.8-0.9-10.3c0-2.7,0-5.5,0-8.2c0-0.3,0-0.5,0-0.8c29.9,0,59.6,0,89.5,0c0,0.3,0.1,0.6,0.1,1c0.3,0,0.5,0,0.8,0
		c3.7,0,7.3,0,10.9,0c7.5,0,13.9,4.6,16.3,11.5c3.4,10.1-3.3,20.9-13.8,22.1c-3.8,0.4-7.6,0.5-11.3-0.3c-2.5-0.6-4.8-1.6-6.9-3
		c-0.2-0.1-0.3-0.3-0.6-0.4c-1.8,3.8-4,7.3-6.7,10.6s-5.7,6.1-9.1,8.6c0.3,0,0.5,0,0.7,0c10.4,0,20.8,0,31.2,0c2,0,3.4,1,3.9,2.7
		c0.8,2.5-1.1,5-3.8,5c-4.2,0-8.4,0-12.6,0c-0.3,0-0.5,0-0.8,0c-0.1,0.3-0.1,0.4-0.2,0.6c-0.3,1.2-1.2,2-2.4,2.1c-0.3,0-0.4,0-0.7,0
		c-26.6,0-53.3,0-79.9,0c-1.3,0-2.3-0.4-2.9-1.7C-127,468.9-127.1,468.5-127.2,468.1z M-39.2,420.2c0,0.1,0,0.2,0,0.3
		c-0.1,3.8-0.5,7.6-1.4,11.4c-0.1,0.3,0.1,0.6,0.3,0.8c1.5,1.6,3.4,2.6,5.6,3.3c1.7,0.5,3.5,0.4,5.3,0.4c1.2,0,2.5,0.1,3.7-0.2
		c3.9-0.6,6.8-4.2,6.7-8.1c-0.2-4.2-3.2-7.6-7.4-7.8c-4.2-0.2-8.3-0.1-12.5-0.1C-39.1,420.2-39.1,420.2-39.2,420.2z"/>
	<path class="st1" d="M-74.4,366.6c0.4,3.6-0.9,7-2.6,10.2c-1,2-2,3.9-3.2,5.8c-2.1,3.7-2.2,7.4-1.2,11.4c0.3,0.9,0.7,1.8,1,2.7
		c0.2,0.4,0.3,0.9,0.3,1.4c0.2,1-0.3,1.6-1.2,2c-1.4,0.8-2.7,0.6-4.1,0c-1.5-0.7-2.8-1.7-3.7-3.2c-1.7-2.9-2.1-6-2-9.3
		c0.3-4.2,1.6-8,3.6-11.6c0.9-1.7,1.8-3.4,2.7-5.1c1.5-2.8,1.9-5.8,0.9-8.9c-0.6-2-1.1-4.1-1.6-6.1c-0.2-0.8,0-1.2,0.7-1.5
		c1.6-0.6,3.3-0.9,5,0.2c2.2,1.3,3.7,3.2,4.4,5.6C-74.5,362.4-74.5,364.3-74.4,366.6z"/>
	<path class="st1" d="M-96.9,366.7c0,4.4-1.5,7.9-3.3,11.4c-0.4,0.7-0.8,1.5-1.3,2c-1.4,2-1.7,4.4-1.2,6.7c0.3,1.9,0.9,3.7,1.5,5.6
		c0.3,1.2-0.3,2.4-1.5,2.4c-3.5,0.1-5.4-1-6.7-3.9c-2.1-4.5-1.9-9.1,0.3-13.5c0.7-1.5,1.5-2.8,2.3-4.2c0.4-0.8,0.9-1.6,1.3-2.4
		c1.2-2.3,1.5-4.8,0.8-7.3c-0.3-1.4-0.7-2.8-1-4.2c-0.3-1,0-1.4,1-1.7c2.2-0.7,4.7,0.2,6.2,2.3c1,1.5,1.4,3.1,1.6,4.7
		C-97,365.4-97,366.2-96.9,366.7z"/>
	<path class="st1" d="M-53.6,367.1c0,3.7-1.3,7-3,10.2c-0.5,1-1.1,2-1.7,2.9c-1.3,2-1.6,4.2-1.2,6.4c0.3,2,0.9,3.9,1.5,5.8
		c0.3,1-0.3,2.4-1.6,2.4c-3.4,0-5.4-0.9-6.8-4.1c-2-4.4-1.8-9,0.3-13.3c0.7-1.5,1.5-2.8,2.4-4.3c0.4-0.8,0.8-1.5,1.2-2.2
		c1.3-2.4,1.5-5,0.8-7.6c-0.3-1.4-0.7-2.8-1-4.3c-0.2-0.8,0.1-1.2,0.9-1.5c2.2-0.9,4.9,0.1,6.4,2.2c1,1.4,1.3,3,1.6,4.6
		C-53.8,365.3-53.7,366.2-53.6,367.1z"/>
</g>
</svg>
