<?xml version="1.0" encoding="utf-8"?>
<!-- Generator: Adobe Illustrator 19.0.0, SVG Export Plug-In . SVG Version: 6.00 Build 0)  -->
<svg width="92" height="35" version="1.1" id="Layer_1" xmlns="http://www.w3.org/2000/svg" xmlns:xlink="http://www.w3.org/1999/xlink" x="0px" y="0px"
	 viewBox="0 0 327.5 109.2" style="enable-background:new 0 0 327.5 109.2;" xml:space="preserve">
<style type="text/css">
	.st0{fill-rule:evenodd;clip-rule:evenodd;fill:#cac6c3;}
</style>
<path class="st0" d="M243.6,25.8c-28.1-1.7-49.7,8.8-69.9,22.6c5.5,3.1,11,6.2,16.8,9.4c29,16.1,58.6,34.6,93.1,23.6
	c22.3-7.1,41.2-25.8,40.9-49c0-3.9-0.9-7.6-2.4-11.2c-9.8-23.6-47.1-19.4-57.8,0.6c-4.9,9.2-6.4,21.4,0.6,31.9
	c4.6,6.9,16.2,12.2,27.2-0.9c-9.9,14.4-22.9,8.9-27.6,2.4c-4.5-6.2-6.9-13.7-6.9-20.7c0-29.2,48.5-48,64.8-20.2
	c10.1,17.3,4.3,39.5-8.9,53.6c-25.9,25.8-63.2,25.3-96.1,13.7c-11.5-4.4-23.3-10.4-33.8-16.6c-6.1-3.6-12.1-7.2-18-10.8
	c-6.3,4.6-12.5,9.5-18.8,14.3c-14.5,11-30.5,20.1-46.7,27.3c-9.6,4.3-61.1,24.8-100,4.2c42.3,17.4,86.8-5.6,94.5-9.4
	c32.5-16,44.7-28.1,64-40.7c-2.4-1.5-4.9-3-7.3-4.5c-7.8,5.1-15.7,10.3-23.9,15.5c-8.7,5.5-18.5,10.8-28.1,14.7
	C71.9,86.2,40.9,86.6,19.3,63.6C8.3,51.1,1.8,32.8,9.3,17C28.8-25,126.1,22.3,152,36.3c18.5-10.8,36.5-20.2,57.7-26.7
	c17.7-5.4,31.7-6.5,48.4-1.9c-33.5-7.5-64.6,10.3-98.8,32.5c2.6,1.4,5.2,2.9,7.8,4.4C196.3,27.3,217.1,23.2,243.6,25.8L243.6,25.8z
	 M10.2,32c-0.2,20.6,15.4,37.2,34,43.5c28.7,9.8,53.3-6.7,77.4-21c7.7-4.6,15.1-9.1,22.4-13.4c-9.8-5.9-19.4-11.4-29-16
	C91.9,14,10.7-19.3,10.2,32z"/>
</svg>
