<svg width="17" height="18" version="1.1" id="Layer_1" xmlns="http://www.w3.org/2000/svg" x="0" y="0" viewBox="0 0 50 50" xml:space="preserve">
  <defs>
    <linearGradient id="grad" x1="100%" y1="0%" x2="100%" y2="100%">
      <stop offset="0%" style="stop-color:rgb(116,74,126);stop-opacity:1" />
      <stop offset="100%" style="stop-color:rgb(115,62,139);stop-opacity:1" />
    </linearGradient>
  </defs>
  <path id="XMLID_733_" fill="url(#grad)" d="M48.2 37.3L41 31.9c-1.2-1.2-3.1-1.3-4.3-.2l-5 5c-.4.4-.7 1-.8 1.5-3.5-2.3-7-5.2-10.5-8.7l-.1.1.1-.1c-3.5-3.5-6.4-7-8.7-10.5.6-.1 1.1-.3 1.5-.8l5-5c1.1-1.1 1.1-3-.2-4.3l-5.4-7.2C11.4.5 10.1-.8 7.1.3 4.4 1.4 0 5.6 0 11.4c0 6.2 5.1 15.3 14 24.2l.1.1.1.1C23.1 44.7 32.4 50 38.6 50c5.8 0 10.1-4.4 11-7.2 1.1-3.1-.2-4.3-1.4-5.5z" />
</svg>
