<?xml version="1.0" encoding="utf-8"?>
<!-- Generator: Adobe Illustrator 19.0.0, SVG Export Plug-In . SVG Version: 6.00 Build 0)  -->
<svg width="237" height="90" version="1.1" id="Слой_1" xmlns="http://www.w3.org/2000/svg" xmlns:xlink="http://www.w3.org/1999/xlink" x="0px" y="0px"
	 viewBox="0 0 237.6 82.5" enable-background="new 0 0 237.6 82.5" xml:space="preserve">
<g>
	<path fill="#754D93" d="M6.9,67.5c-0.9,0-1.6,0.4-2.1,1.1c-0.5,0.7-0.7,1.7-0.7,3c0,2.6,1,3.9,3,3.9
		c0.6,0,1.2-0.1,1.8-0.3c0.6-0.2,1.1-0.4,1.7-0.6v3.1c-1.1,0.5-2.4,0.8-3.9,0.8c-2.1,0-3.6-0.6-4.7-1.8c-1.1-1.2-1.6-2.9-1.6-5.2
		c0-1.4,0.3-2.7,0.8-3.7c0.5-1.1,1.3-1.9,2.3-2.5s2.2-0.9,3.5-0.9c1.5,0,2.9,0.3,4.2,1l-1.1,2.9c-0.5-0.2-1-0.4-1.5-0.6
		C8.1,67.5,7.5,67.5,6.9,67.5z"/>
	<path fill="#754D93" d="M13.3,64.6H18c1.9,0,3.2,0.3,4.1,0.8s1.3,1.4,1.3,2.6c0,0.8-0.2,1.4-0.6,2
		c-0.4,0.5-0.9,0.9-1.6,1v0.1c0.8,0.2,1.5,0.6,1.8,1.1s0.6,1.2,0.6,2c0,1.2-0.5,2.2-1.4,2.9c-0.9,0.7-2.2,1.1-3.8,1.1h-5.3V64.6z
		 M17,69.9h1.1c0.5,0,0.9-0.1,1.2-0.3c0.3-0.2,0.4-0.5,0.4-1c0-0.8-0.6-1.1-1.7-1.1h-1V69.9z M17,72.6v2.9h1.3
		c1.2,0,1.7-0.5,1.7-1.5c0-0.5-0.2-0.8-0.5-1c-0.3-0.2-0.8-0.4-1.3-0.4H17z"/>
	<path fill="#754D93" d="M34.5,78.3l-0.7-2.6h-4.4l-0.7,2.6h-4.1l4.5-13.7h4.9l4.5,13.7H34.5z M33.1,72.7l-0.6-2.2
		c-0.1-0.5-0.3-1.1-0.5-1.9c-0.2-0.8-0.3-1.4-0.4-1.7c-0.1,0.3-0.2,0.8-0.3,1.6s-0.5,2.2-1.1,4.3H33.1z"/>
	<path fill="#754D93" d="M53.8,82.5h-3.6v-4.3h-8v4.3h-3.6v-7.3h1.1c0.8-1.4,1.5-3,2-4.8c0.5-1.8,0.9-3.8,1-5.8h9.1
		v10.6h1.9V82.5z M48.2,75.3v-7.6h-2.4c-0.3,2.7-1,5.2-2.1,7.6H48.2z"/>
	<path fill="#754D93" d="M63.7,78.3h-8.1V64.6h8.1v3h-4.4v2.1h4.1v3h-4.1v2.6h4.4V78.3z"/>
	<path fill="#754D93" d="M76.2,73.8c0,1.4-0.5,2.5-1.5,3.3c-1,0.8-2.4,1.1-4.2,1.1h-4.4V64.6h9v3h-5.3v2.1h0.5
		c1.9,0,3.4,0.3,4.4,1C75.7,71.4,76.2,72.4,76.2,73.8z M69.8,75.4h0.5c0.8,0,1.3-0.1,1.7-0.4s0.5-0.6,0.5-1.1c0-0.5-0.2-0.9-0.5-1.1
		s-0.9-0.4-1.6-0.4h-0.5V75.4z"/>
	<path fill="#754D93" d="M90.2,78.3h-3.7v-5.6h-4.3v5.6h-3.7V64.6h3.7v5.1h4.3v-5.1h3.7V78.3z"/>
	<path fill="#754D93" d="M105.9,71.4c0,2.3-0.6,4-1.7,5.2c-1.1,1.2-2.8,1.8-5,1.8c-2.1,0-3.8-0.6-4.9-1.8
		c-1.1-1.2-1.7-3-1.7-5.3c0-2.3,0.6-4,1.7-5.2c1.1-1.2,2.8-1.8,5-1.8c2.2,0,3.8,0.6,4.9,1.8S105.9,69.1,105.9,71.4z M96.5,71.4
		c0,2.6,0.9,4,2.8,4c0.9,0,1.6-0.3,2.1-1c0.5-0.6,0.7-1.6,0.7-3c0-1.4-0.2-2.4-0.7-3c-0.5-0.7-1.1-1-2.1-1
		C97.5,67.4,96.5,68.8,96.5,71.4z"/>
	<path fill="#754D93" d="M116.5,78.3h-8.1V64.6h8.1v3h-4.4v2.1h4.1v3h-4.1v2.6h4.4V78.3z"/>
	<path fill="#754D93" d="M132.2,78.3l-0.7-2.6h-4.4l-0.7,2.6h-4.1l4.5-13.7h4.9l4.5,13.7H132.2z M130.8,72.7
		l-0.6-2.2c-0.1-0.5-0.3-1.1-0.5-1.9c-0.2-0.8-0.3-1.4-0.4-1.7c-0.1,0.3-0.2,0.8-0.3,1.6s-0.5,2.2-1.1,4.3H130.8z"/>
	<path fill="#754D93" d="M146.9,64.6v3h-5.4v10.7h-3.7V64.6H146.9z"/>
	<path fill="#754D93" d="M156.9,78.3h-8.1V64.6h8.1v3h-4.4v2.1h4.1v3h-4.1v2.6h4.4V78.3z"/>
	<path fill="#754D93" d="M171,78.3h-3.7v-5.6H163v5.6h-3.7V64.6h3.7v5.1h4.3v-5.1h3.7V78.3z"/>
	<path fill="#754D93" d="M180,78.3h-3.7V67.6H173v-3h10.3v3H180V78.3z"/>
	<path fill="#754D93" d="M191.4,67.5c-0.9,0-1.6,0.4-2.1,1.1c-0.5,0.7-0.7,1.7-0.7,3c0,2.6,1,3.9,3,3.9
		c0.6,0,1.2-0.1,1.8-0.3c0.6-0.2,1.1-0.4,1.7-0.6v3.1c-1.1,0.5-2.4,0.8-3.9,0.8c-2.1,0-3.6-0.6-4.7-1.8c-1.1-1.2-1.6-2.9-1.6-5.2
		c0-1.4,0.3-2.7,0.8-3.7c0.5-1.1,1.3-1.9,2.3-2.5s2.2-0.9,3.5-0.9c1.5,0,2.9,0.3,4.2,1l-1.1,2.9c-0.5-0.2-1-0.4-1.5-0.6
		C192.5,67.5,191.9,67.5,191.4,67.5z"/>
	<path fill="#754D93" d="M203.7,78.3H200V67.6h-3.3v-3H207v3h-3.3V78.3z"/>
	<path fill="#754D93" d="M209,64.6h4.8c1.9,0,3.2,0.3,4.1,0.8s1.3,1.4,1.3,2.6c0,0.8-0.2,1.4-0.6,2
		c-0.4,0.5-0.9,0.9-1.6,1v0.1c0.8,0.2,1.5,0.6,1.8,1.1s0.6,1.2,0.6,2c0,1.2-0.5,2.2-1.4,2.9c-0.9,0.7-2.2,1.1-3.8,1.1H209V64.6z
		 M212.7,69.9h1.1c0.5,0,0.9-0.1,1.2-0.3c0.3-0.2,0.4-0.5,0.4-1c0-0.8-0.6-1.1-1.7-1.1h-1V69.9z M212.7,72.6v2.9h1.3
		c1.2,0,1.7-0.5,1.7-1.5c0-0.5-0.2-0.8-0.5-1c-0.3-0.2-0.8-0.4-1.3-0.4H212.7z"/>
	<path fill="#754D93" d="M234.7,71.4c0,2.3-0.6,4-1.7,5.2c-1.1,1.2-2.8,1.8-5,1.8c-2.1,0-3.8-0.6-4.9-1.8
		c-1.1-1.2-1.7-3-1.7-5.3c0-2.3,0.6-4,1.7-5.2c1.1-1.2,2.8-1.8,5-1.8c2.2,0,3.8,0.6,4.9,1.8S234.7,69.1,234.7,71.4z M225.3,71.4
		c0,2.6,0.9,4,2.8,4c0.9,0,1.6-0.3,2.1-1c0.5-0.6,0.7-1.6,0.7-3c0-1.4-0.2-2.4-0.7-3c-0.5-0.7-1.1-1-2.1-1
		C226.2,67.4,225.3,68.8,225.3,71.4z"/>
</g>
<g>
	<path fill="#764E92" d="M26.6,0.2c5,0,8.9,1.2,11.9,3.5c2.9,2.3,4.3,5.3,4.3,9.1c0,3.2-1,6.1-2.9,8.6
		s-4.5,4.3-7.6,5.3c2.3,1.8,4.1,3.8,5.3,5.9c1.2,2.2,1.8,4.7,1.8,7.7c0,5.2-1.8,9.2-5.3,12.1c-3.5,2.9-8.4,4.4-14.5,4.4
		c-5.6,0-10.1-1.2-13.4-3.7c-3.3-2.5-4.9-5.7-4.9-9.7c0-7.5,4.2-12.8,12.5-15.7c-3.9-3-5.9-6.9-5.9-11.6c0-3,0.8-5.7,2.3-8.1
		c1.5-2.4,3.7-4.3,6.5-5.6S22.8,0.2,26.6,0.2z M21.3,33.1c-4.3,2.3-6.4,5-6.4,8.4c0,1.4,0.5,2.5,1.4,3.3c0.9,0.9,2.1,1.3,3.6,1.3
		c1.7,0,3.2-0.5,4.2-1.6c1.1-1.1,1.6-2.4,1.6-4.1C25.7,37.5,24.2,35.1,21.3,33.1z M25.9,10.8c-1.2,0-2.2,0.5-3.1,1.5
		c-0.9,1-1.3,2.2-1.3,3.7c0,1,0.3,1.9,0.9,2.9s1.4,1.7,2.3,2.2c1.5-0.5,2.6-1.4,3.5-2.7c0.9-1.2,1.3-2.5,1.3-3.9
		c0-1.2-0.4-2.1-1.1-2.8C27.6,11.1,26.8,10.8,25.9,10.8z"/>
	<path fill="#764E92" d="M94.1,21.8c0,7-1.2,13.1-3.7,18.2c-2.5,5.1-6.1,9.1-10.8,11.8c-4.7,2.7-10.3,4.1-16.7,4.1
		H45.2L56.8,1.1h15.6c6.9,0,12.2,1.8,16,5.4C92.2,10.1,94.1,15.2,94.1,21.8z M65.1,43.7c2.8,0,5.2-0.9,7.4-2.6
		c2.2-1.8,3.8-4.2,5-7.5c1.2-3.2,1.8-6.9,1.8-11.1c0-3.1-0.7-5.5-2-7.1C75.9,13.8,74,13,71.6,13h-2.7l-6.5,30.7H65.1z"/>
	<path fill="#764E92" d="M128.7,45.6h-16.8l-4.7,10.3H91.9l27.9-54.8h18.9l4.6,54.8H129L128.7,45.6z M117.2,33.9h11
		L127.6,18l-0.1-3.2c0-1.9,0-3.5,0.2-4.9c-0.6,2.2-1.4,4.2-2.3,6.2L117.2,33.9z"/>
	<path fill="#764E92" d="M173,21.4l11.7-20.3h16.4l-23,33.6l-4.5,21.3h-14.7l4.5-21.3l-8.9-33.6h15.1L173,21.4z"/>
	<path fill="#764E92" d="M231.4,39.1c0,5.6-1.8,9.9-5.5,13c-3.7,3.1-8.8,4.6-15.4,4.6c-2.8,0-5.4-0.3-7.8-0.9
		c-2.5-0.6-4.6-1.5-6.3-2.7V39.9c2.1,1.3,4.5,2.4,7.2,3.3s5.2,1.4,7.4,1.4c1.8,0,3.3-0.4,4.2-1.2c1-0.8,1.4-1.9,1.4-3.3
		c0-0.7-0.2-1.3-0.5-1.9c-0.3-0.6-0.7-1.2-1.3-1.8c-0.5-0.6-2-1.9-4.4-3.9c-2.9-2.4-5.1-4.8-6.4-7.2c-1.3-2.4-2-5.1-2-8.1
		c0-3.3,0.8-6.2,2.5-8.8c1.6-2.6,4-4.6,6.9-6.1c3-1.4,6.3-2.2,10-2.2c6,0,11.4,1.3,16.1,4l-5.1,11.1c-4.3-2.2-7.9-3.3-10.9-3.3
		c-1.6,0-2.8,0.4-3.7,1c-0.9,0.7-1.3,1.7-1.3,3.1c0,1.2,0.4,2.4,1.3,3.4c0.8,1.1,2.4,2.5,4.8,4.3c3,2.2,5.1,4.5,6.6,6.9
		C230.7,33.2,231.4,36,231.4,39.1z"/>
</g>
</svg>
