<?xml version="1.0" encoding="utf-8"?>
<!-- Generator: Adobe Illustrator 19.0.0, SVG Export Plug-In . SVG Version: 6.00 Build 0)  -->
<svg width="132" height="33" version="1.1" id="Слой_1" xmlns="http://www.w3.org/2000/svg" xmlns:xlink="http://www.w3.org/1999/xlink" x="0px" y="0px" viewBox="-178 393 237.6 56.8" style="enable-background:new -178 393 237.6 56.8;" xml:space="preserve">
  <style type="text/css">
	.st0{fill:url(#grad);}
</style>
<g>
  <linearGradient id="grad" gradientUnits="userSpaceOnUse" x1="-155.95" y1="393.19" x2="-155.95" y2="449.79">
    <stop offset="0" style="stop-color:#744A7E" />
    <stop offset="1" style="stop-color:#733E8B" />
  </linearGradient>
  <path class="st0" d="M-151.4,393.2c5,0,8.9,1.2,11.9,3.5c2.9,2.3,4.3,5.3,4.3,9.1c0,3.2-1,6.1-2.9,8.6c-1.9,2.5-4.5,4.3-7.6,5.3
		c2.3,1.8,4.1,3.8,5.3,5.9c1.2,2.2,1.8,4.7,1.8,7.7c0,5.2-1.8,9.2-5.3,12.1s-8.4,4.4-14.5,4.4c-5.6,0-10.1-1.2-13.4-3.7
		s-4.9-5.7-4.9-9.7c0-7.5,4.2-12.8,12.5-15.7c-3.9-3-5.9-6.9-5.9-11.6c0-3,0.8-5.7,2.3-8.1c1.5-2.4,3.7-4.3,6.5-5.6
		C-158.5,394.1-155.2,393.2-151.4,393.2z M-156.7,426.1c-4.3,2.3-6.4,5-6.4,8.4c0,1.4,0.5,2.5,1.4,3.3c0.9,0.9,2.1,1.3,3.6,1.3
		c1.7,0,3.2-0.5,4.2-1.6c1.1-1.1,1.6-2.4,1.6-4.1C-152.3,430.5-153.8,428.1-156.7,426.1z M-152.1,403.8c-1.2,0-2.2,0.5-3.1,1.5
		c-0.9,1-1.3,2.2-1.3,3.7c0,1,0.3,1.9,0.9,2.9c0.6,1,1.4,1.7,2.3,2.2c1.5-0.5,2.6-1.4,3.5-2.7c0.9-1.2,1.3-2.5,1.3-3.9
		c0-1.2-0.4-2.1-1.1-2.8C-150.4,404.1-151.2,403.8-152.1,403.8z" />
  <path class="st0" d="M-83.9,414.8c0,7-1.2,13.1-3.7,18.2c-2.5,5.1-6.1,9.1-10.8,11.8c-4.7,2.7-10.3,4.1-16.7,4.1h-17.7l11.6-54.8
		h15.6c6.9,0,12.2,1.8,16,5.4C-85.8,403.1-83.9,408.2-83.9,414.8z M-112.9,436.7c2.8,0,5.2-0.9,7.4-2.6c2.2-1.8,3.8-4.2,5-7.5
		c1.2-3.2,1.8-6.9,1.8-11.1c0-3.1-0.7-5.5-2-7.1c-1.4-1.6-3.3-2.4-5.7-2.4h-2.7l-6.5,30.7H-112.9z" />
  <path class="st0" d="M-49.3,438.6h-16.8l-4.7,10.3h-15.3l27.9-54.8h18.9l4.6,54.8H-49L-49.3,438.6z M-60.8,426.9h11l-0.6-15.9
		l-0.1-3.2c0-1.9,0-3.5,0.2-4.9c-0.6,2.2-1.4,4.2-2.3,6.2L-60.8,426.9z" />
  <path class="st0" d="M-5,414.4l11.7-20.3h16.4l-23,33.6L-4.4,449h-14.7l4.5-21.3l-8.9-33.6h15.1L-5,414.4z" />
  <path class="st0" d="M53.4,432.1c0,5.6-1.8,9.9-5.5,13c-3.7,3.1-8.8,4.6-15.4,4.6c-2.8,0-5.4-0.3-7.8-0.9c-2.5-0.6-4.6-1.5-6.3-2.7
		v-13.2c2.1,1.3,4.5,2.4,7.2,3.3s5.2,1.4,7.4,1.4c1.8,0,3.3-0.4,4.2-1.2c1-0.8,1.4-1.9,1.4-3.3c0-0.7-0.2-1.3-0.5-1.9
		s-0.7-1.2-1.3-1.8c-0.5-0.6-2-1.9-4.4-3.9c-2.9-2.4-5.1-4.8-6.4-7.2c-1.3-2.4-2-5.1-2-8.1c0-3.3,0.8-6.2,2.5-8.8
		c1.6-2.6,4-4.6,6.9-6.1c3-1.4,6.3-2.2,10-2.2c6,0,11.4,1.3,16.1,4l-5.1,11.1c-4.3-2.2-7.9-3.3-10.9-3.3c-1.6,0-2.8,0.4-3.7,1
		c-0.9,0.7-1.3,1.7-1.3,3.1c0,1.2,0.4,2.4,1.3,3.4c0.8,1.1,2.4,2.5,4.8,4.3c3,2.2,5.1,4.5,6.6,6.9C52.7,426.2,53.4,429,53.4,432.1z" />
</g>
</svg>

