<?xml version="1.0" encoding="utf-8"?>
<!-- Generator: Adobe Illustrator 19.0.0, SVG Export Plug-In . SVG Version: 6.00 Build 0)  -->
<svg width="132" height="33" version="1.1" id="Слой_1" xmlns="http://www.w3.org/2000/svg" xmlns:xlink="http://www.w3.org/1999/xlink" x="0px" y="0px"
	 viewBox="-231 404.9 132 32.1" style="enable-background:new -231 404.9 132 32.1;" xml:space="preserve">
<style type="text/css">
	.st0{fill:url(#SVGID_1_);}
	.st1{fill:url(#SVGID_2_);}
	.st2{fill:url(#SVGID_3_);}
	.st3{fill:url(#SVGID_4_);}
	.st4{fill:url(#SVGID_5_);}
</style>
<g>
	
		<linearGradient id="SVGID_1_" gradientUnits="userSpaceOnUse" x1="-895.3179" y1="1.4948" x2="-895.3179" y2="2.4948" gradientTransform="matrix(25.8661 0 0 30.6861 23026.0117 359.7562)">
		<stop  offset="0" style="stop-color:#744A7E"/>
		<stop  offset="1" style="stop-color:#733E8B"/>
	</linearGradient>
	<path class="st0" d="M-124.2,412.6c0.3-0.4,0.6-0.8,0.8-1.2c1.3-1.9,2.7-3.9,4-5.8h-8.5c-0.3,0-0.6,0-0.8,0.3
		c-0.3,0.3-0.4,0.6-0.6,1c-1.3,2.2-2.5,4.4-3.8,6.6c-0.5,0.9-0.9,1.7-1.4,2.6c-0.1,0.2-0.2,0.6-0.4,0.6c-0.2,0-0.4-0.3-0.4-0.4
		c-0.4-2.7-0.9-5.3-1.3-8c0-0.2-0.1-0.3-0.1-0.5c-0.1-0.5-0.1-1-0.2-1.5c-0.1-0.6-0.4-0.6-0.9-0.6c-2.3,0-4.6,0-6.8,0
		c-0.7,0-0.8,0.2-0.6,0.9c1,3.2,1.8,6.4,2.7,9.7c0.4,1.6,0.8,3.2,1.2,4.9c0.4,1.5,0.9,3,0.6,4.6c-0.4,1.4-0.6,2.9-1,4.4
		c-0.2,1.4-0.6,2.8-1,4.2c-0.1,0.6-0.7,2.1,0.4,2.1c2.2,0,4.5,0,6.7,0c0.5,0,0.7-0.1,0.8-0.7c0.3-1.5,0.6-3,0.9-4.6
		c0.3-1.5,0.4-3,0.7-4.5c0.3-1.3,0.9-2.5,1.7-3.6c1.3-1.8,2.5-3.7,3.7-5.6C-126.6,415.8-125.4,414.2-124.2,412.6z"/>
	
		<linearGradient id="SVGID_2_" gradientUnits="userSpaceOnUse" x1="-896.7017" y1="1.4916" x2="-896.7017" y2="2.4916" gradientTransform="matrix(27.2046 0 0 30.7596 24201.875 359.7379)">
		<stop  offset="0" style="stop-color:#744A7E"/>
		<stop  offset="1" style="stop-color:#733E8B"/>
	</linearGradient>
	<path class="st1" d="M-179.7,412.6c-0.5-1.1-0.8-2.1-1.6-3.1c-0.7-0.9-1.5-1.6-2.5-2.2c-2.9-1.6-6-1.6-9.2-1.7
		c-1.8-0.1-3.6-0.1-5.4,0c-0.7,0-1.2-0.1-1.5,0.6c-0.2,0.5-0.2,1-0.3,1.5c-0.2,0.8-0.3,1.7-0.5,2.5c-0.3,1.7-0.7,3.4-1,5.1
		c-0.7,3.4-1.4,6.8-2.1,10.1c-0.5,2.2-1,4.4-1.4,6.6c-0.2,1-0.4,2-0.7,3c-0.1,0.3-0.3,0.8-0.1,1.1c0.2,0.3,0.7,0.2,1,0.2
		c1,0,2,0,3,0c1.8,0,3.7,0.1,5.5,0c4.2-0.2,8.3-1.1,11.6-3.8c3.9-3.3,5.6-8.2,5.9-13.1C-178.9,417.1-178.8,414.8-179.7,412.6z
		 M-187.4,419.1c-0.1,1.3-0.3,2.5-0.6,3.4c-0.3,1.1-0.7,2.2-1.4,3.2c-0.9,1.4-2.4,2.9-4.1,3.4c-0.5,0.2-1.1,0.3-1.7,0.3
		c-0.9-0.1-1-0.7-0.8-1.5c0.2-0.6,0.3-1.2,0.5-1.8c1-4,1.8-8.1,2.5-12.2c0.1-0.9,0.6-1.3,1.5-1.3
		C-188.1,412.7-187.3,416.3-187.4,419.1z"/>
	<g>
		
			<linearGradient id="SVGID_3_" gradientUnits="userSpaceOnUse" x1="-898.0787" y1="1.4954" x2="-898.0787" y2="2.4954" gradientTransform="matrix(28.6784 0 0 30.6861 25589.5527 359.7758)">
			<stop  offset="0" style="stop-color:#744A7E"/>
			<stop  offset="1" style="stop-color:#733E8B"/>
		</linearGradient>
		<path class="st2" d="M-151.6,435.6c-0.7-6.8-1.1-13.6-1.8-20.4c-0.3-2.9-0.6-5.9-0.6-8.9c0-0.7-0.4-0.8-1-0.8c-2.8,0-5.7,0-8.5,0
			c-0.9,0-1.2,0.2-1.6,1c-3,6.1-6.2,12.2-9.3,18.2c-1.6,2.9-3,6-4.5,8.9c-0.1,0.3-1,2.5-1.3,2.5c2.7,0,5.2,0,7.7,0
			c0.6,0,0.9-0.2,1.1-0.7c0.6-1.4,1.3-2.9,1.9-4.3c0.2-0.5,0.5-0.7,1.1-0.7c2.6,0,5.2,0,7.9,0c0.5,0,0.8,0.2,0.8,0.7
			c0,1.1,0.1,2.2,0.1,3.4c0,0.6-0.2,1.7,0.7,1.7c2.2,0,4.5,0,6.7,0C-151.6,436.3-151.5,436.1-151.6,435.6z M-160.7,412
			c0.3,1.1,0.3,2.3,0.2,3.5c0,1.3,0,2.6,0,3.9c0.1,1.1,0.2,2.3,0,3.4c0,0.2-0.1,0.4-0.2,0.5c-0.2,0.2-0.4,0.2-0.7,0.3
			c-0.6,0.1-1.3,0-1.9,0c-0.9,0-1.8,0-2.7,0.1c-0.2,0-0.3-0.1-0.3-0.3c0.8-2.3,1.7-4.7,2.8-6.9c0.6-1.2,1.2-2.5,1.9-3.7"/>
	</g>
	
		<linearGradient id="SVGID_4_" gradientUnits="userSpaceOnUse" x1="-891.7682" y1="1.4536" x2="-891.7682" y2="2.4551" gradientTransform="matrix(22.9771 0 0 31.554 20379.9258 359.42)">
		<stop  offset="0" style="stop-color:#744A7E"/>
		<stop  offset="1" style="stop-color:#733E8B"/>
	</linearGradient>
	<path class="st3" d="M-101.2,406c-1.5-0.8-3.3-0.8-5-0.8c-1,0-1.9,0-2.9,0c-0.9,0.1-1.8,0.2-2.7,0.5c-0.1,0-0.1,0-0.2,0.1
		c-0.7,0.2-1.4,0.6-2,0.9c-1.5,0.8-2.8,2-3.6,3.6c-2.1,4.1-1,8.7,2.2,11.8c1.4,1.4,3.5,2.4,4.5,4.2c0.4,0.7,0.5,1.5,0.2,2.3
		c-0.9,2-3.8,1.5-5.5,1.2c-1-0.2-2-0.5-2.9-1c-0.9-0.4-1.7-1-2.7-1.2c0,0,0,3,0,3.2c0,1.1,0,2.1,0,3.2c0,1.2,1.5,1.6,2.4,1.9
		c4,1.3,9,1.5,12.7-0.8c3.4-2.2,5.1-6.5,4.1-10.4c-0.3-1.1-1-2.2-1.6-3.1c-1.4-2-3.6-3.3-5.3-5c-0.6-0.6-1.1-1.3-1.1-2.3
		c0-0.9,0.4-1.8,1.2-2.3c0.6-0.3,1.4-0.3,2.1-0.2c1.7,0.3,3.2,0.7,4.8,1.5c0.8,0.4,1,0.2,1.3-0.5c0.7-1.7,1.6-3.4,2.4-5.1v-0.2
		C-99.5,406.7-100.4,406.4-101.2,406z"/>
	
		<linearGradient id="SVGID_5_" gradientUnits="userSpaceOnUse" x1="-892.093" y1="1.429" x2="-892.093" y2="2.4305" gradientTransform="matrix(23.2096 0 0 32.0434 20485.7598 359.146)">
		<stop  offset="0" style="stop-color:#744A7E"/>
		<stop  offset="1" style="stop-color:#733E8B"/>
	</linearGradient>
	<path class="st4" d="M-207.7,412.6c0-0.9-0.1-1.7-0.3-2.5c-0.4-1.2-1.1-2.3-2.1-3.1c-3-2.2-7.3-2.7-10.8-1.5
		c-2.5,0.8-4.7,2.6-5.7,5.1c-0.7,1.7-0.6,3.5-0.2,5.3c0.2,0.7,0.4,1.3,0.8,1.8c0.4,0.5,1,0.9,1.3,1.5c0.7,0.9-0.3,1.4-1.1,1.8
		c-1.6,0.9-3.2,2.1-4.1,3.7c-1.1,2-1.4,4.5-0.7,6.7c1.6,5.3,8.3,6.2,12.9,5.2c2.6-0.6,5.2-1.7,6.7-4.1c1.3-2,1.7-4.4,1.3-6.7
		c-0.2-1.1-0.6-2.1-1.2-3c-0.4-0.6-0.9-1.1-1.4-1.7c-0.3-0.3-1.3-1.1-0.7-1.6c0.2-0.1,0.4-0.2,0.6-0.2
		C-209.4,418.6-207.8,415.6-207.7,412.6z M-219.7,412.7c0.7-1.3,2.7-1.9,4-1.1c1,0.6,1.1,2,0.6,3c-0.4,0.9-1.1,1.5-2.1,1.6
		C-219.1,416.5-220.5,414.4-219.7,412.7z M-222.8,428.4c0-0.2,0-0.4,0-0.6c0.1-0.8,0.4-1.5,1-2.1c1-1.1,2.5-1.5,3.5-0.3
		c0.9,1.1,1,2.9,0.1,4c-0.5,0.6-1.3,1-2.1,1.1c-0.6,0-1.3-0.1-1.8-0.6C-222.4,429.5-222.7,429-222.8,428.4z"/>
</g>
</svg>
