<svg xmlns="http://www.w3.org/2000/svg" preserveAspectRatio="xMidYMid" width="33.625" height="33.656"><circle cx="16.813" cy="16.828" r="16.813" fill="#cdc102"/><path d="M13.974 25.206c.162-.046.166-.112.119-.234-.1-.285-.188-.578-.273-.866-.023-.081-.084-.169-.05-.25.139-.285.293-.57.466-.897.173.612.338 1.155.485 1.708.057.22.169.255.369.193.369-.119.734-.235 1.112-.343.157-.042.165-.111.123-.253-.335-1.016-.654-2.035-.989-3.059-.042-.115-.046-.208.019-.315.204-.37.4-.758.597-1.135.072-.143.123-.085.177.007.15.251.3.501.438.735.104.166.2.162.3-.011.096-.17.177-.354.273-.523.054-.104.116-.139.196 0 .193.334.393.669.589 1.008.05.103.108.219.058.357-.15.45-.296.901-.439 1.351a69.206 69.206 0 0 0-.5 1.592c-.031.081-.054.15.065.181.412.119.824.262 1.231.385.074.023.154.031.185-.085.039-.146.089-.284.139-.434.154-.427.25-.893.442-1.32.2.204.281.473.446.681.128.177.108.331.054.508-.077.242-.123.48-.207.715-.074.192.015.292.192.354.281.081.558.154.823.25.319.108.312.12.366-.223a4.31 4.31 0 0 0 .242-.719c.035-.123.054-.262.269-.158.254.115.539.177.808.289.135.053.177.007.208-.124.088-.373.169-.746.269-1.127.031-.154-.027-.207-.153-.242-.316-.096-.635-.185-.955-.285-.058-.023-.138-.035-.169-.069-.158-.273-.312-.547-.473-.812.096-.069.169-.038.234-.015.516.115 1.012.25 1.52.384.162.05.242.054.277-.146.058-.338.139-.665.242-.996.07-.208.016-.308-.207-.335-.131-.007-.27-.042-.397-.073-.034-.012-.076-.034-.107-.046-.854-.208-1.705-.419-2.562-.623a.342.342 0 0 1-.224-.15c-.231-.366-.453-.735-.68-1.097-.097-.146-.028-.173.107-.169.227 0 .446-.004.666-.012.154 0 .204-.077.115-.215a19.28 19.28 0 0 1-.342-.566c-.081-.123-.085-.192.104-.188.485.004.965.004 1.439.004.103 0 .153.046.203.108.231.246.466.492.7.73.451.481.912.962 1.374 1.447.1.104.181.158.316.031.277-.266.565-.516.842-.778.104-.088.092-.176 0-.277-.4-.399-.789-.8-1.181-1.207l-.004-.008c.146-.066.315-.016.469-.046.066 0 .131.011.193.008.261-.028.481.022.65.246.134.177.312.311.469.465.104.108.193.115.304.015.27-.199.5-.449.758-.661.146-.127.115-.227-.007-.346-.212-.193-.412-.412-.624-.589-.15-.127-.131-.219 0-.342.2-.181.377-.381.577-.558.127-.112.127-.185.012-.289a43.163 43.163 0 0 1-.789-.723c-.111-.115-.189-.088-.277.011-.185.197-.385.381-.55.593-.135.162-.277.258-.504.227-.189-.016-.373.012-.566.016-.057.007-.127.03-.157-.028-.024-.073.05-.092.084-.138.366-.412.724-.835 1.105-1.243.111-.115.08-.181-.012-.269a34.845 34.845 0 0 1-.846-.773c-.131-.135-.231-.154-.37.004-.608.684-1.246 1.354-1.846 2.054-.246.292-.508.477-.897.435-.3-.008-.6-.012-.9-.012-.146 0-.166-.046-.088-.169.111-.2.211-.4.331-.6.057-.1.03-.146-.085-.146-.227 0-.462 0-.693.003-.15 0-.211-.027-.104-.181.2-.338.389-.673.589-1.004.042-.081.085-.149.173-.177.169-.05.339-.1.508-.153.889-.258 1.781-.524 2.662-.789.119-.039.181-.104.146-.227-.111-.385-.211-.762-.319-1.147-.035-.138-.111-.184-.269-.138-.324.077-.651.173-.981.246-.231.046-.435.169-.685.143l.004-.008h-.004c.2-.431.392-.866.946-.947.177-.03.346-.107.527-.157.116-.035.166-.104.131-.235-.1-.373-.2-.754-.292-1.127-.027-.085-.07-.139-.173-.1-.242.085-.497.1-.723.211-.193.066-.285-.015-.331-.204-.066-.223-.139-.434-.208-.657-.062-.197-.181-.289-.404-.208-.281.111-.577.2-.877.296-.181.058-.27.139-.15.342.061.12.1.266.119.405.034.231.223.465.146.684-.092.316-.265.612-.485.927-.196-.6-.384-1.158-.557-1.715-.062-.2-.151-.266-.343-.197-.342.139-.684.254-1.027.385-.131.046-.162.135-.123.269.323.966.639 1.943.965 2.913.043.146.07.257-.022.396-.139.231-.255.473-.389.712a15.04 15.04 0 0 1-.304.569c-.169-.273-.319-.504-.462-.731-.146-.219-.184-.215-.319.008-.1.192-.188.404-.354.585-.181-.308-.323-.604-.512-.862-.196-.265-.196-.496-.107-.812.269-.877.465-1.781.723-2.666.077-.25-.008-.319-.208-.373a68.948 68.948 0 0 1-1.077-.316c-.123-.038-.161.02-.181.108-.077.312-.154.6-.246.908-.077.269-.161.542-.262.854-.161-.25-.288-.465-.442-.665-.119-.151-.119-.297-.073-.462.073-.238.135-.485.211-.704.07-.208.016-.308-.203-.358a7.83 7.83 0 0 1-1.028-.285c-.177-.054-.246.004-.284.17-.062.223-.146.438-.193.661-.031.196-.131.2-.284.162-.216-.065-.435-.115-.643-.169-.1-.031-.169-.027-.2.096-.085.381-.181.762-.273 1.15-.031.135.031.185.15.208.323.077.631.169.942.254.081.027.177.031.227.111.154.254.305.508.462.77-.096.03-.165-.008-.231-.023l-1.515-.408c-.154-.042-.254-.016-.296.169-.078.358-.162.723-.262 1.085-.047.166.007.231.169.266 1.031.257 2.062.561 3.112.765.093.023.173.058.212.135.238.411.462.812.711 1.215.07.108.032.143-.072.143-.255 0-.508-.008-.77 0-.219.008-.25.073-.134.269l.4.669c-.458 0-.882-.007-1.305.004-.146.004-.234-.054-.342-.161-.731-.762-1.489-1.52-2.231-2.281-.104-.12-.192-.135-.316-.012-.242.235-.512.469-.765.712-.246.219-.235.265-.004.496.338.331.681.677 1.023 1.031.031.023.089.05.066.107-.02.054-.078.043-.12.043-.211.011-.419 0-.623.011a.497.497 0 0 1-.408-.154c-.208-.211-.446-.407-.657-.623-.104-.103-.174-.107-.285-.015-.273.242-.55.481-.827.716-.12.1-.035.153.031.223.234.238.469.473.711.704.127.104.127.177.008.277-.25.234-.493.481-.747.711-.107.096-.123.181.008.285.254.208.519.4.75.623.174.162.285.112.401-.023.222-.231.438-.458.661-.685.05-.053.073-.123.165-.123h.962c-.438.454-.834.874-1.246 1.285-.143.135-.143.231.015.354.289.219.558.454.824.704.153.143.265.116.4-.034.727-.758 1.462-1.512 2.193-2.262.046-.054.092-.104.177-.104.503 0 .992-.008 1.5-.008.023 0 .062.008.062.046-.128.235-.247.462-.37.696-.065.135-.062.247.143.235.18 0 .365.042.546.031.192-.031.204.023.119.185-.192.334-.369.68-.554 1.019-.05.108-.119.15-.235.177-.469.116-.938.235-1.412.346-.527.131-1.061.262-1.592.397-.116.026-.269.05-.231.238.104.423.204.843.315 1.25.024.135.097.135.204.104.227-.069.458-.123.693-.192.35-.085.696-.166 1.115-.281-.184.331-.327.589-.48.846-.047.081-.128.101-.2.104-.327.035-.62.162-.928.227-.153.023-.196.104-.153.25.1.37.192.727.273 1.089.038.15.119.181.257.131.266-.077.535-.131.797-.22.173-.049.227.012.261.143.054.242.131.481.177.715.035.143.096.185.242.143.355-.104.708-.223 1.07-.312" fill="#fff" fill-rule="evenodd"/></svg>