<svg xmlns="http://www.w3.org/2000/svg" preserveAspectRatio="xMidYMid" width="33.625" height="33.657"><g fill-rule="evenodd"><path d="M16.812-.003c9.292 0 16.825 7.532 16.825 16.824 0 9.292-7.533 16.825-16.825 16.825-9.292 0-16.824-7.533-16.824-16.825C-.012 7.529 7.52-.003 16.812-.003z" fill="#fd60e5"/><path d="M25.691 14.816s-.059-2.743-.107-4.024c0 0 .277-2.873-1.861-1.735 0 0-3.588.85-6.236 6.656-.036-.107-.186-.202-.376-.249.186-.965.822-3.854 1.862-4.49a.299.299 0 0 0 .217.103.275.275 0 0 0 .281-.269.28.28 0 0 0-.281-.277.284.284 0 0 0-.281.277c0 .012.012.02.012.04-1.126.668-1.758 3.604-1.948 4.592-.036-.004-.071-.008-.115-.008-.027 0-.063.008-.087.008-.19-.988-.826-3.924-1.952-4.592.004-.02.012-.028.012-.04a.284.284 0 0 0-.277-.277.28.28 0 0 0-.284.277c0 .15.126.269.284.269a.28.28 0 0 0 .21-.103c1.055.633 1.671 3.51 1.869 4.49-.182.039-.32.11-.383.201-2.644-5.714-6.185-6.556-6.185-6.556-2.131-1.139-1.866 1.739-1.866 1.739-.047 1.292-.102 4.023-.102 4.023-.285 2.391 2.837 2.751 2.837 2.751-4.122.482-1.731 4.284-1.731 4.284 1.541 1.253 1.731 2.917 1.731 2.917.474-.348 1.194.545 1.194.545.589-.893 1.082-.66 1.082-.66 1.281-.897 2.403-2.482 3-3.431v.242c0 .122.127.237.308.3v.142a.34.34 0 0 0 .68 0v-.142c.19-.063.309-.178.309-.3v-.408c.58.933 1.731 2.609 3.066 3.546 0 0 .498-.238 1.087.644 0 0 .704-.882 1.193-.542 0 0 .186-1.656 1.736-2.913 0 0 2.383-3.794-1.736-4.28 0 0 3.123-.356 2.838-2.75z" fill="#fff"/></g></svg>