<svg xmlns="http://www.w3.org/2000/svg" preserveAspectRatio="xMidYMid" width="37.313" height="37.32"><circle cx="18.656" cy="18.66" r="18.656" fill="#0388ef"/><path d="M28.326 23.258h-1.568v-.954a3.037 3.037 0 0 0-.626-1.785 2.97 2.97 0 0 0-1.028-.885 3.054 3.054 0 0 0-1.456-.363 3.115 3.115 0 0 0-3.099 2.859v1.434h-4.47v-1.399a3.103 3.103 0 0 0-.602-1.584 2.926 2.926 0 0 0-1.04-.885 3.037 3.037 0 0 0-1.452-.363 3.11 3.11 0 0 0-3.107 3.06v.089h-.015v.95H7.622c.074-.185.124-.402.124-.634a1.67 1.67 0 0 0-.286-.923h.668v-4.451l4.687-.367 2.318-4.215 12.571.093.027 8.751h.495a2.42 2.42 0 0 0-.085.637c0 .34.069.668.185.935zm-8.886-9.114l-3.689-.104-1.804 3.091h4.578l.915.927v-3.914zm-6.498 5.502c.468 0 .908.112 1.294.313.371.197.688.467.939.807.344.456.553 1.032.553 1.658a2.792 2.792 0 0 1-2.786 2.797 2.798 2.798 0 0 1-2.789-2.797c0-.012 0-.031.007-.043a2.779 2.779 0 0 1 2.782-2.735zm-1.723 2.847c0 .951.777 1.723 1.727 1.723a1.73 1.73 0 0 0 1.731-1.723c0-.386-.136-.742-.344-1.035a1.74 1.74 0 0 0-1.387-.688c-.943 0-1.711.75-1.727 1.696v.027zm12.383-2.758a2.76 2.76 0 0 1 2.232 1.116c.356.472.553 1.039.553 1.665a2.782 2.782 0 1 1-5.567 0v-.042a2.783 2.783 0 0 1 2.782-2.739zm-1.716 2.847a1.72 1.72 0 0 0 1.719 1.727c.966 0 1.739-.765 1.739-1.727 0-.386-.136-.746-.352-1.035a1.684 1.684 0 0 0-.576-.491 1.672 1.672 0 0 0-.811-.201c-.938 0-1.7.757-1.719 1.704v.023z" fill="#fff" fill-rule="evenodd"/></svg>