<svg xmlns="http://www.w3.org/2000/svg" width="23" height="23"><g fill-rule="evenodd"><path d="M11.168 15.204c.511 0 .925.415.925.926v4.627a.926.926 0 1 1-1.851 0V16.13c0-.511.415-.926.926-.926z" fill="#99c7ff"/><path d="M22.017 10.834a.926.926 0 0 1-.926.925h-4.627a.926.926 0 1 1 0-1.851h4.627c.511 0 .926.415.926.926z" opacity=".5" fill="#e5f1ff"/><path d="M6.488 10.834a.925.925 0 0 1-.925.925H.935a.925.925 0 1 1 0-1.851h4.628c.511 0 .925.415.925.926z" fill="#4c9dff"/><path d="M8.604 14.578a.926.926 0 0 1 .315 1.27l-2.388 3.964a.926.926 0 0 1-1.585-.955l2.387-3.964a.926.926 0 0 1 1.271-.315z" fill="#7fb9ff"/><path d="M20.461 16.432a.925.925 0 0 1-1.27.315l-3.964-2.388a.924.924 0 1 1 .955-1.585l3.964 2.387a.927.927 0 0 1 .315 1.271z" fill="#cce3ff" opacity=".6"/><path d="M7.115 8.579a.925.925 0 0 1-1.27.315L1.881 6.507a.926.926 0 0 1 .955-1.586L6.8 7.309a.924.924 0 0 1 .315 1.27z" fill="#338fff"/><path d="M20.662 5.585a.927.927 0 0 1-.362 1.258l-4.05 2.239a.925.925 0 1 1-.895-1.62l4.049-2.239a.925.925 0 0 1 1.258.362z" opacity=".3" fill="#e5f1ff"/><path d="M7.034 12.948a.926.926 0 0 1-.362 1.258l-4.05 2.239a.927.927 0 0 1-.896-1.62l4.05-2.239a.927.927 0 0 1 1.258.362z" fill="#66abff"/><path d="M16.417 20.328a.927.927 0 0 1-1.258-.362l-2.239-4.05a.925.925 0 1 1 1.62-.895l2.239 4.049a.926.926 0 0 1-.362 1.258z" fill="#b2d5ff" opacity=".8"/><path d="M8.744 7.009a.926.926 0 0 1-1.258-.362l-2.239-4.05a.925.925 0 1 1 1.62-.895l2.239 4.05a.925.925 0 0 1-.362 1.257z" fill="#1981ff"/><path d="M10.859-.015c.511 0 .925.415.925.926v4.627a.926.926 0 1 1-1.851 0V.911c0-.511.414-.926.926-.926z" fill="#0072ff"/></g></svg>