<svg xmlns="http://www.w3.org/2000/svg" width="45" height="45"><g fill-rule="evenodd"><path d="M21.452.007a1.83 1.83 0 0 1 1.831 1.831v9.154a1.83 1.83 0 1 1-3.661 0V1.838a1.83 1.83 0 0 1 1.83-1.831z" fill="#ffe853"/><path d="M22.065 30.115a1.83 1.83 0 0 1 1.83 1.831V41.1a1.83 1.83 0 1 1-3.661 0v-9.154a1.83 1.83 0 0 1 1.831-1.831z" fill="#e16567"/><path d="M43.526 21.469a1.83 1.83 0 0 1-1.831 1.831h-9.154a1.831 1.831 0 0 1 0-3.662h9.154a1.83 1.83 0 0 1 1.831 1.831z" fill="#b55e60" opacity=".4"/><path d="M12.807 21.469c0 1.011-.82 1.831-1.831 1.831H1.821a1.83 1.83 0 0 1 0-3.662h9.155c1.011 0 1.831.82 1.831 1.831z" fill="#ffac64"/><path d="M32.526 3.085a1.831 1.831 0 0 1 .624 2.513l-4.724 7.841a1.83 1.83 0 1 1-3.136-1.889l4.723-7.841a1.83 1.83 0 0 1 2.513-.624z" opacity=".2" fill="#c4a4a5"/><path d="M16.991 28.875a1.83 1.83 0 0 1 .624 2.513l-4.724 7.841a1.83 1.83 0 1 1-3.136-1.889l4.723-7.842a1.83 1.83 0 0 1 2.513-.623z" fill="#ff7f64"/><path d="M40.449 32.543a1.83 1.83 0 0 1-2.513.623l-7.842-4.723a1.832 1.832 0 0 1 1.889-3.137l7.842 4.724a1.832 1.832 0 0 1 .624 2.513z" opacity=".6" fill="#dc595c"/><path d="M14.046 17.008a1.83 1.83 0 0 1-2.512.623l-7.842-4.723a1.832 1.832 0 0 1 1.889-3.137l7.842 4.724a1.83 1.83 0 0 1 .623 2.513z" fill="#ffc064"/><path d="M40.847 11.085a1.83 1.83 0 0 1-.717 2.488l-8.011 4.429a1.83 1.83 0 1 1-1.772-3.204l8.012-4.43a1.83 1.83 0 0 1 2.488.717z" fill="#c98485" opacity=".2"/><path d="M13.886 25.652a1.83 1.83 0 0 1-.716 2.488l-8.012 4.429a1.83 1.83 0 1 1-1.772-3.204l8.012-4.429a1.83 1.83 0 0 1 2.488.716z" fill="#ff9764"/><path d="M32.449 40.251a1.83 1.83 0 0 1-2.488-.716l-4.43-8.012a1.83 1.83 0 0 1 3.205-1.771l4.429 8.011a1.83 1.83 0 0 1-.716 2.488z" opacity=".8" fill="#dc595c"/><path d="M17.269 13.903a1.83 1.83 0 0 1-2.488-.717l-4.429-8.011a1.83 1.83 0 1 1 3.204-1.772l4.43 8.011a1.832 1.832 0 0 1-.717 2.489z" fill="#ffd55e"/></g></svg>