<svg viewBox="0 0 34.018 300" xmlns="http://www.w3.org/2000/svg"><path d="M16.655 124.093c-2.414 0-4.694-.419-6.743-1.148L0 126.462l3.715-7.431c-1.857-1.97-2.961-4.378-2.961-6.984C.754 105.394 7.873 100 16.655 100c8.781 0 15.901 5.394 15.901 12.047 0 6.652-7.12 12.046-15.901 12.046z" class="cls-1" fill="#fff" fill-rule="evenodd"/><path d="M7.436 252.178c1.526 0 3.017.478 4.471 1.437 1.456.959 2.609 2.431 3.461 4.418.817-1.951 1.97-3.388 3.462-4.312 1.489-.923 2.997-1.384 4.524-1.384a7.64 7.64 0 0 1 2.954.586 6.886 6.886 0 0 1 2.476 1.757c.674.781 1.198 1.749 1.57 2.902.374 1.153.489 2.492.347 4.019-.177 1.774-1.074 3.585-2.688 5.429a48.804 48.804 0 0 1-5.191 5.112c-1.882 1.527-4.366 3.265-7.454 5.218-3.087-2.024-5.59-3.817-7.505-5.377a42.664 42.664 0 0 1-5.245-5.059c-1.615-1.845-2.476-3.602-2.582-5.271-.107-1.525.027-2.883.399-4.071.373-1.189.914-2.175 1.625-2.956.71-.815 1.533-1.429 2.475-1.836a7.217 7.217 0 0 1 2.901-.612zm12.511 2.981c-1.207.674-2.183 1.863-2.928 3.567-.569.709-1.118 1.064-1.651 1.064-.532 0-1.1-.355-1.704-1.064-.602-1.491-1.463-2.653-2.582-3.488-1.118-.833-2.333-1.251-3.646-1.251-.745 0-1.455.152-2.13.453a5.397 5.397 0 0 0-1.757 1.251c-.637.675-1.099 1.509-1.383 2.503-.284.994-.391 2.112-.32 3.353.072.958.558 2.051 1.463 3.275.906 1.224 2.032 2.475 3.382 3.752a45.99 45.99 0 0 0 4.312 3.595 98.95 98.95 0 0 0 4.365 3.06 67.776 67.776 0 0 0 4.339-3.008 47.994 47.994 0 0 0 4.286-3.593c1.348-1.243 2.476-2.494 3.38-3.754.905-1.259 1.411-2.404 1.517-3.432.107-1.172.027-2.237-.238-3.196-.267-.957-.702-1.757-1.306-2.396a4.73 4.73 0 0 0-1.783-1.276" class="cls-1" fill="red" fill-rule="evenodd"/><path d="M7.436 201.452c1.526 0 3.017.478 4.471 1.437 1.456.959 2.609 2.432 3.461 4.418.817-1.951 1.97-3.388 3.462-4.311 1.489-.924 2.997-1.385 4.524-1.385a7.64 7.64 0 0 1 2.954.586 6.886 6.886 0 0 1 2.476 1.757c.674.781 1.198 1.749 1.57 2.902.374 1.153.489 2.492.347 4.019-.177 1.774-1.074 3.585-2.688 5.429a48.804 48.804 0 0 1-5.191 5.112c-1.882 1.527-4.366 3.265-7.454 5.218-3.087-2.024-5.59-3.816-7.505-5.377a42.664 42.664 0 0 1-5.245-5.059c-1.615-1.845-2.476-3.602-2.582-5.271-.107-1.525.027-2.883.399-4.071.373-1.189.914-2.175 1.625-2.956.71-.815 1.533-1.429 2.475-1.836a7.217 7.217 0 0 1 2.901-.612z" class="cls-1" fill="#ff2828" fill-rule="evenodd"/><path d="M7.436 150.726c1.526 0 3.017.478 4.471 1.437 1.456.959 2.609 2.432 3.461 4.418.817-1.951 1.97-3.388 3.462-4.311 1.489-.924 2.997-1.385 4.524-1.385 1.03 0 2.014.196 2.954.587a6.87 6.87 0 0 1 2.476 1.756c.674.782 1.198 1.749 1.57 2.902.374 1.153.489 2.492.347 4.019-.177 1.774-1.074 3.585-2.688 5.429a48.709 48.709 0 0 1-5.191 5.112c-1.881 1.527-4.366 3.265-7.454 5.218-3.087-2.024-5.59-3.816-7.505-5.377a42.664 42.664 0 0 1-5.245-5.059c-1.615-1.845-2.476-3.602-2.582-5.27-.107-1.526.027-2.883.399-4.072.373-1.189.914-2.175 1.625-2.956a6.904 6.904 0 0 1 2.475-1.836 7.234 7.234 0 0 1 2.901-.612z" class="cls-1" fill="#fff" fill-rule="evenodd"/><path d="M2.365 0h29.288a2.365 2.365 0 0 1 2.365 2.365v28.226a2.364 2.364 0 0 1-2.365 2.364H2.365A2.364 2.364 0 0 1 0 30.591V2.365A2.365 2.365 0 0 1 2.365 0z" class="cls-1" fill="#8c8c8c" fill-rule="evenodd"/><path d="M28.35 16.525l.062.027-.126-.001-20.23 8.528v-7.078l11.91-1.515.3.001-.3-.003-11.91-1.514V7.892l20.23 8.606h.126l-.063.027z" class="cls-2" fill="#fff" fill-rule="evenodd"/><path d="M2.365 50h29.288a2.365 2.365 0 0 1 2.365 2.365v28.226a2.364 2.364 0 0 1-2.365 2.364H2.365A2.364 2.364 0 0 1 0 80.591V52.365A2.365 2.365 0 0 1 2.365 50z" class="cls-1" fill="#8c8c8c" fill-rule="evenodd"/><path d="M17.333 70.807c.511 0 .925.415.925.926v4.627a.926.926 0 1 1-1.85 0v-4.627c0-.511.414-.926.925-.926z" class="cls-2" fill="#fff" fill-rule="evenodd"/><path d="M28.182 66.437a.926.926 0 0 1-.926.925H22.63a.926.926 0 1 1 0-1.85h4.627c.511 0 .926.414.926.925z" class="cls-3" fill="#fff" opacity=".5" fill-rule="evenodd"/><path d="M12.653 66.437a.925.925 0 0 1-.925.925H7.1a.925.925 0 1 1 0-1.85h4.628c.511 0 .925.414.925.925z" class="cls-4" fill="#fff" fill-rule="evenodd"/><path d="M14.77 70.181a.925.925 0 0 1 .314 1.27l-2.388 3.964a.926.926 0 0 1-1.585-.955l2.387-3.964a.926.926 0 0 1 1.271-.315z" class="cls-5" fill="#fff" fill-rule="evenodd"/><path d="M26.626 72.035a.925.925 0 0 1-1.27.315l-3.964-2.388a.924.924 0 1 1 .955-1.585l3.964 2.387a.927.927 0 0 1 .315 1.271z" class="cls-6" fill="#fff" opacity=".6" fill-rule="evenodd"/><path d="M13.28 64.182a.925.925 0 0 1-1.27.315L8.046 62.11a.926.926 0 0 1 .955-1.586l3.964 2.388a.924.924 0 0 1 .315 1.27z" class="cls-7" fill="#fff" fill-rule="evenodd"/><path d="M26.827 61.188a.927.927 0 0 1-.362 1.258l-4.05 2.239a.925.925 0 1 1-.895-1.62l4.05-2.239a.925.925 0 0 1 1.257.362z" class="cls-8" fill="#fff" opacity=".3" fill-rule="evenodd"/><path d="M13.2 68.552a.925.925 0 0 1-.363 1.257l-4.05 2.239a.927.927 0 0 1-.896-1.62l4.05-2.239a.926.926 0 0 1 1.258.363z" class="cls-9" fill="#fff" fill-rule="evenodd"/><path d="M22.582 75.931a.926.926 0 0 1-1.258-.362l-2.239-4.05a.925.925 0 1 1 1.62-.895l2.24 4.049a.926.926 0 0 1-.363 1.258z" class="cls-10" fill="#fff" opacity=".8" fill-rule="evenodd"/><path d="M14.91 62.612a.926.926 0 0 1-1.259-.362l-2.239-4.05a.925.925 0 1 1 1.62-.895l2.24 4.05a.925.925 0 0 1-.363 1.257z" class="cls-11" fill="#fff" fill-rule="evenodd"/><path d="M17.023 55.588c.512 0 .926.415.926.926v4.627a.926.926 0 1 1-1.85 0v-4.627c0-.511.413-.926.924-.926z" class="cls-12" fill="#fff" fill-rule="evenodd"/></svg>