<svg xmlns="http://www.w3.org/2000/svg" preserveAspectRatio="xMidYMid" width="86" height="114.188"><defs><style>.cls-2{fill:#fff}</style></defs><path d="M80.571 11.882c-.696.738-1.794 1.107-3.294 1.107a25.001 25.001 0 0 1-1.368-.045 11.566 11.566 0 0 1-.882-.09 8.936 8.936 0 0 1-.828-.153V.209h2.268v4.536a6.99 6.99 0 0 0 .279-.054c.114-.024.237-.042.369-.054l.414-.036c.144-.012.27-.018.378-.018.504 0 .981.06 1.431.18.45.12.843.33 1.179.63.336.3.603.711.801 1.233.198.522.297 1.185.297 1.989 0 1.44-.348 2.529-1.044 3.267zm-1.476-4.194a1.546 1.546 0 0 0-.387-.63 1.277 1.277 0 0 0-.576-.306 3.082 3.082 0 0 0-.729-.081 3.17 3.17 0 0 0-.513.054 1.77 1.77 0 0 0-.423.108v3.96c.108.036.249.063.423.081.174.018.345.027.513.027.564 0 1.011-.162 1.341-.486.33-.324.495-.888.495-1.692 0-.42-.048-.765-.144-1.035zm-8.838 5.121h-2.268V2.297h-2.988V.209h8.244v2.088h-2.988v10.512zm-8.478-6.714l.18-1.782h-.09l-.684 1.908-3.582 6.588h-1.782V.209h2.268v6.588l-.198 1.836h.09l.72-1.962L62.283.209h1.764v12.6h-2.268V6.095zM54.03 7.139c.342.504.513 1.188.513 2.052 0 .684-.111 1.272-.333 1.764a3.286 3.286 0 0 1-.9 1.206c-.378.312-.813.54-1.305.684a5.419 5.419 0 0 1-1.53.216 8.638 8.638 0 0 1-1.782-.171c-.54-.114-.972-.267-1.296-.459l.594-2.016c.228.132.543.258.945.378.402.12.873.18 1.413.18.492 0 .918-.159 1.278-.477.36-.318.54-.819.54-1.503 0-.588-.165-1.029-.495-1.323-.33-.294-.909-.453-1.737-.477-.132 0-.222-.003-.27-.009a3.17 3.17 0 0 0-.306-.009h-.414V5.339h.432c.18 0 .402-.006.666-.018.264-.012.474-.048.63-.108.324-.096.6-.276.828-.54.228-.264.342-.606.342-1.026 0-.588-.141-.996-.423-1.224-.282-.228-.675-.342-1.179-.342-.408 0-.789.063-1.143.189a4.108 4.108 0 0 0-.837.387L47.685.695c.12-.072.288-.15.504-.234a6.986 6.986 0 0 1 1.593-.405 6.81 6.81 0 0 1 .927-.063c.456 0 .897.045 1.323.135.426.09.801.252 1.125.486.324.234.582.555.774.963.192.408.288.93.288 1.566 0 .612-.129 1.182-.387 1.71s-.675.918-1.251 1.17v.108c.624.168 1.107.504 1.449 1.008zm-10.035 3.555a6.218 6.218 0 0 1-.63 1.251c-.228.336-.483.585-.765.747-.282.162-.627.243-1.035.243-.324 0-.603-.03-.837-.09a2.407 2.407 0 0 1-.729-.342l.558-1.908c.168.096.318.159.45.189s.27.051.414.063c.444 0 .75-.456.918-1.368L38.451.209h2.682l1.926 5.49.27 1.674h.09l.234-1.728L45.075.209h2.34l-2.808 8.712c-.216.684-.42 1.275-.612 1.773zm-6.912-3.141c-.372.348-.801.6-1.287.756a4.888 4.888 0 0 1-1.503.234h-.234a6.862 6.862 0 0 1-.693-.036 1.999 1.999 0 0 1-.243-.036v4.338h-2.268V.335c.432-.096.906-.171 1.422-.225a14.863 14.863 0 0 1 1.548-.081c.552 0 1.095.051 1.629.153a3.587 3.587 0 0 1 1.431.603c.42.3.762.723 1.026 1.269.264.546.396 1.257.396 2.133 0 .792-.111 1.464-.333 2.016-.222.552-.519 1.002-.891 1.35zm-1.305-4.392a1.67 1.67 0 0 0-.414-.657 1.566 1.566 0 0 0-.603-.351 2.377 2.377 0 0 0-.72-.108c-.372 0-.678.03-.918.09v4.302c.072.024.207.045.405.063.198.018.333.027.405.027.264 0 .516-.036.756-.108.24-.072.453-.195.639-.369s.333-.414.441-.72c.108-.306.162-.693.162-1.161 0-.396-.051-.732-.153-1.008zm-9.513 9.648h-2.268V.209h6.174v2.088h-3.906v10.512zm-6.191-2.88h-2.97l-.738 2.88h-2.25L17.77.119h1.782l3.672 12.69h-2.376l-.774-2.88zm-1.116-4.77l-.288-1.98h-.072l-.306 1.998-.702 2.916h2.088l-.72-2.934zm-5.769 1.98c.342.504.513 1.188.513 2.052 0 .684-.112 1.272-.333 1.764a3.297 3.297 0 0 1-.9 1.206c-.378.312-.814.54-1.305.684a5.429 5.429 0 0 1-1.53.216 8.638 8.638 0 0 1-1.782-.171c-.54-.114-.972-.267-1.296-.459l.594-2.016c.227.132.542.258.945.378.401.12.873.18 1.413.18.491 0 .918-.159 1.278-.477.36-.318.54-.819.54-1.503 0-.588-.166-1.029-.495-1.323-.331-.294-.909-.453-1.737-.477-.133 0-.223-.003-.27-.009a3.2 3.2 0 0 0-.306-.009h-.414V5.339h.432c.18 0 .401-.006.666-.018.263-.012.473-.048.63-.108.324-.096.599-.276.828-.54.227-.264.342-.606.342-1.026 0-.588-.142-.996-.423-1.224-.283-.228-.675-.342-1.179-.342-.409 0-.79.063-1.143.189a4.057 4.057 0 0 0-.837.387L6.844.695c.119-.072.288-.15.504-.234A6.986 6.986 0 0 1 8.941.056c.306-.042.614-.063.927-.063.455 0 .896.045 1.323.135.425.09.801.252 1.125.486.324.234.581.555.774.963.191.408.288.93.288 1.566 0 .612-.13 1.182-.387 1.71-.259.528-.675.918-1.251 1.17v.108c.623.168 1.107.504 1.449 1.008z" fill-rule="evenodd" fill="#fff"/><rect y="28.188" width="86" height="86" rx="20" ry="20" class="cls-2"/><circle cx="42" cy="72.188" r="24" fill="#943106"/><circle cx="41.922" cy="72.11" r="19.578" class="cls-2"/></svg>