<svg xmlns="http://www.w3.org/2000/svg" width="17.97" height="18.59" viewBox="0 0 17.97 18.59">
  <metadata><?xpacket begin="﻿" id="W5M0MpCehiHzreSzNTczkc9d"?>
<x:xmpmeta xmlns:x="adobe:ns:meta/" x:xmptk="Adobe XMP Core 5.6-c138 79.159824, 2016/09/14-01:09:01        ">
   <rdf:RDF xmlns:rdf="http://www.w3.org/1999/02/22-rdf-syntax-ns#">
      <rdf:Description rdf:about=""/>
   </rdf:RDF>
</x:xmpmeta>
                                                                                                    
                                                                                                    
                                                                                                    
                                                                                                    
                                                                                                    
                                                                                                    
                                                                                                    
                                                                                                    
                                                                                                    
                                                                                                    
                                                                                                    
                                                                                                    
                                                                                                    
                                                                                                    
                                                                                                    
                                                                                                    
                                                                                                    
                                                                                                    
                                                                                                    
                                                                                                    
                           
<?xpacket end="w"?></metadata>
<defs>
    <style>
      .cls-1 {
        fill: #7d7d7d;
        fill-rule: evenodd;
      }
    </style>
  </defs>
  <path id="Leakedin_copy" data-name="Leakedin copy" class="cls-1" d="M1059.3,2185.43h3.46v13.04h-3.46v-13.04Zm16.38,0.75a4.336,4.336,0,0,1,1.28,3.51v8.78h-3.49v-7.93a3.548,3.548,0,0,0-.28-1.58,1.907,1.907,0,0,0-1.9-1,2.36,2.36,0,0,0-2.36,1.47,5.115,5.115,0,0,0-.33,1.98v7.06h-3.07v-13.2h2.96v2.09a5.941,5.941,0,0,1,1.24-1.45,4.267,4.267,0,0,1,2.66-.79A4.963,4.963,0,0,1,1075.68,2186.18Zm-12.47-4.2a2.11,2.11,0,1,1-2.11-2.11A2.119,2.119,0,0,1,1063.21,2181.98Z" transform="translate(-1059 -2179.88)"/>
</svg>
