<svg xmlns="http://www.w3.org/2000/svg" width="17.97" height="18.59" viewBox="0 0 17.97 18.59"><path data-name="Leakedin copy" class="cls-1" d="M.3 5.55h3.46v13.04H.3V5.55zm16.38.75a4.336 4.336 0 0 1 1.28 3.51v8.78h-3.49v-7.93a3.548 3.548 0 0 0-.28-1.58 1.907 1.907 0 0 0-1.9-1 2.36 2.36 0 0 0-2.36 1.47 5.115 5.115 0 0 0-.33 1.98v7.06H6.53V5.39h2.96v2.09a5.941 5.941 0 0 1 1.24-1.45 4.267 4.267 0 0 1 2.66-.79 4.963 4.963 0 0 1 3.29 1.06zM4.21 2.1A2.11 2.11 0 1 1 2.1-.01 2.119 2.119 0 0 1 4.21 2.1z"/></svg>