<svg xmlns="http://www.w3.org/2000/svg" width="16" height="15.03" viewBox="0 0 16 15.03">
  <metadata><?xpacket begin="﻿" id="W5M0MpCehiHzreSzNTczkc9d"?>
<x:xmpmeta xmlns:x="adobe:ns:meta/" x:xmptk="Adobe XMP Core 5.6-c138 79.159824, 2016/09/14-01:09:01        ">
   <rdf:RDF xmlns:rdf="http://www.w3.org/1999/02/22-rdf-syntax-ns#">
      <rdf:Description rdf:about=""/>
   </rdf:RDF>
</x:xmpmeta>
                                                                                                    
                                                                                                    
                                                                                                    
                                                                                                    
                                                                                                    
                                                                                                    
                                                                                                    
                                                                                                    
                                                                                                    
                                                                                                    
                                                                                                    
                                                                                                    
                                                                                                    
                                                                                                    
                                                                                                    
                                                                                                    
                                                                                                    
                                                                                                    
                                                                                                    
                                                                                                    
                           
<?xpacket end="w"?></metadata>
<defs>
    <style>
      .cls-1 {
        fill: #57c5a0;
        fill-rule: evenodd;
      }
    </style>
  </defs>
  <path id="Buy" class="cls-1" d="M518.5,1631.19a1.4,1.4,0,1,1-1.391,1.4A1.4,1.4,0,0,1,518.5,1631.19Zm5-.03a1.43,1.43,0,1,1-1.422,1.43A1.426,1.426,0,0,1,523.5,1631.16Zm2.8-9.07a1,1,0,0,0-1.252.66s-1,2.5-1.5,4.29a1.312,1.312,0,0,1-1.477,1.03h-2.125a1.468,1.468,0,0,1-1.477-1.03c-0.916-1.8-2.44-5.05-2.44-5.05a1.631,1.631,0,0,0-1.363-.95H512a1.005,1.005,0,0,0,0,2.01h2.248l2.8,5.54a2.341,2.341,0,0,0,2.081,1.49h3.843a1.953,1.953,0,0,0,2.175-1.49l1.808-5.24a1.008,1.008,0,0,0-.657-1.26h0Zm-6.3-.04v-2.03a1,1,0,1,1,2,0v2.03h2.536L521,1625.6l-3.535-3.55H520Z" transform="translate(-511 -1619)"/>
</svg>
