<svg xmlns="http://www.w3.org/2000/svg" width="19.18" height="16.28" viewBox="0 0 19.18 16.28"><path data-name="G+ copy" class="cls-1" d="M9.78.77H8.43a3.646 3.646 0 0 1 1.56 3.1c-.07 1.49-1.01 2.09-1.88 2.79a2.355 2.355 0 0 0-.58.7c-.31.82.53 1.29.96 1.61.39.29.73.55 1.03.81a3.023 3.023 0 0 1 1.24 2.45 3.51 3.51 0 0 1-1.62 2.85 7.025 7.025 0 0 1-3.32 1.15 8 8 0 0 1-3.88-.51 2.832 2.832 0 0 1-1.93-2.51 2.74 2.74 0 0 1 .66-1.75C2.44 9.49 3.7 9.8 6.01 9.63a6 6 0 0 1-.58-.91 1.765 1.765 0 0 1 .15-1.36 4.066 4.066 0 0 1-3.45-1 3.225 3.225 0 0 1-.92-3A3.813 3.813 0 0 1 2.88.96 5.563 5.563 0 0 1 6.07 0h5.14M3.25 2.01a4.45 4.45 0 0 0 .25 2.8A3.378 3.378 0 0 0 5 6.61a2.22 2.22 0 0 0 2.81-.89A2.555 2.555 0 0 0 8 4.86 4.4 4.4 0 0 0 6.2.96 2.2 2.2 0 0 0 4.94.74a1.952 1.952 0 0 0-1.69 1.27zm-.16 8.93a2.169 2.169 0 0 0-.98 1.12 2.32 2.32 0 0 0-.04 1.33c.33 1.15 1.69 1.81 3.12 1.94 1.54.13 3.1-.11 3.77-1.2a2.081 2.081 0 0 0 .01-2.05 4.755 4.755 0 0 0-1.61-1.42 2.117 2.117 0 0 0-.62-.42 3.369 3.369 0 0 0-.71 0 6.128 6.128 0 0 0-2.94.7zM15.02.02h1.16c0 1-.02 1.98-.02 2.98.98.04 2-.01 3.02 0v1.19H16.2c0 1.03-.02 1.97-.02 3h-1.14c0-1.02-.02-1.98-.02-3-.99-.04-1.99.01-3.01 0V3H15c0-.99.02-1.93.02-2.92 0-.03-.02-.05 0-.06z"/></svg>