<svg xmlns="http://www.w3.org/2000/svg" width="16" height="10" viewBox="0 0 16 10">
  <metadata><?xpacket begin="﻿" id="W5M0MpCehiHzreSzNTczkc9d"?>
<x:xmpmeta xmlns:x="adobe:ns:meta/" x:xmptk="Adobe XMP Core 5.6-c138 79.159824, 2016/09/14-01:09:01        ">
   <rdf:RDF xmlns:rdf="http://www.w3.org/1999/02/22-rdf-syntax-ns#">
      <rdf:Description rdf:about=""/>
   </rdf:RDF>
</x:xmpmeta>
                                                                                                    
                                                                                                    
                                                                                                    
                                                                                                    
                                                                                                    
                                                                                                    
                                                                                                    
                                                                                                    
                                                                                                    
                                                                                                    
                                                                                                    
                                                                                                    
                                                                                                    
                                                                                                    
                                                                                                    
                                                                                                    
                                                                                                    
                                                                                                    
                                                                                                    
                                                                                                    
                           
<?xpacket end="w"?></metadata>
<defs>
    <style>
      .cls-1 {
        fill: #6e6e6e;
        fill-rule: evenodd;
      }
    </style>
  </defs>
  <path id="Eye_Icon" data-name="Eye Icon" class="cls-1" d="M770.983,449.89c-0.006-.021,0-0.043-0.011-0.064a0.239,0.239,0,0,0-.013-0.021c0-.012,0-0.025-0.01-0.037a9.008,9.008,0,0,0-15.9,0,0.259,0.259,0,0,0-.011.037c0,0.008-.01.013-0.013,0.022a0.449,0.449,0,0,0-.01.064A0.476,0.476,0,0,0,755,450a0.484,0.484,0,0,0,.018.112,0.472,0.472,0,0,0,.01.064c0,0.008.01,0.013,0.013,0.021a0.259,0.259,0,0,0,.011.037,9.008,9.008,0,0,0,15.9,0,0.329,0.329,0,0,0,.01-0.037,0.148,0.148,0,0,0,.013-0.021c0.008-.021,0-0.043.011-0.064A0.377,0.377,0,0,0,770.983,449.89ZM763,454a8.258,8.258,0,0,1-7-4,8.124,8.124,0,0,1,14,0A8.261,8.261,0,0,1,763,454Zm0-6h0a2,2,0,0,0-2,2,0.25,0.25,0,1,0,.5,0,1.5,1.5,0,0,1,1.5-1.5h0A0.25,0.25,0,0,0,763,448Zm-0.012-1.5a3.5,3.5,0,1,0,3.5,3.5A3.5,3.5,0,0,0,762.988,446.5Zm0,6.51a3,3,0,1,1,3-3A3.008,3.008,0,0,1,762.988,453.007Z" transform="translate(-755 -445)"/>
</svg>
