<svg xmlns="http://www.w3.org/2000/svg" width="16" height="10" viewBox="0 0 16 10"><path data-name="Eye Icon" class="cls-1" d="M15.983 4.89c-.006-.021 0-.043-.011-.064a.239.239 0 0 0-.013-.021c0-.012 0-.025-.01-.037a9.008 9.008 0 0 0-15.9 0 .259.259 0 0 0-.011.037c0 .008-.01.013-.013.022a.449.449 0 0 0-.01.064A.476.476 0 0 0 0 5a.484.484 0 0 0 .018.112.472.472 0 0 0 .01.064c0 .008.01.013.013.021a.259.259 0 0 0 .011.037 9.008 9.008 0 0 0 15.9 0 .329.329 0 0 0 .01-.037.148.148 0 0 0 .013-.021c.008-.021 0-.043.011-.064a.377.377 0 0 0-.003-.222zM8 9a8.258 8.258 0 0 1-7-4 8.124 8.124 0 0 1 14 0 8.261 8.261 0 0 1-7 4zm0-6a2 2 0 0 0-2 2 .25.25 0 1 0 .5 0A1.5 1.5 0 0 1 8 3.5.25.25 0 0 0 8 3zm-.012-1.5a3.5 3.5 0 1 0 3.5 3.5 3.5 3.5 0 0 0-3.5-3.5zm0 6.51a3 3 0 1 1 3-3 3.008 3.008 0 0 1-3 2.997z"/></svg>