<svg xmlns="http://www.w3.org/2000/svg" width="19.188" height="15.9" viewBox="0 0 19.188 15.9"><path data-name="Twitter copy" class="cls-1" d="M19.202 1.93c-.092.72-1.138 1.45-1.772 2 .626 9.21-9.824 14.96-17.417 10.29 2.129.02 4.527-.57 5.794-1.77-1.842-.3-3.147-1.13-3.653-2.77a4.842 4.842 0 0 0 1.661-.11C2.13 8.93.797 7.94.715 5.7a5.762 5.762 0 0 0 1.66.33A4.492 4.492 0 0 1 1.158.72a11.849 11.849 0 0 0 8.3 4.2c-.957-4.07 4.437-6.59 6.864-3.65a13.712 13.712 0 0 0 2.545-.89 5.288 5.288 0 0 1-1.66 2.11 6.106 6.106 0 0 0 1.995-.56z"/></svg>