<svg xmlns="http://www.w3.org/2000/svg" width="16" height="13.031" viewBox="0 0 16 13.031"><path data-name="Cart Icon" class="cls-1" d="M7.5 10.183a1.4 1.4 0 1 1-1.39 1.4 1.394 1.394 0 0 1 1.39-1.4zm5-.031a1.432 1.432 0 1 1-1.42 1.432 1.422 1.422 0 0 1 1.42-1.432zm2.8-9.1a1.007 1.007 0 0 0-1.26.66s-.99 2.513-1.5 4.31a1.315 1.315 0 0 1-1.48 1.029H8.94a1.472 1.472 0 0 1-1.48-1.038C6.55 4.213 5.02.957 5.02.957A1.632 1.632 0 0 0 3.66.001H1a1.007 1.007 0 0 0 0 2.014h2.25l2.8 5.56a2.328 2.328 0 0 0 2.08 1.491h3.84a1.962 1.962 0 0 0 2.18-1.491l1.8-5.26a1.007 1.007 0 0 0-.65-1.262c-.53-.166.52.166 0 0s.52.166 0 0 .52.167 0 .001z"/></svg>