<svg xmlns="http://www.w3.org/2000/svg" width="16" height="16" viewBox="0 0 16 16">
  <metadata><?xpacket begin="﻿" id="W5M0MpCehiHzreSzNTczkc9d"?>
<x:xmpmeta xmlns:x="adobe:ns:meta/" x:xmptk="Adobe XMP Core 5.6-c138 79.159824, 2016/09/14-01:09:01        ">
   <rdf:RDF xmlns:rdf="http://www.w3.org/1999/02/22-rdf-syntax-ns#">
      <rdf:Description rdf:about=""/>
   </rdf:RDF>
</x:xmpmeta>
                                                                                                    
                                                                                                    
                                                                                                    
                                                                                                    
                                                                                                    
                                                                                                    
                                                                                                    
                                                                                                    
                                                                                                    
                                                                                                    
                                                                                                    
                                                                                                    
                                                                                                    
                                                                                                    
                                                                                                    
                                                                                                    
                                                                                                    
                                                                                                    
                                                                                                    
                                                                                                    
                           
<?xpacket end="w"?></metadata>
<defs>
    <style>
      .cls-1 {
        fill: #6e6e6e;
        fill-rule: evenodd;
      }
    </style>
  </defs>
  <path id="Star_Icon" data-name="Star Icon" class="cls-1" d="M1018.93,76.969a1.172,1.172,0,0,0-.92-0.779l-4.16-.638-1.81-3.871a1.144,1.144,0,0,0-2.08,0l-1.81,3.871-4.16.638a1.172,1.172,0,0,0-.92.779,1.184,1.184,0,0,0,.27,1.178l3.05,3.139-0.71,4.355a1.166,1.166,0,0,0,.47,1.135,1.162,1.162,0,0,0,1.23.067l3.62-2.014,3.62,2.014a1.162,1.162,0,0,0,1.23-.067,1.166,1.166,0,0,0,.47-1.135l-0.71-4.355,3.05-3.139A1.184,1.184,0,0,0,1018.93,76.969Zm-4.14,3.507a1.145,1.145,0,0,0-.31,1l0.7,4.355-3.62-2.014a1.157,1.157,0,0,0-1.12,0l-3.62,2.014,0.71-4.355a1.181,1.181,0,0,0-.32-1l-3.04-3.139,4.15-.639a1.149,1.149,0,0,0,.87-0.653l1.81-3.871,1.81,3.871a1.149,1.149,0,0,0,.87.653l4.15,0.639Z" transform="translate(-1003 -71)"/>
</svg>
