<svg xmlns="http://www.w3.org/2000/svg" width="19.18" height="16.28" viewBox="0 0 19.18 16.28">
  <metadata><?xpacket begin="﻿" id="W5M0MpCehiHzreSzNTczkc9d"?>
<x:xmpmeta xmlns:x="adobe:ns:meta/" x:xmptk="Adobe XMP Core 5.6-c138 79.159824, 2016/09/14-01:09:01        ">
   <rdf:RDF xmlns:rdf="http://www.w3.org/1999/02/22-rdf-syntax-ns#">
      <rdf:Description rdf:about=""/>
   </rdf:RDF>
</x:xmpmeta>
                                                                                                    
                                                                                                    
                                                                                                    
                                                                                                    
                                                                                                    
                                                                                                    
                                                                                                    
                                                                                                    
                                                                                                    
                                                                                                    
                                                                                                    
                                                                                                    
                                                                                                    
                                                                                                    
                                                                                                    
                                                                                                    
                                                                                                    
                                                                                                    
                                                                                                    
                                                                                                    
                           
<?xpacket end="w"?></metadata>
<defs>
    <style>
      .cls-1 {
        fill: #7d7d7d;
        fill-rule: evenodd;
      }
    </style>
  </defs>
  <path id="G_copy" data-name="G+ copy" class="cls-1" d="M1024.94,2182.24h-1.35a3.646,3.646,0,0,1,1.56,3.1c-0.07,1.49-1.01,2.09-1.88,2.79a2.355,2.355,0,0,0-.58.7c-0.31.82,0.53,1.29,0.96,1.61,0.39,0.29.73,0.55,1.03,0.81a3.023,3.023,0,0,1,1.24,2.45,3.51,3.51,0,0,1-1.62,2.85,7.025,7.025,0,0,1-3.32,1.15,8,8,0,0,1-3.88-.51,2.832,2.832,0,0,1-1.93-2.51,2.74,2.74,0,0,1,.66-1.75c1.77-1.97,3.03-1.66,5.34-1.83a6,6,0,0,1-.58-0.91,1.765,1.765,0,0,1,.15-1.36,4.066,4.066,0,0,1-3.45-1,3.225,3.225,0,0,1-.92-3,3.813,3.813,0,0,1,1.67-2.4,5.563,5.563,0,0,1,3.19-.96h5.14m-7.96,2.01a4.45,4.45,0,0,0,.25,2.8,3.378,3.378,0,0,0,1.5,1.8,2.22,2.22,0,0,0,2.81-.89,2.555,2.555,0,0,0,.19-0.86,4.4,4.4,0,0,0-1.8-3.9,2.2,2.2,0,0,0-1.26-.22A1.952,1.952,0,0,0,1018.41,2183.48Zm-0.16,8.93a2.169,2.169,0,0,0-.98,1.12,2.32,2.32,0,0,0-.04,1.33c0.33,1.15,1.69,1.81,3.12,1.94,1.54,0.13,3.1-.11,3.77-1.2a2.081,2.081,0,0,0,.01-2.05,4.755,4.755,0,0,0-1.61-1.42,2.117,2.117,0,0,0-.62-0.42,3.369,3.369,0,0,0-.71,0A6.128,6.128,0,0,0,1018.25,2192.41Zm11.93-10.92h1.16c0,1-.02,1.98-0.02,2.98,0.98,0.04,2-.01,3.02,0v1.19h-2.98c0,1.03-.02,1.97-0.02,3h-1.14c0-1.02-.02-1.98-0.02-3-0.99-.04-1.99.01-3.01,0v-1.19h2.99c0-.99.02-1.93,0.02-2.92C1030.18,2181.52,1030.16,2181.5,1030.18,2181.49Z" transform="translate(-1015.16 -2181.47)"/>
</svg>
