<svg xmlns="http://www.w3.org/2000/svg" width="16" height="16" viewBox="0 0 16 16"><path data-name="Star Icon" class="cls-1" d="M15.93 5.969a1.172 1.172 0 0 0-.92-.779l-4.16-.638L9.04.681a1.144 1.144 0 0 0-2.08 0L5.15 4.552.99 5.19a1.172 1.172 0 0 0-.92.779 1.184 1.184 0 0 0 .27 1.178l3.05 3.139-.71 4.355a1.166 1.166 0 0 0 .47 1.135 1.162 1.162 0 0 0 1.23.067L8 13.829l3.62 2.014a1.162 1.162 0 0 0 1.23-.067 1.166 1.166 0 0 0 .47-1.135l-.71-4.355 3.05-3.139a1.184 1.184 0 0 0 .27-1.178zm-4.14 3.507a1.145 1.145 0 0 0-.31 1l.7 4.355-3.62-2.014a1.157 1.157 0 0 0-1.12 0l-3.62 2.014.71-4.355a1.181 1.181 0 0 0-.32-1L1.17 6.337l4.15-.639a1.149 1.149 0 0 0 .87-.653L8 1.174l1.81 3.871a1.149 1.149 0 0 0 .87.653l4.15.639z"/></svg>