<svg xmlns="http://www.w3.org/2000/svg" width="16" height="13.031" viewBox="0 0 16 13.031">
  <metadata><?xpacket begin="﻿" id="W5M0MpCehiHzreSzNTczkc9d"?>
<x:xmpmeta xmlns:x="adobe:ns:meta/" x:xmptk="Adobe XMP Core 5.6-c138 79.159824, 2016/09/14-01:09:01        ">
   <rdf:RDF xmlns:rdf="http://www.w3.org/1999/02/22-rdf-syntax-ns#">
      <rdf:Description rdf:about=""/>
   </rdf:RDF>
</x:xmpmeta>
                                                                                                    
                                                                                                    
                                                                                                    
                                                                                                    
                                                                                                    
                                                                                                    
                                                                                                    
                                                                                                    
                                                                                                    
                                                                                                    
                                                                                                    
                                                                                                    
                                                                                                    
                                                                                                    
                                                                                                    
                                                                                                    
                                                                                                    
                                                                                                    
                                                                                                    
                                                                                                    
                           
<?xpacket end="w"?></metadata>
<defs>
    <style>
      .cls-1 {
        fill: #6e6e6e;
        fill-rule: evenodd;
      }
    </style>
  </defs>
  <path id="Cart_Icon" data-name="Cart Icon" class="cls-1" d="M1109.5,80.183a1.4,1.4,0,1,1-1.39,1.4A1.394,1.394,0,0,1,1109.5,80.183Zm5-.031a1.432,1.432,0,1,1-1.42,1.432A1.422,1.422,0,0,1,1114.5,80.152Zm2.8-9.1a1.007,1.007,0,0,0-1.26.66s-0.99,2.513-1.5,4.31a1.315,1.315,0,0,1-1.48,1.029h-2.12a1.472,1.472,0,0,1-1.48-1.038c-0.91-1.8-2.44-5.056-2.44-5.056a1.632,1.632,0,0,0-1.36-.956H1103a1.007,1.007,0,0,0,0,2.014h2.25l2.8,5.56a2.328,2.328,0,0,0,2.08,1.491h3.84a1.962,1.962,0,0,0,2.18-1.491l1.8-5.26a1.007,1.007,0,0,0-.65-1.262c-0.53-.166.52,0.166,0,0s0.52,0.166,0,0S1117.82,71.22,1117.3,71.054Z" transform="translate(-1102 -70)"/>
</svg>
