<svg xmlns="http://www.w3.org/2000/svg" width="16" height="13" viewBox="0 0 16 13">
  <metadata><?xpacket begin="﻿" id="W5M0MpCehiHzreSzNTczkc9d"?>
<x:xmpmeta xmlns:x="adobe:ns:meta/" x:xmptk="Adobe XMP Core 5.6-c138 79.159824, 2016/09/14-01:09:01        ">
   <rdf:RDF xmlns:rdf="http://www.w3.org/1999/02/22-rdf-syntax-ns#">
      <rdf:Description rdf:about=""/>
   </rdf:RDF>
</x:xmpmeta>
                                                                                                    
                                                                                                    
                                                                                                    
                                                                                                    
                                                                                                    
                                                                                                    
                                                                                                    
                                                                                                    
                                                                                                    
                                                                                                    
                                                                                                    
                                                                                                    
                                                                                                    
                                                                                                    
                                                                                                    
                                                                                                    
                                                                                                    
                                                                                                    
                                                                                                    
                                                                                                    
                           
<?xpacket end="w"?></metadata>
<defs>
    <style>
      .cls-1 {
        fill: #6e6e6e;
        fill-rule: evenodd;
      }
    </style>
  </defs>
  <path id="Share_Icon" data-name="Share Icon" class="cls-1" d="M839.973,453s1.539-2.436,6.987-2.436V453L852,449.02,846.96,445s0,2.344,0,2.344C846.831,447.343,839.973,447.633,839.973,453ZM849,454c-0.021,0,0,.447,0,1h-0.01v2h-12V447h4v0l0.01,0c0.553,0,1,.021,1,0a1,1,0,0,0-1-1l-0.01,0h-3a2,2,0,0,0-2,2v8a2,2,0,0,0,2,2h10a2,2,0,0,0,1.991-1.9c0-.033.019-0.062,0.019-0.1v-1A1,1,0,0,0,849,454Z" transform="translate(-836 -445)"/>
</svg>
