<svg xmlns="http://www.w3.org/2000/svg" width="19.188" height="15.9" viewBox="0 0 19.188 15.9">
  <metadata><?xpacket begin="﻿" id="W5M0MpCehiHzreSzNTczkc9d"?>
<x:xmpmeta xmlns:x="adobe:ns:meta/" x:xmptk="Adobe XMP Core 5.6-c138 79.159824, 2016/09/14-01:09:01        ">
   <rdf:RDF xmlns:rdf="http://www.w3.org/1999/02/22-rdf-syntax-ns#">
      <rdf:Description rdf:about=""/>
   </rdf:RDF>
</x:xmpmeta>
                                                                                                    
                                                                                                    
                                                                                                    
                                                                                                    
                                                                                                    
                                                                                                    
                                                                                                    
                                                                                                    
                                                                                                    
                                                                                                    
                                                                                                    
                                                                                                    
                                                                                                    
                                                                                                    
                                                                                                    
                                                                                                    
                                                                                                    
                                                                                                    
                                                                                                    
                                                                                                    
                           
<?xpacket end="w"?></metadata>
<defs>
    <style>
      .cls-1 {
        fill: #7d7d7d;
        fill-rule: evenodd;
      }
    </style>
  </defs>
  <path id="Twitter_copy" data-name="Twitter copy" class="cls-1" d="M989.952,2183.12c-0.092.72-1.138,1.45-1.772,2,0.626,9.21-9.824,14.96-17.417,10.29,2.129,0.02,4.527-.57,5.794-1.77-1.842-.3-3.147-1.13-3.653-2.77a4.842,4.842,0,0,0,1.661-.11c-1.685-.64-3.018-1.63-3.1-3.87a5.762,5.762,0,0,0,1.66.33,4.492,4.492,0,0,1-1.217-5.31,11.849,11.849,0,0,0,8.3,4.2c-0.957-4.07,4.437-6.59,6.864-3.65a13.712,13.712,0,0,0,2.545-.89,5.288,5.288,0,0,1-1.66,2.11A6.106,6.106,0,0,0,989.952,2183.12Z" transform="translate(-970.75 -2181.19)"/>
</svg>
