<svg width="156" height="20" xmlns="http://www.w3.org/2000/svg" viewBox="0 0 160.1 19.5"><style>.st0{fill:#57C49F}</style><g id="XMLID_2_"><path id="XMLID_24_" class="st0" d="M0 .3h10.5v2h-8v6.3h7.4v2H2.5v8.5H0V.3z"/><path id="XMLID_21_" class="st0" d="M30.7 9.5c0 6.5-4.1 9.9-9 9.9-5.1 0-8.7-3.9-8.7-9.6 0-6 3.8-9.9 9-9.9 5.2.1 8.7 4 8.7 9.6zm-15.1.4c0 4 2.2 7.6 6.2 7.6S28 13.9 28 9.7C28 5.9 26 2 21.8 2s-6.2 3.7-6.2 7.9z"/><path id="XMLID_18_" class="st0" d="M50.5 9.5c0 6.5-4.1 9.9-9 9.9-5.1 0-8.7-3.9-8.7-9.6 0-6 3.8-9.9 9-9.9 5.3.1 8.7 4 8.7 9.6zm-15.1.4c0 4 2.2 7.6 6.2 7.6s6.2-3.6 6.2-7.8c0-3.8-2-7.7-6.2-7.7-4.1 0-6.2 3.7-6.2 7.9z"/><path id="XMLID_16_" class="st0" d="M53.4 16.2c1.1.7 2.8 1.2 4.5 1.2 2.6 0 4.1-1.3 4.1-3.2 0-1.8-1-2.8-3.7-3.8-3.2-1.1-5.1-2.7-5.1-5.3 0-2.9 2.5-5.1 6.3-5.1 2 0 3.4.4 4.3.9l-.7 2c-.6-.3-1.9-.9-3.7-.9-2.7 0-3.7 1.5-3.7 2.8 0 1.8 1.2 2.6 3.9 3.6 3.3 1.2 5 2.8 5 5.5 0 2.9-2.2 5.4-6.8 5.4-1.9 0-3.9-.5-5-1.2l.6-1.9z"/><path id="XMLID_14_" class="st0" d="M78.1 10.3h-7.6v6.8h8.4v2H68V.3h10.5v2h-8v6h7.6v2z"/><path id="XMLID_12_" class="st0" d="M81.8 16.2c1.1.7 2.8 1.2 4.5 1.2 2.6 0 4.1-1.3 4.1-3.2 0-1.8-1-2.8-3.7-3.8-3.2-1.1-5.1-2.7-5.1-5.3 0-2.9 2.5-5.1 6.3-5.1 2 0 3.4.4 4.3.9l-.7 2c-.6-.3-1.9-.9-3.7-.9-2.7 0-3.7 1.5-3.7 2.8 0 1.8 1.2 2.6 3.9 3.6 3.3 1.2 5 2.8 5 5.5 0 2.9-2.2 5.4-6.8 5.4-1.9 0-3.9-.5-5-1.2l.6-1.9z"/><path id="XMLID_10_" class="st0" d="M98.9.3v7.9h9.4V.3h2.5v18.9h-2.5v-8.8h-9.4v8.8h-2.5V.3h2.5z"/><path id="XMLID_7_" class="st0" d="M131.8 9.5c0 6.5-4.1 9.9-9 9.9-5.1 0-8.7-3.9-8.7-9.6 0-6 3.8-9.9 9-9.9 5.3.1 8.7 4 8.7 9.6zm-15.1.4c0 4 2.2 7.6 6.2 7.6s6.2-3.6 6.2-7.8c0-3.8-2-7.7-6.2-7.7-4.1 0-6.2 3.7-6.2 7.9z"/><path id="XMLID_5_" class="st0" d="M145.2 10.3h-7.6v6.8h8.4v2h-10.9V.3h10.5v2h-8v6h7.6v2z"/><path id="XMLID_3_" class="st0" d="M148.9 16.2c1.1.7 2.8 1.2 4.5 1.2 2.6 0 4.1-1.3 4.1-3.2 0-1.8-1-2.8-3.7-3.8-3.2-1.1-5.1-2.7-5.1-5.3 0-2.9 2.5-5.1 6.3-5.1 2 0 3.4.4 4.3.9l-.7 2c-.6-.3-1.9-.9-3.7-.9-2.7 0-3.7 1.5-3.7 2.8 0 1.8 1.2 2.6 3.9 3.6 3.3 1.2 5 2.8 5 5.5 0 2.9-2.2 5.4-6.8 5.4-1.9 0-3.9-.5-5-1.2l.6-1.9z"/></g></svg>
