<?xml version="1.0" encoding="UTF-8"?>
<svg enable-background="new -234 412.8 125.9 16" version="1.1" viewBox="-234 412.8 125.9 16" xml:space="preserve" xmlns="http://www.w3.org/2000/svg">
<style type="text/css">
	.st0{fill:#57C49F;}
	.st1{fill:none;}
	.st2{fill:#242424;}
</style>
<path class="st0" d="m-210.3 417.7c-0.8-2.8-3.2-4.7-5.9-4.9h-1.6c-2.9 0.1-5.2 1.9-6.3 4.5-0.6 1.8-0.7 3.5-0.4 5.3 0.5 2.4 1.7 4.3 3.9 5.4 1.5 0.7 3 0.8 4.6 0.6 2.4-0.4 4.2-1.6 5.2-3.8 1.1-2.3 1.2-4.7 0.5-7.1zm-1.6 5.1c-0.1 0.4-0.2 0.8-0.4 1.1v0.1c-0.2 0.6-0.4 1.1-0.8 1.5-0.1 0.1-0.1 0.2-0.2 0.2l-0.1 0.1c-0.3 0.3-0.6 0.5-0.9 0.6-0.5 0.2-1.1 0.5-1.7 0.6h-0.5-0.6-0.1c-0.3 0-0.6 0-0.8-0.1h-0.1c-0.6 0-1.3-0.3-1.8-0.6s-1.1-0.7-1.4-1.3c-0.4-0.5-0.6-1.1-0.9-1.7-0.2-0.6-0.3-1.2-0.3-1.8-0.1-0.8-0.1-1.5 0.1-2.3 0.2-0.9 0.6-1.6 0.9-2.4 0-0.1 0.1-0.2 0.2-0.2 0.5-1.2 2.2-2.1 3.5-2.3s2.9 0.2 3.9 1c0.1 0 0.1 0.1 0.2 0.1 0.1 0.1 0.1 0.1 0.1 0.2l0.1 0.1c0.1 0 0.1 0.1 0.2 0.1l0.3 0.3 0.1 0.1c0.2 0.2 0.2 0.4 0.3 0.6l0.2 0.2c0.3 0.9 0.6 1.8 0.8 2.7v0.2 0.1c-0.3 1.1-0.1 1.9-0.3 2.8z"/>
<path class="st0" d="m-158.4 420.7v-7.3c0-0.3 0.1-0.5 0.4-0.4h0.9c0.6 0 0.6 0 0.6 0.6v5.7c0 0.6-0.1 0.5 0.5 0.5h7.1c0.3 0 0.4-0.1 0.4-0.4v-5.9c0-0.4 0.1-0.5 0.5-0.5h1c0.2 0 0.3 0.1 0.3 0.3v14.7c0 0.4-0.1 0.5-0.5 0.5h-1c-0.3 0-0.4-0.1-0.4-0.4v-6.2c0-0.4-0.1-0.4-0.4-0.4h-7.1c-0.4 0-0.5 0.1-0.5 0.5v6.2c0 0.3-0.1 0.4-0.4 0.4h-1c-0.4 0-0.5-0.1-0.5-0.5 0.1-2.6 0.1-5 0.1-7.4z"/>
<path class="st0" d="m-180.2 420.7v-7.3c0-0.3 0.1-0.4 0.4-0.4h6.9c0.5 0 0.5 0 0.5 0.5 0 0.4 0.2 0.8-0.1 1.1-0.2 0.2-0.7 0.1-1.1 0.1h-4.5c-0.3 0-0.4 0.1-0.4 0.4v4.3c0 0.3 0.1 0.4 0.4 0.4h4.7c0.3 0 0.5 0.1 0.4 0.4 0 0.4 0.2 0.9-0.1 1.1-0.2 0.3-0.8 0.1-1.2 0.1h-3.9c-0.3 0-0.4 0.1-0.4 0.4v4.7c0 0.3 0.1 0.4 0.4 0.4h5.5c0.3 0 0.5 0.1 0.4 0.4v0.9c0 0.2 0 0.3-0.3 0.3h-7.7c-0.3 0-0.3-0.2-0.3-0.4 0.4-2.5 0.4-5 0.4-7.4z"/>
<path class="st0" d="m-127.3 420.7v-7.3c0-0.3 0.1-0.4 0.4-0.4h6.9c0.6 0 0.6 0 0.6 0.6v0.7c0 0.3-0.1 0.4-0.4 0.4h-5.2c-0.4 0-0.5 0.1-0.5 0.5v4.2c0 0.4 0.1 0.5 0.5 0.5h4.7c0.3 0 0.4 0.1 0.4 0.4v0.9c0 0.3-0.1 0.4-0.4 0.4h-4.7c-0.4 0-0.5 0.1-0.5 0.5v4.5c0 0.4 0.1 0.5 0.5 0.5h5.4c0.3 0 0.5 0.1 0.5 0.4v0.9c0 0.3-0.1 0.3-0.3 0.3h-7.5c-0.3 0-0.4-0.1-0.4-0.4v-7.6z"/>
<path class="st0" d="m-187.4 412.8h1.8c0.7 0 1.4 0.1 2 0.4 0.2 0.1 0.3 0.2 0.3 0.4v1.8c-0.7-0.4-1.3-0.7-2-0.8-1-0.2-2-0.2-3 0.1-1.6 0.4-2.3 1.9-1.5 3.2 0.2 0.4 0.6 0.7 1 1 0.9 0.6 1.9 1 2.8 1.5 1 0.5 1.9 1.1 2.7 2 1.3 1.6 1 4.7-1.5 5.8-1.4 0.6-2.8 0.7-4.2 0.5-0.9-0.1-1.7-0.3-2.5-0.6-0.3-0.1-0.4-0.3-0.4-0.6v-1.8c0.8 0.6 1.6 0.9 2.6 1.2 1.1 0.3 2.2 0.3 3.3 0 1.7-0.5 2.1-2.5 0.9-3.7-0.5-0.5-1.2-0.9-1.8-1.2-0.9-0.5-1.8-0.9-2.6-1.4-0.9-0.6-1.7-1.2-2.1-2.2-0.8-2.1 0.2-4.1 2.4-5 0.5-0.4 1.1-0.6 1.8-0.6z"/>
<path class="st0" d="m-165.7 412.8h1.8c0.7 0 1.4 0.1 2 0.4 0.2 0.1 0.3 0.2 0.3 0.4v1.8c-0.7-0.4-1.3-0.7-2-0.8-1-0.2-2-0.2-3 0.1-1.6 0.4-2.3 1.9-1.5 3.2 0.2 0.4 0.6 0.7 1 1 0.9 0.6 1.9 1 2.8 1.5 1 0.5 1.9 1.1 2.7 2 1.3 1.6 1 4.7-1.5 5.8-1.4 0.6-2.8 0.7-4.2 0.5-0.9-0.1-1.7-0.3-2.5-0.6-0.3-0.1-0.4-0.3-0.4-0.6v-1.8c0.8 0.6 1.6 0.9 2.6 1.2 1.1 0.3 2.2 0.3 3.3 0 1.7-0.5 2.1-2.5 0.9-3.7-0.5-0.5-1.2-0.9-1.8-1.2-0.9-0.5-1.8-0.9-2.6-1.4-0.9-0.6-1.7-1.2-2.1-2.2-0.8-2.1 0.2-4.1 2.4-5 0.5-0.4 1.1-0.6 1.8-0.6z"/>
<path class="st0" d="m-108.1 425.2c-0.2 1.6-1.2 2.5-2.6 3.1-1.6 0.6-3.2 0.5-4.8 0.2-0.5-0.1-1.1-0.3-1.6-0.5-0.2-0.1-0.3-0.2-0.3-0.5v-1.8c0.9 0.7 1.9 1.1 3 1.3 1 0.2 1.9 0.2 2.9-0.1 1.7-0.5 2.1-2.5 0.9-3.7-0.5-0.5-1.2-0.9-1.8-1.2-0.9-0.5-1.8-0.9-2.7-1.4-0.9-0.6-1.7-1.2-2.1-2.2-0.8-2.1 0.2-4.1 2.4-5 0.6-0.2 1.3-0.4 1.9-0.4h1.8c0.7 0 1.4 0.1 2 0.4 0.2 0.1 0.3 0.2 0.3 0.4v1.8c-0.7-0.4-1.3-0.7-2-0.8-1-0.2-2-0.2-3 0.1-1.6 0.4-2.3 1.9-1.5 3.2 0.2 0.4 0.6 0.7 1 1 0.9 0.6 1.9 1 2.8 1.5 1 0.6 2.1 1.2 2.8 2.2 0.3 0.1 0.6 0.6 0.6 1.2"/>
<path class="st0" d="m-233.7 420.7v-7.3c0-0.3 0.1-0.4 0.4-0.4h6.9c0.6 0 0.6 0 0.6 0.5 0 0.4 0.2 0.8-0.1 1.1-0.2 0.2-0.7 0.1-1 0.1h-4.5c-0.3 0-0.4 0.1-0.4 0.4v4.5c0 0.3 0.1 0.4 0.4 0.4h4.8c0.3 0 0.4 0.1 0.4 0.4v0.9c0 0.3-0.1 0.4-0.4 0.4h-4.7c-0.5 0-0.5 0-0.5 0.5v5.9c0 0.4-0.1 0.5-0.5 0.4h-1.1c-0.3 0-0.4-0.1-0.4-0.4 0.1-2.5 0.1-5 0.1-7.4z"/>
<path class="st1" d="m-195.8 420.7c0 1.2-0.1 2.2-0.5 3.2-1 2.4-3.2 3.4-5.5 3.1-2.4-0.3-3.8-1.7-4.4-3.9-0.6-2.1-0.5-4.1 0.5-6 1.9-3.5 6.3-3.2 8.1-1.4 1 1 1.5 2.3 1.7 3.7 0.1 0.4 0.2 0.9 0.1 1.3z"/>
<path class="st2" d="m-191.2 429.8"/>
<path class="st0" d="m-194.2 417.7c-0.8-2.8-3.2-4.7-5.9-4.9h-1.6c-2.9 0.1-5.2 1.9-6.3 4.5-0.6 1.8-0.7 3.5-0.4 5.3 0.5 2.4 1.7 4.3 3.9 5.4 1.5 0.7 3 0.8 4.6 0.6 2.4-0.4 4.2-1.6 5.2-3.8 1.1-2.3 1.2-4.7 0.5-7.1zm-1.6 5.2c-0.1 0.4-0.2 0.8-0.4 1.1v0.1c-0.2 0.6-0.4 1.1-0.8 1.5-0.1 0.1-0.1 0.2-0.2 0.2l-0.1 0.1c-0.3 0.3-0.6 0.5-0.9 0.6-0.5 0.2-1.1 0.5-1.7 0.6h-0.5-0.6-0.1c-0.3 0-0.6 0-0.8-0.1h-0.1c-0.6 0-1.3-0.3-1.8-0.6s-1.1-0.7-1.4-1.3c-0.4-0.5-0.6-1.1-0.9-1.7-0.2-0.6-0.3-1.2-0.3-1.8-0.1-0.8-0.1-1.5 0.1-2.3 0.2-0.9 0.6-1.6 0.9-2.4 0-0.1 0.1-0.2 0.2-0.2 0.5-1.2 2.2-2.1 3.5-2.3s2.9 0.2 3.9 1c0.1 0 0.1 0.1 0.2 0.1 0.1 0.1 0.1 0.1 0.1 0.2l0.1 0.1c0.1 0 0.1 0.1 0.2 0.1l0.3 0.3 0.1 0.1c0.2 0.2 0.2 0.4 0.3 0.6l0.2 0.2c0.3 0.9 0.6 1.8 0.8 2.7v0.2 0.1c-0.3 1.1-0.1 1.9-0.3 2.8z"/>
<path class="st0" d="m-130.2 417.8c-0.8-2.8-3.2-4.7-5.9-4.9h-1.6c-2.9 0.1-5.2 1.9-6.3 4.5-0.6 1.8-0.7 3.5-0.4 5.3 0.5 2.4 1.7 4.3 3.9 5.4 1.5 0.7 3 0.8 4.6 0.6 2.4-0.4 4.2-1.6 5.2-3.8 1.1-2.3 1.2-4.7 0.5-7.1zm-1.6 5.1c-0.1 0.4-0.2 0.8-0.4 1.1v0.1c-0.2 0.6-0.4 1.1-0.8 1.5-0.1 0.1-0.1 0.2-0.2 0.2l-0.1 0.1c-0.3 0.3-0.6 0.5-0.9 0.6-0.5 0.2-1.1 0.5-1.7 0.6h-0.5-0.6-0.1c-0.3 0-0.6 0-0.8-0.1h-0.1c-0.6 0-1.3-0.3-1.8-0.6s-1.1-0.7-1.4-1.3c-0.4-0.5-0.6-1.1-0.9-1.7-0.2-0.6-0.3-1.2-0.3-1.8-0.1-0.8-0.1-1.5 0.1-2.3 0.2-0.9 0.6-1.6 0.9-2.4 0-0.1 0.1-0.2 0.2-0.2 0.5-1.2 2.2-2.1 3.5-2.3s2.9 0.2 3.9 1c0.1 0 0.1 0.1 0.2 0.1 0.1 0.1 0.1 0.1 0.1 0.2l0.1 0.1c0.1 0 0.1 0.1 0.2 0.1l0.3 0.3 0.1 0.1c0.2 0.2 0.2 0.4 0.3 0.6l0.2 0.2c0.3 0.9 0.6 1.8 0.8 2.7v0.2 0.1c-0.3 1.2-0.1 2-0.3 2.8z"/>
</svg>
