<svg width="156" height="20" xmlns="http://www.w3.org/2000/svg" viewBox="-219 410.9 156 20"><path fill="#57C49F" d="M-197.1 410.9h-2c-3.6.1-6.4 2.4-7.8 5.6-.7 2.2-.9 4.3-.5 6.6.6 3 2.1 5.3 4.8 6.7 1.9.9 3.7 1 5.7.7 3-.5 5.2-2 6.4-4.7 1.4-2.8 1.5-5.8.6-8.8-.8-3.5-3.8-5.9-7.2-6.1zm5.4 12.4c-.8 3.4-3.6 5.6-7.1 5.3-5.3-.6-7.3-6.5-5.6-10.9.5-1.2 1.2-2.3 2.2-3.1 2.5-2.1 6.2-2.4 8.6 0 2 2.1 2.6 5.7 1.9 8.7zm-17.3-11.8c0-.2 0-.5-.3-.6h-9c-.4 0-.5.1-.5.5v9c0 3 0 6.1-.1 9.2 0 .4.1.5.5.5h1.9c.1-.1.2-.2.2-.5v-7.3c0-.6 0-.6.6-.6h5.8c.4 0 .5-.1.5-.5v-1.1c0-.4-.1-.5-.5-.5h-5.9c-.4 0-.5-.1-.5-.5v-5.6c0-.4.1-.5.5-.5h6.6c.2-.1.3-.3.3-.5 0-.3 0-.7-.1-1zm48.4 8.5c-1-.6-2.3-1-3.1-1.9-1.1-1.1-1.5-2.9-.2-4 1.5-1.3 4.2-1.2 5.9-.6.2.1 1.6.6 1.6.8v-2.2c0-.2-.1-.4-.4-.5-1.3-.7-3.1-.8-4.7-.5-1.4.2-2.8.8-3.7 1.6-1.5 1.3-2.3 3.4-1.5 5.3 1.4 3.4 6 3.6 8.3 6.2.8.9.8 2.3.2 3.3-.7 1.1-2.2 1.4-3.4 1.4-1.3 0-2.7-.4-3.9-.9-.2-.1-1.5-.6-1.5-.9v2.2c0 .4.1.6.5.7 2.7.9 5.6 1.3 8.3.1 2-.9 3.1-3.1 2.7-5.2-.4-2.6-3.1-3.8-5.1-4.9zm83.2 8.4h-6.7c-.5 0-.6-.1-.6-.6v-5.6c0-.5.1-.6.6-.6h5.8c.4 0 .5-.1.5-.5V420c0-.4-.1-.5-.5-.5h-5.8c-.5 0-.6-.1-.6-.6v-5.2c0-.5.1-.6.6-.6h6.4c.4 0 .5-.1.5-.5v-.9c0-.7 0-.7-.7-.7h-8.5c-.4 0-.5.1-.5.5V430c0 .4.1.5.5.5h9.3c.2 0 .4 0 .4-.4V429c-.1-.5-.3-.6-.7-.6zm-33.9-17.5h-1.2c-.5 0-.6.1-.6.6v7.3c0 .4-.1.5-.5.5h-8.8c-.7 0-.6.1-.6-.6v-7.1c0-.7 0-.7-.7-.7h-1.1c-.4-.1-.5.1-.5.5v9c0 3 0 5.9-.1 9.2 0 .5.1.6.6.6h1.2c.4 0 .5-.1.5-.5V422c0-.5.1-.6.6-.6h8.8c.4 0 .5 0 .5.5v7.7c0 .4.1.5.5.5h1.2c.5 0 .6-.1.6-.6v-18.2c-.1-.3-.2-.4-.4-.4z"/><path fill="none" d="M-171.8 418.7c0 1.5-.1 2.7-.6 4-1.2 3-4 4.2-6.8 3.8-3-.4-4.7-2.1-5.5-4.8-.7-2.6-.6-5.1.6-7.4 2.4-4.3 7.8-4 10-1.7 1.2 1.2 1.9 2.8 2.1 4.6.2.4.3 1 .2 1.5z"/><path fill="#57C49F" d="M-177.5 410.9h-2c-3.6.1-6.4 2.4-7.8 5.6-.7 2.2-.9 4.3-.5 6.6.6 3 2.1 5.3 4.8 6.7 1.9.9 3.7 1 5.7.7 3-.5 5.2-2 6.4-4.7 1.4-2.8 1.5-5.8.6-8.8-.9-3.5-3.9-5.9-7.2-6.1zm5.4 12.4c-.8 3.4-3.6 5.6-7.1 5.3-5.3-.6-7.3-6.5-5.6-10.9.5-1.2 1.2-2.3 2.2-3.1 2.5-2.1 6.2-2.4 8.6 0 2 2.1 2.6 5.7 1.9 8.7zm74.2-12.4h-2c-3.6.1-6.4 2.4-7.8 5.6-.7 2.2-.9 4.3-.5 6.6.6 3 2.1 5.3 4.8 6.7 1.9.9 3.7 1 5.7.7 3-.5 5.2-2 6.4-4.7 1.4-2.8 1.5-5.8.6-8.8-.9-3.5-3.9-5.9-7.2-6.1zm5.4 12.4c-.8 3.4-3.6 5.6-7.1 5.3-5.3-.6-7.3-6.5-5.6-10.9.5-1.2 1.2-2.3 2.2-3.1 2.5-2.1 6.2-2.4 8.6 0 2 2.1 2.6 5.7 1.9 8.7zm-41.2-3.3c-1-.6-2.3-1-3.1-1.9-1.1-1.1-1.5-2.9-.2-4 1.5-1.3 4.2-1.2 5.9-.6.2.1 1.6.6 1.6.8v-2.2c0-.2-.1-.4-.4-.5-1.3-.7-3.1-.8-4.7-.5-1.4.2-2.8.8-3.7 1.6-1.5 1.3-2.3 3.4-1.5 5.3 1.4 3.4 6 3.6 8.3 6.2.8.9.8 2.3.2 3.3-.7 1.1-2.2 1.4-3.4 1.4-1.3 0-2.7-.4-3.9-.9-.2-.1-1.5-.6-1.5-.9v2.2c0 .4.1.6.5.7 2.7.9 5.6 1.3 8.3.1 2-.9 3.1-3.1 2.7-5.2-.4-2.6-3.1-3.8-5.1-4.9zm65.3 0c-1-.6-2.3-1-3.1-1.9-1.1-1.1-1.5-2.9-.2-4 1.5-1.3 4.2-1.2 5.9-.6.2.1 1.6.6 1.6.8v-2.2c0-.2-.1-.4-.4-.5-1.3-.7-3.1-.8-4.7-.5-1.4.2-2.8.8-3.7 1.6-1.5 1.3-2.3 3.4-1.5 5.3 1.4 3.4 6 3.6 8.3 6.2.8.9.8 2.3.2 3.3-.7 1.1-2.2 1.4-3.4 1.4-1.3 0-2.7-.4-3.9-.9-.2-.1-1.5-.6-1.5-.9v2.2c0 .4.1.6.5.7 2.7.9 5.6 1.3 8.3.1 2-.9 3.1-3.1 2.7-5.2-.4-2.6-3-3.8-5.1-4.9zm-74.6 8.4h-6.7c-.5 0-.6-.1-.6-.6v-5.6c0-.5.1-.6.6-.6h5.8c.4 0 .5-.1.5-.5V420c0-.4-.1-.5-.5-.5h-5.8c-.5 0-.6-.1-.6-.6v-5.2c0-.5.1-.6.6-.6h6.4c.4 0 .5-.1.5-.5v-.9c0-.7 0-.7-.7-.7h-8.5c-.4 0-.5.1-.5.5V430c0 .4.1.5.5.5h9.3c.2 0 .4 0 .4-.4V429c-.1-.5-.4-.6-.7-.6z"/></svg>