<svg viewBox="-234 412.8 125.9 16" width="156" height="20" xmlns="http://www.w3.org/2000/svg"><style>.st0{fill:#57c49f}.st1{fill:none}.st2{fill:#242424}</style><path class="st0" d="M-210.3 417.7c-.8-2.8-3.2-4.7-5.9-4.9h-1.6c-2.9.1-5.2 1.9-6.3 4.5-.6 1.8-.7 3.5-.4 5.3.5 2.4 1.7 4.3 3.9 5.4 1.5.7 3 .8 4.6.6 2.4-.4 4.2-1.6 5.2-3.8 1.1-2.3 1.2-4.7.5-7.1zm-1.6 5.1c-.1.4-.2.8-.4 1.1v.1c-.2.6-.4 1.1-.8 1.5-.1.1-.1.2-.2.2l-.1.1c-.3.3-.6.5-.9.6-.5.2-1.1.5-1.7.6h-1.2c-.3 0-.6 0-.8-.1h-.1c-.6 0-1.3-.3-1.8-.6s-1.1-.7-1.4-1.3c-.4-.5-.6-1.1-.9-1.7-.2-.6-.3-1.2-.3-1.8-.1-.8-.1-1.5.1-2.3.2-.9.6-1.6.9-2.4 0-.1.1-.2.2-.2.5-1.2 2.2-2.1 3.5-2.3s2.9.2 3.9 1c.1 0 .1.1.2.1.1.1.1.1.1.2l.1.1c.1 0 .1.1.2.1l.3.3.1.1c.2.2.2.4.3.6l.2.2c.3.9.6 1.8.8 2.7v.3c-.3 1.1-.1 1.9-.3 2.8zm53.5-2.1v-7.3c0-.3.1-.5.4-.4h.9c.6 0 .6 0 .6.6v5.7c0 .6-.1.5.5.5h7.1c.3 0 .4-.1.4-.4v-5.9c0-.4.1-.5.5-.5h1c.2 0 .3.1.3.3V428c0 .4-.1.5-.5.5h-1c-.3 0-.4-.1-.4-.4v-6.2c0-.4-.1-.4-.4-.4h-7.1c-.4 0-.5.1-.5.5v6.2c0 .3-.1.4-.4.4h-1c-.4 0-.5-.1-.5-.5.1-2.6.1-5 .1-7.4zm-21.8 0v-7.3c0-.3.1-.4.4-.4h6.9c.5 0 .5 0 .5.5 0 .4.2.8-.1 1.1-.2.2-.7.1-1.1.1h-4.5c-.3 0-.4.1-.4.4v4.3c0 .3.1.4.4.4h4.7c.3 0 .5.1.4.4 0 .4.2.9-.1 1.1-.2.3-.8.1-1.2.1h-3.9c-.3 0-.4.1-.4.4v4.7c0 .3.1.4.4.4h5.5c.3 0 .5.1.4.4v.9c0 .2 0 .3-.3.3h-7.7c-.3 0-.3-.2-.3-.4.4-2.5.4-5 .4-7.4zm52.9 0v-7.3c0-.3.1-.4.4-.4h6.9c.6 0 .6 0 .6.6v.7c0 .3-.1.4-.4.4h-5.2c-.4 0-.5.1-.5.5v4.2c0 .4.1.5.5.5h4.7c.3 0 .4.1.4.4v.9c0 .3-.1.4-.4.4h-4.7c-.4 0-.5.1-.5.5v4.5c0 .4.1.5.5.5h5.4c.3 0 .5.1.5.4v.9c0 .3-.1.3-.3.3h-7.5c-.3 0-.4-.1-.4-.4v-7.6zm-60.1-7.9h1.8c.7 0 1.4.1 2 .4.2.1.3.2.3.4v1.8c-.7-.4-1.3-.7-2-.8-1-.2-2-.2-3 .1-1.6.4-2.3 1.9-1.5 3.2.2.4.6.7 1 1 .9.6 1.9 1 2.8 1.5 1 .5 1.9 1.1 2.7 2 1.3 1.6 1 4.7-1.5 5.8-1.4.6-2.8.7-4.2.5-.9-.1-1.7-.3-2.5-.6-.3-.1-.4-.3-.4-.6v-1.8c.8.6 1.6.9 2.6 1.2 1.1.3 2.2.3 3.3 0 1.7-.5 2.1-2.5.9-3.7-.5-.5-1.2-.9-1.8-1.2-.9-.5-1.8-.9-2.6-1.4-.9-.6-1.7-1.2-2.1-2.2-.8-2.1.2-4.1 2.4-5 .5-.4 1.1-.6 1.8-.6zm21.7 0h1.8c.7 0 1.4.1 2 .4.2.1.3.2.3.4v1.8c-.7-.4-1.3-.7-2-.8-1-.2-2-.2-3 .1-1.6.4-2.3 1.9-1.5 3.2.2.4.6.7 1 1 .9.6 1.9 1 2.8 1.5 1 .5 1.9 1.1 2.7 2 1.3 1.6 1 4.7-1.5 5.8-1.4.6-2.8.7-4.2.5-.9-.1-1.7-.3-2.5-.6-.3-.1-.4-.3-.4-.6v-1.8c.8.6 1.6.9 2.6 1.2 1.1.3 2.2.3 3.3 0 1.7-.5 2.1-2.5.9-3.7-.5-.5-1.2-.9-1.8-1.2-.9-.5-1.8-.9-2.6-1.4-.9-.6-1.7-1.2-2.1-2.2-.8-2.1.2-4.1 2.4-5 .5-.4 1.1-.6 1.8-.6zm57.6 12.4c-.2 1.6-1.2 2.5-2.6 3.1-1.6.6-3.2.5-4.8.2-.5-.1-1.1-.3-1.6-.5-.2-.1-.3-.2-.3-.5v-1.8c.9.7 1.9 1.1 3 1.3 1 .2 1.9.2 2.9-.1 1.7-.5 2.1-2.5.9-3.7-.5-.5-1.2-.9-1.8-1.2-.9-.5-1.8-.9-2.7-1.4-.9-.6-1.7-1.2-2.1-2.2-.8-2.1.2-4.1 2.4-5 .6-.2 1.3-.4 1.9-.4h1.8c.7 0 1.4.1 2 .4.2.1.3.2.3.4v1.8c-.7-.4-1.3-.7-2-.8-1-.2-2-.2-3 .1-1.6.4-2.3 1.9-1.5 3.2.2.4.6.7 1 1 .9.6 1.9 1 2.8 1.5 1 .6 2.1 1.2 2.8 2.2.3.1.6.6.6 1.2m-125.6-3.3v-7.3c0-.3.1-.4.4-.4h6.9c.6 0 .6 0 .6.5 0 .4.2.8-.1 1.1-.2.2-.7.1-1 .1h-4.5c-.3 0-.4.1-.4.4v4.5c0 .3.1.4.4.4h4.8c.3 0 .4.1.4.4v.9c0 .3-.1.4-.4.4h-4.7c-.5 0-.5 0-.5.5v5.9c0 .4-.1.5-.5.4h-1.1c-.3 0-.4-.1-.4-.4.1-2.5.1-5 .1-7.4z"/><path class="st1" d="M-195.8 420.7c0 1.2-.1 2.2-.5 3.2-1 2.4-3.2 3.4-5.5 3.1-2.4-.3-3.8-1.7-4.4-3.9-.6-2.1-.5-4.1.5-6 1.9-3.5 6.3-3.2 8.1-1.4 1 1 1.5 2.3 1.7 3.7.1.4.2.9.1 1.3z"/><path class="st0" d="M-194.2 417.7c-.8-2.8-3.2-4.7-5.9-4.9h-1.6c-2.9.1-5.2 1.9-6.3 4.5-.6 1.8-.7 3.5-.4 5.3.5 2.4 1.7 4.3 3.9 5.4 1.5.7 3 .8 4.6.6 2.4-.4 4.2-1.6 5.2-3.8 1.1-2.3 1.2-4.7.5-7.1zm-1.6 5.2c-.1.4-.2.8-.4 1.1v.1c-.2.6-.4 1.1-.8 1.5-.1.1-.1.2-.2.2l-.1.1c-.3.3-.6.5-.9.6-.5.2-1.1.5-1.7.6h-1.2c-.3 0-.6 0-.8-.1h-.1c-.6 0-1.3-.3-1.8-.6s-1.1-.7-1.4-1.3c-.4-.5-.6-1.1-.9-1.7-.2-.6-.3-1.2-.3-1.8-.1-.8-.1-1.5.1-2.3.2-.9.6-1.6.9-2.4 0-.1.1-.2.2-.2.5-1.2 2.2-2.1 3.5-2.3s2.9.2 3.9 1c.1 0 .1.1.2.1.1.1.1.1.1.2l.1.1c.1 0 .1.1.2.1l.3.3.1.1c.2.2.2.4.3.6l.2.2c.3.9.6 1.8.8 2.7v.3c-.3 1.1-.1 1.9-.3 2.8zm65.6-5.1c-.8-2.8-3.2-4.7-5.9-4.9h-1.6c-2.9.1-5.2 1.9-6.3 4.5-.6 1.8-.7 3.5-.4 5.3.5 2.4 1.7 4.3 3.9 5.4 1.5.7 3 .8 4.6.6 2.4-.4 4.2-1.6 5.2-3.8 1.1-2.3 1.2-4.7.5-7.1zm-1.6 5.1c-.1.4-.2.8-.4 1.1v.1c-.2.6-.4 1.1-.8 1.5-.1.1-.1.2-.2.2l-.1.1c-.3.3-.6.5-.9.6-.5.2-1.1.5-1.7.6h-1.2c-.3 0-.6 0-.8-.1h-.1c-.6 0-1.3-.3-1.8-.6s-1.1-.7-1.4-1.3c-.4-.5-.6-1.1-.9-1.7-.2-.6-.3-1.2-.3-1.8-.1-.8-.1-1.5.1-2.3.2-.9.6-1.6.9-2.4 0-.1.1-.2.2-.2.5-1.2 2.2-2.1 3.5-2.3s2.9.2 3.9 1c.1 0 .1.1.2.1.1.1.1.1.1.2l.1.1c.1 0 .1.1.2.1l.3.3.1.1c.2.2.2.4.3.6l.2.2c.3.9.6 1.8.8 2.7v.3c-.3 1.2-.1 2-.3 2.8z"/></svg>
