<svg xmlns="http://www.w3.org/2000/svg"><symbol id="icon-arrow" viewBox="0 0 7.282 11.88"><path data-name="Arrow Icon" class="cls-1" d="M4.163 5.93L.278 2.04a.994.994 0 0 1 0-1.41L.631.28a1 1 0 0 1 1.414 0l4.573 4.57c.008.01.016.01.023.02l.354.35a1.009 1.009 0 0 1 0 1.42l-.354.35c-.007.01-.017.01-.023.02l-4.573 4.57a1 1 0 0 1-1.414 0l-.353-.35a1.006 1.006 0 0 1 0-1.42z"/></symbol><symbol id="icon-buy" viewBox="0 0 16 15.03"><path class="cls-1" d="M7.5 12.19a1.4 1.4 0 1 1-1.391 1.4 1.4 1.4 0 0 1 1.391-1.4zm5-.03a1.43 1.43 0 1 1-1.422 1.43 1.426 1.426 0 0 1 1.422-1.43zm2.8-9.07a1 1 0 0 0-1.252.66s-1 2.5-1.5 4.29a1.312 1.312 0 0 1-1.477 1.03H8.946a1.468 1.468 0 0 1-1.477-1.03c-.916-1.8-2.44-5.05-2.44-5.05a1.631 1.631 0 0 0-1.363-.95H1a1.005 1.005 0 0 0 0 2.01h2.248l2.8 5.54a2.341 2.341 0 0 0 2.081 1.49h3.843a1.953 1.953 0 0 0 2.175-1.49l1.808-5.24a1.008 1.008 0 0 0-.657-1.26zM9 3.05V1.02a1 1 0 1 1 2 0v2.03h2.536L10 6.6 6.465 3.05H9z"/></symbol><symbol id="icon-cart" viewBox="0 0 16 13.031"><path data-name="Cart Icon" class="cls-1" d="M7.5 10.183a1.4 1.4 0 1 1-1.39 1.4 1.394 1.394 0 0 1 1.39-1.4zm5-.031a1.432 1.432 0 1 1-1.42 1.432 1.422 1.422 0 0 1 1.42-1.432zm2.8-9.1a1.007 1.007 0 0 0-1.26.66s-.99 2.513-1.5 4.31a1.315 1.315 0 0 1-1.48 1.029H8.94a1.472 1.472 0 0 1-1.48-1.038C6.55 4.213 5.02.957 5.02.957A1.632 1.632 0 0 0 3.66.001H1a1.007 1.007 0 0 0 0 2.014h2.25l2.8 5.56a2.328 2.328 0 0 0 2.08 1.491h3.84a1.962 1.962 0 0 0 2.18-1.491l1.8-5.26a1.007 1.007 0 0 0-.65-1.262c-.53-.166.52.166 0 0s.52.166 0 0 .52.167 0 .001z"/></symbol><symbol id="icon-eye" viewBox="0 0 16 10"><path data-name="Eye Icon" class="cls-1" d="M15.983 4.89c-.006-.021 0-.043-.011-.064a.239.239 0 0 0-.013-.021c0-.012 0-.025-.01-.037a9.008 9.008 0 0 0-15.9 0 .259.259 0 0 0-.011.037c0 .008-.01.013-.013.022a.449.449 0 0 0-.01.064A.476.476 0 0 0 0 5a.484.484 0 0 0 .018.112.472.472 0 0 0 .01.064c0 .008.01.013.013.021a.259.259 0 0 0 .011.037 9.008 9.008 0 0 0 15.9 0 .329.329 0 0 0 .01-.037.148.148 0 0 0 .013-.021c.008-.021 0-.043.011-.064a.377.377 0 0 0-.003-.222zM8 9a8.258 8.258 0 0 1-7-4 8.124 8.124 0 0 1 14 0 8.261 8.261 0 0 1-7 4zm0-6a2 2 0 0 0-2 2 .25.25 0 1 0 .5 0A1.5 1.5 0 0 1 8 3.5.25.25 0 0 0 8 3zm-.012-1.5a3.5 3.5 0 1 0 3.5 3.5 3.5 3.5 0 0 0-3.5-3.5zm0 6.51a3 3 0 1 1 3-3 3.008 3.008 0 0 1-3 2.997z"/></symbol><symbol id="icon-facebook" viewBox="0 0 9 19.19"><path data-name="Facebook copy" class="cls-1" d="M8.97 0v3.09s-2.271-.23-2.84.65c-.31.47-.126 1.87-.154 2.87h3.013c-.255 1.17-.437 1.97-.624 2.98h-2.4v9.59H1.792V9.63H.012V6.61h1.756c.09-2.21.124-4.39 1.218-5.5C4.212-.15 5.387 0 8.97 0z"/></symbol><symbol id="icon-fl" viewBox="0 0 19.21 7.82"><path data-name="Flickr copy" class="cls-1" d="M7.98 3.91A4 4 0 1 1 3.99.01a3.953 3.953 0 0 1 3.99 3.9zm11.22 0a4 4 0 1 1-4-3.9 3.955 3.955 0 0 1 4 3.9z"/></symbol><symbol id="icon-google-plus" viewBox="0 0 19.18 16.28"><path data-name="G+ copy" class="cls-1" d="M9.78.77H8.43a3.646 3.646 0 0 1 1.56 3.1c-.07 1.49-1.01 2.09-1.88 2.79a2.355 2.355 0 0 0-.58.7c-.31.82.53 1.29.96 1.61.39.29.73.55 1.03.81a3.023 3.023 0 0 1 1.24 2.45 3.51 3.51 0 0 1-1.62 2.85 7.025 7.025 0 0 1-3.32 1.15 8 8 0 0 1-3.88-.51 2.832 2.832 0 0 1-1.93-2.51 2.74 2.74 0 0 1 .66-1.75C2.44 9.49 3.7 9.8 6.01 9.63a6 6 0 0 1-.58-.91 1.765 1.765 0 0 1 .15-1.36 4.066 4.066 0 0 1-3.45-1 3.225 3.225 0 0 1-.92-3A3.813 3.813 0 0 1 2.88.96 5.563 5.563 0 0 1 6.07 0h5.14M3.25 2.01a4.45 4.45 0 0 0 .25 2.8A3.378 3.378 0 0 0 5 6.61a2.22 2.22 0 0 0 2.81-.89A2.555 2.555 0 0 0 8 4.86 4.4 4.4 0 0 0 6.2.96 2.2 2.2 0 0 0 4.94.74a1.952 1.952 0 0 0-1.69 1.27zm-.16 8.93a2.169 2.169 0 0 0-.98 1.12 2.32 2.32 0 0 0-.04 1.33c.33 1.15 1.69 1.81 3.12 1.94 1.54.13 3.1-.11 3.77-1.2a2.081 2.081 0 0 0 .01-2.05 4.755 4.755 0 0 0-1.61-1.42 2.117 2.117 0 0 0-.62-.42 3.369 3.369 0 0 0-.71 0 6.128 6.128 0 0 0-2.94.7zM15.02.02h1.16c0 1-.02 1.98-.02 2.98.98.04 2-.01 3.02 0v1.19H16.2c0 1.03-.02 1.97-.02 3h-1.14c0-1.02-.02-1.98-.02-3-.99-.04-1.99.01-3.01 0V3H15c0-.99.02-1.93.02-2.92 0-.03-.02-.05 0-.06z"/></symbol><symbol id="icon-linkedin" viewBox="0 0 17.97 18.59"><path data-name="Leakedin copy" class="cls-1" d="M.3 5.55h3.46v13.04H.3V5.55zm16.38.75a4.336 4.336 0 0 1 1.28 3.51v8.78h-3.49v-7.93a3.548 3.548 0 0 0-.28-1.58 1.907 1.907 0 0 0-1.9-1 2.36 2.36 0 0 0-2.36 1.47 5.115 5.115 0 0 0-.33 1.98v7.06H6.53V5.39h2.96v2.09a5.941 5.941 0 0 1 1.24-1.45 4.267 4.267 0 0 1 2.66-.79 4.963 4.963 0 0 1 3.29 1.06zM4.21 2.1A2.11 2.11 0 1 1 2.1-.01 2.119 2.119 0 0 1 4.21 2.1z"/></symbol><symbol id="icon-menu-close" viewBox="0 0 20.514 20.512"><path fill="#57c5a0" d="M20.513 1.414L19.099 0l-8.843 8.842L1.414 0 0 1.414l8.842 8.842L0 19.098l1.414 1.414 8.842-8.842 8.843 8.842 1.414-1.414-8.842-8.842z"/></symbol><symbol id="icon-menu-open" viewBox="0 0 19.958 14"><path fill="#57c5a0" d="M0 0h19.958v2H0zm0 6h19.958v2H0zm0 6h19.958v2H0z"/></symbol><symbol id="icon-search" viewBox="0 0 13.938 14"><path data-name="Search Icon" class="cls-1" d="M13.645 12.279l-2.776-2.772a6 6 0 1 0-1.419 1.409l2.778 2.777a1 1 0 1 0 1.417-1.414zM6 10.014a4 4 0 1 1 4-4 4 4 0 0 1-4 4z"/></symbol><symbol id="icon-share" viewBox="0 0 16 13"><path data-name="Share Icon" class="cls-1" d="M3.973 8s1.539-2.436 6.987-2.436V8L16 4.02 10.96 0v2.344c-.129-.001-6.987.289-6.987 5.656zM13 9c-.021 0 0 .447 0 1h-.01v2h-12V2H5c.553 0 1 .021 1 0a1 1 0 0 0-1-1H1.99a2 2 0 0 0-2 2v8a2 2 0 0 0 2 2h10a2 2 0 0 0 1.991-1.9c0-.033.019-.062.019-.1v-1a1 1 0 0 0-1-1z"/></symbol><symbol id="icon-star" viewBox="0 0 16 16"><path data-name="Star Icon" class="cls-1" d="M15.93 5.969a1.172 1.172 0 0 0-.92-.779l-4.16-.638L9.04.681a1.144 1.144 0 0 0-2.08 0L5.15 4.552.99 5.19a1.172 1.172 0 0 0-.92.779 1.184 1.184 0 0 0 .27 1.178l3.05 3.139-.71 4.355a1.166 1.166 0 0 0 .47 1.135 1.162 1.162 0 0 0 1.23.067L8 13.829l3.62 2.014a1.162 1.162 0 0 0 1.23-.067 1.166 1.166 0 0 0 .47-1.135l-.71-4.355 3.05-3.139a1.184 1.184 0 0 0 .27-1.178zm-4.14 3.507a1.145 1.145 0 0 0-.31 1l.7 4.355-3.62-2.014a1.157 1.157 0 0 0-1.12 0l-3.62 2.014.71-4.355a1.181 1.181 0 0 0-.32-1L1.17 6.337l4.15-.639a1.149 1.149 0 0 0 .87-.653L8 1.174l1.81 3.871a1.149 1.149 0 0 0 .87.653l4.15.639z"/></symbol><symbol id="icon-twitter" viewBox="0 0 19.188 15.9"><path data-name="Twitter copy" class="cls-1" d="M19.202 1.93c-.092.72-1.138 1.45-1.772 2 .626 9.21-9.824 14.96-17.417 10.29 2.129.02 4.527-.57 5.794-1.77-1.842-.3-3.147-1.13-3.653-2.77a4.842 4.842 0 0 0 1.661-.11C2.13 8.93.797 7.94.715 5.7a5.762 5.762 0 0 0 1.66.33A4.492 4.492 0 0 1 1.158.72a11.849 11.849 0 0 0 8.3 4.2c-.957-4.07 4.437-6.59 6.864-3.65a13.712 13.712 0 0 0 2.545-.89 5.288 5.288 0 0 1-1.66 2.11 6.106 6.106 0 0 0 1.995-.56z"/></symbol></svg>