<svg xmlns="http://www.w3.org/2000/svg" width="30.02227mm" height="10.23673mm" viewBox="0 0 30.02227 10.236729">
  <path d="M12.39308 7.46125a.5477.5477 0 0 0 .15346-.0291v.3704a.90223.90223 0 0 1-.32808.05822.46302.46302 0 0 1-.46302-.26458 1.34408 1.34408 0 0 1-.87313.29897c-.42068 0-.8096-.2302-.8096-.7091 0-.59265.55032-.7752 1.03186-.7752a3.0771 3.0771 0 0 1 .60325.06878v-.08202c0-.2884-.21165-.49213-.60853-.49213a2.0611 2.0611 0 0 0-.83344.17727v-.4736a2.83633 2.83633 0 0 1 .88636-.15346c.65615 0 1.05832.31222 1.05832 1.01336v.8308a.1508.1508 0 0 0 .18256.1614zM10.6045 7.1464a.3757.3757 0 0 0 .43392.3413.94192.94192 0 0 0 .6694-.26457V6.8236a2.7014 2.7014 0 0 0-.50272-.0582c-.29104.00264-.6006.0926-.6006.38364zM14.0388 5.45042a1.39965 1.39965 0 0 1 .71437.17727v.4736a1.13242 1.13242 0 0 0-.6403-.19315.76465.76465 0 1 0 0 1.524 1.3917 1.3917 0 0 0 .6747-.17727v.47625a1.74096 1.74096 0 0 1-.7673.15875 1.16946 1.16946 0 0 1-1.24883-1.2012A1.2012 1.2012 0 0 1 14.0388 5.4504zM17.42017 7.46125a.5477.5477 0 0 0 .15345-.0291v.3704a.90223.90223 0 0 1-.32808.05822.46302.46302 0 0 1-.46302-.26458 1.34408 1.34408 0 0 1-.87312.29897c-.4207 0-.80963-.2302-.80963-.7091 0-.59265.55033-.7752 1.03188-.7752a3.0771 3.0771 0 0 1 .60325.06878v-.08202c0-.2884-.21167-.49213-.60855-.49213a2.0611 2.0611 0 0 0-.83343.17727v-.4736a2.83633 2.83633 0 0 1 .88635-.15346c.65617 0 1.05833.31222 1.05833 1.01336v.8308a.1508.1508 0 0 0 .18257.1614zm-1.7886-.31485a.3757.3757 0 0 0 .43393.3413.94192.94192 0 0 0 .6694-.26457V6.8236a2.7014 2.7014 0 0 0-.5027-.0582c-.2937.00264-.60062.0926-.60062.38364zM20.2856 4.45294v3.37608h-.46566v-.36777a1.07685 1.07685 0 0 1-.88636.42863 1.22237 1.22237 0 0 1 0-2.43946 1.05833 1.05833 0 0 1 .83344.36248V4.45294h.52917zm-1.2594 1.44992a.7673.7673 0 0 0 0 1.53458.79375.79375 0 0 0 .73817-.48683v-.56356a.80962.80962 0 0 0-.73818-.48418zM21.95777 5.45042c.92075 0 1.23825.74348 1.09008 1.41287H21.3069c.0582.4154.46302.58737.88635.58737a1.69598 1.69598 0 0 0 .7329-.16404v.4445a1.98437 1.98437 0 0 1-.8308.15875c-.70908 0-1.3229-.40482-1.3229-1.21973a1.16152 1.16152 0 0 1 1.18532-1.21973zm.0238.42862a.63235.63235 0 0 0-.67997.59796h1.28323a.54504.54504 0 0 0-.60325-.59796zM23.57437 7.82902v-2.3151h.45773v.2884a1.05833 1.05833 0 0 1 .7726-.3519.79375.79375 0 0 1 .7223.3704 1.14565 1.14565 0 0 1 .80962-.3704.8493.8493 0 0 1 .87842.93133v1.44727h-.52917v-1.4314a.44185.44185 0 0 0-.45772-.48683.77787.77787 0 0 0-.57415.3122v1.60602h-.52917v-1.4314a.44185.44185 0 0 0-.45773-.48683.82285.82285 0 0 0-.61383.35718v1.5637h-.52917zM29.4931 5.51392h.52917l-1.0848 2.6273c-.25135.60326-.57943.79376-.93132.79376a1.32292 1.32292 0 0 1-.30428-.0397v-.4392a.79375.79375 0 0 0 .23548.0344c.25136 0 .4392-.17727.57415-.52917l.04762-.1164-1.10066-2.33363h.56356l.79375 1.74625zM10.75796.39952v1.32292a1.05833 1.05833 0 0 1 .74877-.3175.90223.90223 0 0 1 .95514.94456v1.4314h-.52916V2.41565a.5027.5027 0 0 0-.52916-.55563.81492.81492 0 0 0-.64558.3863V3.7809h-.52917V.39952zM13.8721.635v.8255h.83873v.45244h-.83873v1.05833c0 .30427.14023.4048.4392.4048a1.2462 1.2462 0 0 0 .46832-.0926v.4445a1.88912 1.88912 0 0 1-.62177.10055.70908.70908 0 0 1-.79375-.762V1.90765h-.42333V1.4552h.4154V.7567zM15.3723 3.7756V1.4605H15.83v.2884a1.05833 1.05833 0 0 1 .77258-.3519.79375.79375 0 0 1 .72232.37042 1.14565 1.14565 0 0 1 .80962-.37042.8493.8493 0 0 1 .87842.93133V3.7756h-.52917V2.3442a.44185.44185 0 0 0-.45774-.48682.77787.77787 0 0 0-.57414.3122V3.7756h-.52917V2.3442a.44185.44185 0 0 0-.45773-.48682.82285.82285 0 0 0-.61383.35718v1.5637H15.322zM19.76967.39688h.51593v3.37608h-.51593zM4.08517 0h-.04234L0 .42333v7.40834l4.04283 2.40506 4.04284-2.40506V.42333zM7.5565 7.5274L4.04283 9.6176.52917 7.5274V4.48998l3.4978 2.08227v.37836L1.62718 5.52187v.36512l2.41034 1.44727v.3863L1.62984 6.2865v.36513L4.04018 8.0989l2.4315-1.4552V5.08l1.0848-.64823v3.0877zm0-3.48192l-.96573.5662-.4445.2646L4.0296 3.61685v.36512l1.80975 1.07685h-.01587l-.0397.02382-.26457.1508-1.49224-.889v.36513l1.1774.70115-.27782.1852-.889-.52916v.36513l.58473.34396-.5953.35718L.54503 4.064 4.0296 1.9685zm0-.36777L4.0243 1.59545.5318 3.67506V.89694L4.0455.52917l3.51367.36777V3.6777z"/>
</svg>
