<svg height="140" width="140" xmlns="http://www.w3.org/2000/svg" viewBox="-191 311.7 219.7 218.7"><linearGradient id="a" gradientUnits="userSpaceOnUse" x1="-188.734" y1="473.751" x2="26.163" y2="364.255" gradientTransform="translate(0 2.18)"><stop offset="0" stop-color="#e8715c"/><stop offset="1" stop-color="#755671"/></linearGradient><circle cx="-81.3" cy="421.2" r="107.7" opacity=".75" fill="#fff" stroke="url(#a)"/><path d="M-79.7 452.8c.6-2.5 24.3-16 24.3-25.8-.2-17.1-20.2-17.5-24.3-5.6-5-11.7-24.1-11.3-24.3 5.8 0 9.8 23.7 23.2 24.3 25.6zm35.2-76.8h-3.1v-5.5c0-4.7-3.9-8.6-8.6-8.6s-8.6 3.9-8.6 8.6v5.5h-31.3v-5.5c0-4.7-3.9-8.6-8.6-8.6-4.7 0-8.6 3.9-8.6 8.6v5.5h-3.1c-10.3 0-18.8 8.5-18.8 18.8v61.1c0 10.3 8.5 18.8 18.8 18.8h72c10.3 0 18.8-8.5 18.8-18.8v-61.1c-.1-10.3-8.5-18.8-18.9-18.8zm-20.3 7.1c0 4.7 3.9 8.6 8.6 8.6s8.6-3.9 8.6-8.6v4.7c0 4.7-3.9 8.6-8.6 8.6s-8.6-3.9-8.6-8.6v-4.7zm-48.6 0c0 4.7 3.9 8.6 8.6 8.6s8.6-3.9 8.6-8.6v4.7c0 4.7-3.9 8.6-8.6 8.6s-8.6-3.9-8.6-8.6v-4.7zm78.3 64.5c0 8.1-6.6 14.6-14.7 14.6h-2.3c6.3-4.7 11.9-9.9 17.1-15.5v.9h-.1zm0-10.5c-7.5 9.7-17.1 18.2-27.9 25.1h-48.2c-8.1 0-14.7-6.6-14.7-14.6v-40.2h90.8v29.7z" fill="#775873"/></svg>