<svg height="140" width="140" xmlns="http://www.w3.org/2000/svg" viewBox="-191.3 312 219.7 219"><linearGradient id="a" gradientUnits="userSpaceOnUse" x1="-188.734" y1="473.751" x2="26.163" y2="364.255" gradientTransform="translate(0 2.18)"><stop offset="0" stop-color="#e8715c"/><stop offset="1" stop-color="#755671"/></linearGradient><circle cx="-81.3" cy="421.2" r="107.7" opacity=".75" fill="#fff" stroke="url(#a)"/><path d="M-98.2 401.2c.8.8 2 1.2 3 1 1 .2 2.2-.2 3-1 .7-.7 1-1.5 1-2.2l6-6c1.2-1.2 1.2-3.3-.2-4.7-1.3-1.3-3.3-1.3-4.7-.2l-5.3 5.3-3.7-3.7c-1.2-1.2-3.3-1.2-4.7.2-1.3 1.3-1.3 3.3-.2 4.7l4.7 4.2c.1.9.5 1.7 1.1 2.4zm-7 35.1l4.3 4.3c0 .8.3 1.7 1 2.3.8.8 2 1.2 3 1 1 .2 2.2-.2 3-1 .7-.7 1-1.5 1-2.2l6-6c1.2-1.2 1.2-3.3-.2-4.7-1.3-1.3-3.3-1.3-4.7-.2l-5.3 5.3-3.7-3.7c-1.2-1.2-3.3-1.2-4.7.2-1 1.3-1 3.3.3 4.7zm9.9 17.7c.7 1.5 1.2 3.2 1.2 5 0 6.5-5.2 10-11.7 10s-10-3.5-10-10c0-2.2.3-4 1.2-5.7 2.2-6.7 6.9-23.1 6.9-38.6-.2-18.4-8-35.9-8-35.9H-50s7.9 17.5 7.9 35.9c0 12-2.8 24.6-5 32.6h8.5l3.2-16.7c1-6 1.7-12.4 1.7-18.7 0-22.1-10-43.1-10-43.1h-83.6s10 21.1 10 43.1c0 18.9-5.9 38.4-8.7 46.5-.8 1.3-1.3 2.7-1.3 4-.3 20.2 17.4 15 41 15 1.3 0 2.8 0 4.2-.2v.2h38.4c1.7 0 3-.8 4-2 8.9-3 15.4-11.4 15.7-21.4h-71.3zm47.9-38.4c0-1.8-1.5-3.3-3.3-3.3h-26.7c-1.8 0-3.3 1.5-3.3 3.3s1.5 3.3 3.3 3.3h26.7c1.8 0 3.3-1.5 3.3-3.3zm-36.1-5.7c-1.3-1.3-3.3-1.3-4.7-.2l-5.3 5.3-3.7-3.7c-1.2-1.2-3.3-1.2-4.7.2-1.3 1.3-1.3 3.3-.2 4.7l4.5 4.3c0 .8.3 1.7 1 2.3.8.8 2 1.2 3 1 1 .2 2.2-.2 3-1 .7-.7 1-1.5 1-2.2l6-6c1.5-1.4 1.5-3.4.1-4.7zm1 30.7h28.4c1.8 0 3.3-1.5 3.3-3.3s-1.5-3.3-3.3-3.3h-28.4c-1.8 0-3.3 1.5-3.3 3.3s1.5 3.3 3.3 3.3zm1.7-41.8h30.1c1.8 0 3.3-1.5 3.3-3.3s-1.5-3.3-3.3-3.3h-30.1c-1.8 0-3.3 1.5-3.3 3.3s1.5 3.3 3.3 3.3z" fill="#775873"/></svg>