<svg height="140" width="140" xmlns="http://www.w3.org/2000/svg" viewBox="-191.3 312 219.3 218.7"><linearGradient id="a" gradientUnits="userSpaceOnUse" x1="-188.734" y1="473.751" x2="26.163" y2="364.255" gradientTransform="translate(0 2.18)"><stop offset="0" stop-color="#e8715c"/><stop offset="1" stop-color="#755671"/></linearGradient><circle cx="-81.3" cy="421.2" r="107.7" opacity=".75" fill="#fff" stroke="url(#a)"/><path d="M-127.2 468.1h-13.4c-2.5 0-4.2-2-3.8-4.4.3-1.8 1.7-3.2 3.5-3.2h32.5c-.3-.2-.3-.3-.4-.3-10.4-7.7-16.6-18-19.1-30.6-.7-3.4-.9-6.8-.9-10.3v-9h89.5c0 .3.1.6.1 1h11.7c7.5 0 13.9 4.6 16.3 11.5 3.4 10.1-3.3 20.9-13.8 22.1-3.8.4-7.6.5-11.3-.3-2.5-.6-4.8-1.6-6.9-3-.2-.1-.3-.3-.6-.4-1.8 3.8-4 7.3-6.7 10.6s-5.7 6.1-9.1 8.6h31.9c2 0 3.4 1 3.9 2.7.8 2.5-1.1 5-3.8 5H-41c-.1.3-.1.4-.2.6-.3 1.2-1.2 2-2.4 2.1h-80.6c-1.3 0-2.3-.4-2.9-1.7.1-.2 0-.6-.1-1zm88-47.9v.3c-.1 3.8-.5 7.6-1.4 11.4-.1.3.1.6.3.8 1.5 1.6 3.4 2.6 5.6 3.3 1.7.5 3.5.4 5.3.4 1.2 0 2.5.1 3.7-.2 3.9-.6 6.8-4.2 6.7-8.1-.2-4.2-3.2-7.6-7.4-7.8-4.2-.2-8.3-.1-12.5-.1h-.3zm-35.2-53.6c.4 3.6-.9 7-2.6 10.2-1 2-2 3.9-3.2 5.8-2.1 3.7-2.2 7.4-1.2 11.4.3.9.7 1.8 1 2.7.2.4.3.9.3 1.4.2 1-.3 1.6-1.2 2-1.4.8-2.7.6-4.1 0-1.5-.7-2.8-1.7-3.7-3.2-1.7-2.9-2.1-6-2-9.3.3-4.2 1.6-8 3.6-11.6l2.7-5.1c1.5-2.8 1.9-5.8.9-8.9-.6-2-1.1-4.1-1.6-6.1-.2-.8 0-1.2.7-1.5 1.6-.6 3.3-.9 5 .2 2.2 1.3 3.7 3.2 4.4 5.6.9 2.2.9 4.1 1 6.4zm-22.5.1c0 4.4-1.5 7.9-3.3 11.4-.4.7-.8 1.5-1.3 2-1.4 2-1.7 4.4-1.2 6.7.3 1.9.9 3.7 1.5 5.6.3 1.2-.3 2.4-1.5 2.4-3.5.1-5.4-1-6.7-3.9-2.1-4.5-1.9-9.1.3-13.5.7-1.5 1.5-2.8 2.3-4.2.4-.8.9-1.6 1.3-2.4 1.2-2.3 1.5-4.8.8-7.3-.3-1.4-.7-2.8-1-4.2-.3-1 0-1.4 1-1.7 2.2-.7 4.7.2 6.2 2.3 1 1.5 1.4 3.1 1.6 4.7-.1.8-.1 1.6 0 2.1zm43.3.4c0 3.7-1.3 7-3 10.2-.5 1-1.1 2-1.7 2.9-1.3 2-1.6 4.2-1.2 6.4.3 2 .9 3.9 1.5 5.8.3 1-.3 2.4-1.6 2.4-3.4 0-5.4-.9-6.8-4.1-2-4.4-1.8-9 .3-13.3.7-1.5 1.5-2.8 2.4-4.3.4-.8.8-1.5 1.2-2.2 1.3-2.4 1.5-5 .8-7.6-.3-1.4-.7-2.8-1-4.3-.2-.8.1-1.2.9-1.5 2.2-.9 4.9.1 6.4 2.2 1 1.4 1.3 3 1.6 4.6 0 1 .1 1.9.2 2.8z" fill="#775873"/></svg>