<svg height="339" width="376" xmlns="http://www.w3.org/2000/svg" viewBox="0 0 375.6 338.8"><path d="M174.6 202.3L161.9 11.4c-3.8 0-7.6.1-11.4.4C79.3 16.5 21.3 64.4.1 128.4l174.5 73.9z" fill="#f04d44"/><path d="M356.2 99.9C322.1 31.9 251.1-5.2 179.9.6v194.1l193.2 16.8c6.2-36.8 1.1-75.8-16.9-111.6z" fill="#f0826f"/><path d="M185.6 203.2l107.2 81.6c16.5-18.5 27.7-42.1 30.6-68.6l-137.8-13z" fill="#fbd1d0"/><path d="M174.6 208.6l50.3 130.3c24.6-7.3 47.2-22.1 64.2-43.9l-114.5-86.4z" fill="#eaa0c6"/><path d="M176.7 234.5l-4.7 88.8c10.5.9 21.3-.1 31.9-3.3l-27.2-85.5z" fill="#e64d97"/><path d="M163.1 242l-39 65.4c7.6 4.9 16.1 8.4 25.5 10.2l13.5-75.6z" fill="#765772"/><path d="M109.4 291.1l51.5-73.3-85.5 29.8c6.8 16.8 18.3 32.1 34 43.5z" fill="#4c344d"/><path d="M163.1 212.5l-91.5-40.1c-7.1 18.7-9.3 39.6-5.1 60.7l96.6-20.6z" fill="#72cac5"/></svg>