<svg width="29" height="28" xmlns="http://www.w3.org/2000/svg" viewBox="0 0 28.375 28.34"><path fill="#937f7a" d="M14.194 0A14.17 14.17 0 1 1 .013 14.17 14.173 14.173 0 0 1 14.194 0zm2.616 13.86v-.06a2.252 2.252 0 0 0 1.372-2.29 2.572 2.572 0 0 0-2.21-2.56c-.284-.04-3.278-.09-4.455-.09a.8.8 0 0 0-.875.92v8.83a.961.961 0 0 0 .875.87h3.124c-.835 0 4.154.25 3.985-3.1a2.617 2.617 0 0 0-1.816-2.52zm-2.486-.65l-1.016.07v-2.65s.265-.02.886 0a1.144 1.144 0 0 1 1.312 1.36 1.167 1.167 0 0 1-1.182 1.22zm.313 4.5h-1.329v-2.65s.807-.02 1.329 0a1.283 1.283 0 0 1 1.33 1.32 1.264 1.264 0 0 1-1.33 1.33z"/></svg>