<svg width="132" height="33" xmlns="http://www.w3.org/2000/svg" viewBox="-178 393 237.6 56.8"><linearGradient id="a" gradientUnits="userSpaceOnUse" x1="-155.95" y1="393.19" x2="-155.95" y2="449.79"><stop offset="0" stop-color="#744a7e"/><stop offset="1" stop-color="#733e8b"/></linearGradient><path d="M-151.4 393.2c5 0 8.9 1.2 11.9 3.5 2.9 2.3 4.3 5.3 4.3 9.1 0 3.2-1 6.1-2.9 8.6s-4.5 4.3-7.6 5.3c2.3 1.8 4.1 3.8 5.3 5.9 1.2 2.2 1.8 4.7 1.8 7.7 0 5.2-1.8 9.2-5.3 12.1s-8.4 4.4-14.5 4.4c-5.6 0-10.1-1.2-13.4-3.7s-4.9-5.7-4.9-9.7c0-7.5 4.2-12.8 12.5-15.7-3.9-3-5.9-6.9-5.9-11.6 0-3 .8-5.7 2.3-8.1 1.5-2.4 3.7-4.3 6.5-5.6 2.8-1.3 6.1-2.2 9.9-2.2zm-5.3 32.9c-4.3 2.3-6.4 5-6.4 8.4 0 1.4.5 2.5 1.4 3.3.9.9 2.1 1.3 3.6 1.3 1.7 0 3.2-.5 4.2-1.6 1.1-1.1 1.6-2.4 1.6-4.1 0-2.9-1.5-5.3-4.4-7.3zm4.6-22.3c-1.2 0-2.2.5-3.1 1.5-.9 1-1.3 2.2-1.3 3.7 0 1 .3 1.9.9 2.9.6 1 1.4 1.7 2.3 2.2 1.5-.5 2.6-1.4 3.5-2.7.9-1.2 1.3-2.5 1.3-3.9 0-1.2-.4-2.1-1.1-2.8-.8-.6-1.6-.9-2.5-.9zm68.2 11c0 7-1.2 13.1-3.7 18.2s-6.1 9.1-10.8 11.8c-4.7 2.7-10.3 4.1-16.7 4.1h-17.7l11.6-54.8h15.6c6.9 0 12.2 1.8 16 5.4 3.8 3.6 5.7 8.7 5.7 15.3zm-29 21.9c2.8 0 5.2-.9 7.4-2.6 2.2-1.8 3.8-4.2 5-7.5 1.2-3.2 1.8-6.9 1.8-11.1 0-3.1-.7-5.5-2-7.1-1.4-1.6-3.3-2.4-5.7-2.4h-2.7l-6.5 30.7h2.7zm63.6 1.9h-16.8l-4.7 10.3h-15.3l27.9-54.8h18.9l4.6 54.8H-49l-.3-10.3zm-11.5-11.7h11l-.6-15.9-.1-3.2c0-1.9 0-3.5.2-4.9-.6 2.2-1.4 4.2-2.3 6.2l-8.2 17.8zM-5 414.4l11.7-20.3h16.4l-23 33.6-4.5 21.3h-14.7l4.5-21.3-8.9-33.6h15.1l3.4 20.3zm58.4 17.7c0 5.6-1.8 9.9-5.5 13-3.7 3.1-8.8 4.6-15.4 4.6-2.8 0-5.4-.3-7.8-.9-2.5-.6-4.6-1.5-6.3-2.7v-13.2c2.1 1.3 4.5 2.4 7.2 3.3s5.2 1.4 7.4 1.4c1.8 0 3.3-.4 4.2-1.2 1-.8 1.4-1.9 1.4-3.3 0-.7-.2-1.3-.5-1.9s-.7-1.2-1.3-1.8c-.5-.6-2-1.9-4.4-3.9-2.9-2.4-5.1-4.8-6.4-7.2-1.3-2.4-2-5.1-2-8.1 0-3.3.8-6.2 2.5-8.8 1.6-2.6 4-4.6 6.9-6.1 3-1.4 6.3-2.2 10-2.2 6 0 11.4 1.3 16.1 4l-5.1 11.1c-4.3-2.2-7.9-3.3-10.9-3.3-1.6 0-2.8.4-3.7 1-.9.7-1.3 1.7-1.3 3.1 0 1.2.4 2.4 1.3 3.4.8 1.1 2.4 2.5 4.8 4.3 3 2.2 5.1 4.5 6.6 6.9 1.5 2.6 2.2 5.4 2.2 8.5z" fill="url(#a)"/></svg>