<svg height="140" width="140" id="Слой_1" xmlns="http://www.w3.org/2000/svg" viewBox="-191 313.5 219 218.6"><style>.st1{fill:#775873}</style><linearGradient id="SVGID_1_" gradientUnits="userSpaceOnUse" x1="-188.734" y1="475.417" x2="26.163" y2="365.921" gradientTransform="translate(0 2.18)"><stop offset="0" stop-color="#e8715c"/><stop offset="1" stop-color="#755671"/></linearGradient><circle cx="-81.3" cy="422.9" r="107.7" opacity=".75" fill="#fff" stroke="url(#SVGID_1_)"/><path class="st1" d="M-930.1 1545.9c-11-4.3-22.6-12.2-33.9-23.6-22.3-22.3-31.2-44.4-31.2-77.4-.3-34.9 10.1-53.8 50.5-93 50.8-49.2 113.8-96.9 148.7-112.6 12.5-5.8 13.2-5.8 25.7 0 34.9 15.6 97.9 63.3 148.7 112.6 40.7 39.8 51.1 58.7 51.1 95.1 0 21.7-1.2 26.9-10.1 45-12.2 24.8-34 45.6-57.5 54.1-20.2 7.6-57.2 8.6-79.5 1.8-30.3-8.9-56.6-33.3-61.5-56.9-2.1-10.7-4.9-8.9-9.8 7-5.2 15.6-25.1 35.2-45.6 44.7-25 11.4-70.8 13-95.6 3.2zm-85.6-327c-234-14.1-422.7-217.8-422.1-455.4.6-236.1 188.1-437.1 422.1-452.1 111.6-7.3 215 22.3 302.2 86.3 32.4 23.9 81.7 74.3 103.4 105.8 107 156 111.3 351.7 11 507.1l-14.4 22-13.8-1.8c-27.8-4-80.1-23.5-96-35.5-5.5-4.3-4.9-5.5 11.6-27.2 49.9-65.1 75.2-155.1 66.4-235.5-8.9-82.6-39.8-146.8-99.4-206.4-32.1-31.8-51.1-45.9-86.6-63.9-187.5-95.1-426.1 12.2-478.4 215-39.5 153.2 29.7 311.7 168.5 386.9 38.5 21.1 103.1 38.8 139.5 38.8 12.8 0 14.4 1.2 37 24.8 24.5 25.7 56.9 53.2 79.8 68.5 16.2 10.7 14.7 11.6-25.4 18-38.5 5.8-65.1 7.1-105.4 4.6z" transform="matrix(.1 0 0 -.1 0 511)"/><path class="st1" d="M-623.3 1219.2c-295.8-25.4-490.6-327.9-390.6-606.2 10.4-28.7 25.4-58.7 45-90.5 17.7-28.4 14.4-27.2 55.7-16.8 18.4 4.9 74.9 29.7 74.9 32.7 0 .9-8.3 13.2-18.7 26.9-99.4 134.3-85 320.5 34.6 439.2 41.6 41.3 80.4 65.5 133.4 83.2 37.6 12.2 70.7 16.5 118.1 14.4 87.2-3.7 164.9-37.6 227.3-98.8 111.9-110.4 130-288.1 42.5-423.3-18.7-28.7-60.9-72.2-89.3-91.8-47.7-33-107.7-55.1-162.7-59.6l-25.4-2.4-32.7-32.4c-18-17.7-44.4-40.7-58.1-50.8-29.4-21.1-30.3-20.2 21.4-27.8 44.7-6.4 119.9-4.3 158.7 4.6 89.6 20.5 160.6 59.6 224.5 123.9 68.8 68.8 107.4 139.8 127.2 234.3 5.5 26 6.7 42.5 7 85.6 0 61.5-4.6 93.3-21.4 143.8-66.8 200.2-262.5 329.9-471.4 311.8z" transform="matrix(.1 0 0 -.1 0 511)"/></svg>