<?xml version="1.0" encoding="utf-8"?>
<!-- Generator: Adobe Illustrator 19.0.0, SVG Export Plug-In . SVG Version: 6.00 Build 0)  -->
<svg version="1.1" id="Слой_1" xmlns="http://www.w3.org/2000/svg" xmlns:xlink="http://www.w3.org/1999/xlink" x="0px" y="0px"
	 viewBox="0 0 375.6 338.8" style="enable-background:new 0 0 375.6 338.8;" xml:space="preserve">
<style type="text/css">
	.st0{fill:#F04D44;}
	.st1{fill:#F0826F;}
	.st2{fill:#FBD1D0;}
	.st3{fill:#EAA0C6;}
	.st4{fill:#E64D97;}
	.st5{fill:#765772;}
	.st6{fill:#4C344D;}
	.st7{fill:#72CAC5;}
</style>
<g id="Rectangle_16">
	<g id="XMLID_214_">
		<path id="XMLID_215_" class="st0" d="M174.6,202.3L161.9,11.4c-3.8,0-7.6,0.1-11.4,0.4C79.3,16.5,21.3,64.4,0.1,128.4L174.6,202.3
			z"/>
	</g>
</g>
<g id="Rectangle_16_1_">
	<g id="XMLID_211_">
		<path id="XMLID_212_" class="st1" d="M356.2,99.9C322.1,31.9,251.1-5.2,179.9,0.6l0,194.1l193.2,16.8
			C379.3,174.7,374.2,135.7,356.2,99.9z"/>
	</g>
</g>
<g id="Rectangle_16_2_">
	<g id="XMLID_208_">
		<path id="XMLID_209_" class="st2" d="M185.6,203.2l107.2,81.6c16.5-18.5,27.7-42.1,30.6-68.6L185.6,203.2z"/>
	</g>
</g>
<g id="Rectangle_16_3_">
	<g id="XMLID_205_">
		<path id="XMLID_206_" class="st3" d="M174.6,208.6l50.3,130.3c24.6-7.3,47.2-22.1,64.2-43.9L174.6,208.6z"/>
	</g>
</g>
<g id="Rectangle_16_4_">
	<g id="XMLID_173_">
		<path id="XMLID_174_" class="st4" d="M176.7,234.5l-4.7,88.8c10.5,0.9,21.3-0.1,31.9-3.3L176.7,234.5z"/>
	</g>
</g>
<g id="Rectangle_16_5_">
	<g id="XMLID_158_">
		<path id="XMLID_165_" class="st5" d="M163.1,242l-39,65.4c7.6,4.9,16.1,8.4,25.5,10.2L163.1,242z"/>
	</g>
</g>
<g id="Rectangle_16_6_">
	<g id="XMLID_46_">
		<path id="XMLID_155_" class="st6" d="M109.4,291.1l51.5-73.3l-85.5,29.8C82.2,264.4,93.7,279.7,109.4,291.1z"/>
	</g>
</g>
<g id="Rectangle_16_7_">
	<g id="XMLID_207_">
		<path id="XMLID_210_" class="st7" d="M163.1,212.5l-91.5-40.1c-7.1,18.7-9.3,39.6-5.1,60.7L163.1,212.5z"/>
	</g>
</g>
</svg>
