<?xml version="1.0" encoding="utf-8"?>
<!-- Generator: Adobe Illustrator 19.0.0, SVG Export Plug-In . SVG Version: 6.00 Build 0)  -->
<svg version="1.1" id="Слой_1" xmlns="http://www.w3.org/2000/svg" xmlns:xlink="http://www.w3.org/1999/xlink" x="0px" y="0px"
	 viewBox="-191 313.5 219 218.6" style="enable-background:new -191 313.5 219 218.6;" xml:space="preserve">
<style type="text/css">
	.st0{opacity:0.75;fill:#FFFFFF;stroke:url(#SVGID_1_);enable-background:new    ;}
	.st1{fill:#775873;}
</style>
<linearGradient id="SVGID_1_" gradientUnits="userSpaceOnUse" x1="-188.7341" y1="475.4174" x2="26.1626" y2="365.9215" gradientTransform="matrix(1 0 0 1 0 2.18)">
	<stop  offset="0" style="stop-color:#E8715C"/>
	<stop  offset="1" style="stop-color:#755671"/>
</linearGradient>
<circle class="st0" cx="-81.3" cy="422.9" r="107.7"/>
<g>
	<g transform="translate(0.000000,511.000000) scale(0.100000,-0.100000)">
		<path class="st1" d="M-930.1,1545.9c-11-4.3-22.6-12.2-33.9-23.6c-22.3-22.3-31.2-44.4-31.2-77.4c-0.3-34.9,10.1-53.8,50.5-93
			c50.8-49.2,113.8-96.9,148.7-112.6c12.5-5.8,13.2-5.8,25.7,0c34.9,15.6,97.9,63.3,148.7,112.6c40.7,39.8,51.1,58.7,51.1,95.1
			c0,21.7-1.2,26.9-10.1,45c-12.2,24.8-34,45.6-57.5,54.1c-20.2,7.6-57.2,8.6-79.5,1.8c-30.3-8.9-56.6-33.3-61.5-56.9
			c-2.1-10.7-4.9-8.9-9.8,7c-5.2,15.6-25.1,35.2-45.6,44.7C-859.5,1554.1-905.3,1555.7-930.1,1545.9z"/>
		<path class="st1" d="M-1015.7,1218.9c-234-14.1-422.7-217.8-422.1-455.4c0.6-236.1,188.1-437.1,422.1-452.1
			c111.6-7.3,215,22.3,302.2,86.3c32.4,23.9,81.7,74.3,103.4,105.8c107,156,111.3,351.7,11,507.1l-14.4,22l-13.8-1.8
			c-27.8-4-80.1-23.5-96-35.5c-5.5-4.3-4.9-5.5,11.6-27.2c49.9-65.1,75.2-155.1,66.4-235.5c-8.9-82.6-39.8-146.8-99.4-206.4
			c-32.1-31.8-51.1-45.9-86.6-63.9c-187.5-95.1-426.1,12.2-478.4,215c-39.5,153.2,29.7,311.7,168.5,386.9
			c38.5,21.1,103.1,38.8,139.5,38.8c12.8,0,14.4,1.2,37,24.8c24.5,25.7,56.9,53.2,79.8,68.5c16.2,10.7,14.7,11.6-25.4,18
			C-948.8,1220.1-975.4,1221.4-1015.7,1218.9z"/>
		<path class="st1" d="M-623.3,1219.2c-295.8-25.4-490.6-327.9-390.6-606.2c10.4-28.7,25.4-58.7,45-90.5
			c17.7-28.4,14.4-27.2,55.7-16.8c18.4,4.9,74.9,29.7,74.9,32.7c0,0.9-8.3,13.2-18.7,26.9c-99.4,134.3-85,320.5,34.6,439.2
			c41.6,41.3,80.4,65.5,133.4,83.2c37.6,12.2,70.7,16.5,118.1,14.4c87.2-3.7,164.9-37.6,227.3-98.8
			c111.9-110.4,130-288.1,42.5-423.3c-18.7-28.7-60.9-72.2-89.3-91.8c-47.7-33-107.7-55.1-162.7-59.6l-25.4-2.4l-32.7-32.4
			c-18-17.7-44.4-40.7-58.1-50.8c-29.4-21.1-30.3-20.2,21.4-27.8c44.7-6.4,119.9-4.3,158.7,4.6c89.6,20.5,160.6,59.6,224.5,123.9
			c68.8,68.8,107.4,139.8,127.2,234.3c5.5,26,6.7,42.5,7,85.6c0,61.5-4.6,93.3-21.4,143.8C-218.7,1107.6-414.4,1237.3-623.3,1219.2z
			"/>
	</g>
</g>
</svg>
