<?xml version="1.0" encoding="utf-8"?>
<!-- Generator: Adobe Illustrator 19.0.0, SVG Export Plug-In . SVG Version: 6.00 Build 0)  -->
<svg version="1.1" id="Слой_1" xmlns="http://www.w3.org/2000/svg" xmlns:xlink="http://www.w3.org/1999/xlink" x="0px" y="0px"
	 viewBox="-191.3 312 219.7 219" style="enable-background:new -191.3 312 219.7 219;" xml:space="preserve">
<style type="text/css">
	.st0{opacity:0.75;fill:#FFFFFF;stroke:url(#SVGID_1_);enable-background:new    ;}
	.st1{fill:#775873;}
</style>
<linearGradient id="SVGID_1_" gradientUnits="userSpaceOnUse" x1="-188.7341" y1="473.7507" x2="26.1626" y2="364.2549" gradientTransform="matrix(1 0 0 1 0 2.18)">
	<stop  offset="0" style="stop-color:#E8715C"/>
	<stop  offset="1" style="stop-color:#755671"/>
</linearGradient>
<circle class="st0" cx="-81.3" cy="421.2" r="107.7"/>
<g id="Прямоугольник_x2C__скругл._углы_3">
	<g id="XMLID_80_">
		<path id="XMLID_81_" class="st1" d="M-98.2,401.2c0.8,0.8,2,1.2,3,1c1,0.2,2.2-0.2,3-1c0.7-0.7,1-1.5,1-2.2l6-6
			c1.2-1.2,1.2-3.3-0.2-4.7c-1.3-1.3-3.3-1.3-4.7-0.2l-5.3,5.3l-3.7-3.7c-1.2-1.2-3.3-1.2-4.7,0.2c-1.3,1.3-1.3,3.3-0.2,4.7l4.7,4.2
			C-99.2,399.7-98.8,400.5-98.2,401.2z M-105.2,436.3l4.3,4.3c0,0.8,0.3,1.7,1,2.3c0.8,0.8,2,1.2,3,1c1,0.2,2.2-0.2,3-1
			c0.7-0.7,1-1.5,1-2.2l6-6c1.2-1.2,1.2-3.3-0.2-4.7c-1.3-1.3-3.3-1.3-4.7-0.2l-5.3,5.3l-3.7-3.7c-1.2-1.2-3.3-1.2-4.7,0.2
			C-106.5,432.9-106.5,434.9-105.2,436.3z M-95.3,454c0.7,1.5,1.2,3.2,1.2,5c0,6.5-5.2,10-11.7,10s-10-3.5-10-10
			c0-2.2,0.3-4,1.2-5.7l0,0c2.2-6.7,6.9-23.1,6.9-38.6c-0.2-18.4-8-35.9-8-35.9H-50c0,0,7.9,17.5,7.9,35.9c0,12-2.8,24.6-5,32.6h8.5
			l3.2-16.7l0,0c1-6,1.7-12.4,1.7-18.7c0-22.1-10-43.1-10-43.1h-83.6c0,0,10,21.1,10,43.1c0,18.9-5.9,38.4-8.7,46.5
			c-0.8,1.3-1.3,2.7-1.3,4c-0.3,20.2,17.4,15,41,15c1.3,0,2.8,0,4.2-0.2v0.2h38.4c1.7,0,3-0.8,4-2c8.9-3,15.4-11.4,15.7-21.4
			L-95.3,454L-95.3,454z M-47.4,415.6c0-1.8-1.5-3.3-3.3-3.3h-26.7c-1.8,0-3.3,1.5-3.3,3.3s1.5,3.3,3.3,3.3h26.7
			C-48.9,418.9-47.4,417.4-47.4,415.6z M-83.5,409.9c-1.3-1.3-3.3-1.3-4.7-0.2l-5.3,5.3l-3.7-3.7c-1.2-1.2-3.3-1.2-4.7,0.2
			c-1.3,1.3-1.3,3.3-0.2,4.7l4.5,4.3c0,0.8,0.3,1.7,1,2.3c0.8,0.8,2,1.2,3,1c1,0.2,2.2-0.2,3-1c0.7-0.7,1-1.5,1-2.2l6-6
			C-82.1,413.2-82.1,411.2-83.5,409.9z M-82.5,440.6h28.4c1.8,0,3.3-1.5,3.3-3.3s-1.5-3.3-3.3-3.3h-28.4c-1.8,0-3.3,1.5-3.3,3.3
			S-84.3,440.6-82.5,440.6z M-80.8,398.8h30.1c1.8,0,3.3-1.5,3.3-3.3s-1.5-3.3-3.3-3.3h-30.1c-1.8,0-3.3,1.5-3.3,3.3
			S-82.6,398.8-80.8,398.8z"/>
	</g>
</g>
</svg>
