<?xml version="1.0" encoding="utf-8"?>
<!-- Generator: Adobe Illustrator 19.0.0, SVG Export Plug-In . SVG Version: 6.00 Build 0)  -->
<svg version="1.1" id="Слой_1" xmlns="http://www.w3.org/2000/svg" xmlns:xlink="http://www.w3.org/1999/xlink" x="0px" y="0px"
	 viewBox="-191 311.7 219.7 218.7" style="enable-background:new -191 311.7 219.7 218.7;" xml:space="preserve">
<style type="text/css">
	.st0{opacity:0.75;fill:#FFFFFF;stroke:url(#SVGID_1_);enable-background:new    ;}
	.st1{fill:#775873;}
</style>
<linearGradient id="SVGID_1_" gradientUnits="userSpaceOnUse" x1="-188.7341" y1="473.7507" x2="26.1626" y2="364.2548" gradientTransform="matrix(1 0 0 1 0 2.18)">
	<stop  offset="0" style="stop-color:#E8715C"/>
	<stop  offset="1" style="stop-color:#755671"/>
</linearGradient>
<circle class="st0" cx="-81.3" cy="421.2" r="107.7"/>
<g id="Прямоугольник_x2C__скругл._углы_4_2_">
	<g id="XMLID_73_">
		<path id="XMLID_74_" class="st1" d="M-79.7,452.8c0.6-2.5,24.3-16,24.3-25.8c-0.2-17.1-20.2-17.5-24.3-5.6
			c-5-11.7-24.1-11.3-24.3,5.8C-104,437-80.3,450.4-79.7,452.8z M-44.5,376h-3.1v-5.5c0-4.7-3.9-8.6-8.6-8.6s-8.6,3.9-8.6,8.6v5.5
			h-31.3v-5.5c0-4.7-3.9-8.6-8.6-8.6c-4.7,0-8.6,3.9-8.6,8.6v5.5h-3.1c-10.3,0-18.8,8.5-18.8,18.8v61.1c0,10.3,8.5,18.8,18.8,18.8
			h72c10.3,0,18.8-8.5,18.8-18.8v-61.1C-25.7,384.5-34.1,376-44.5,376z M-64.8,383.1c0,4.7,3.9,8.6,8.6,8.6s8.6-3.9,8.6-8.6v4.7
			c0,4.7-3.9,8.6-8.6,8.6s-8.6-3.9-8.6-8.6V383.1z M-113.4,383.1c0,4.7,3.9,8.6,8.6,8.6s8.6-3.9,8.6-8.6v4.7c0,4.7-3.9,8.6-8.6,8.6
			s-8.6-3.9-8.6-8.6V383.1z M-35.1,447.6c0,8.1-6.6,14.6-14.7,14.6h-2.3c6.3-4.7,11.9-9.9,17.1-15.5v0.9H-35.1z M-35.1,437.1
			c-7.5,9.7-17.1,18.2-27.9,25.1h-48.2c-8.1,0-14.7-6.6-14.7-14.6v-40.2h90.8L-35.1,437.1L-35.1,437.1z"/>
	</g>
</g>
</svg>
