<?xml version="1.0" encoding="utf-8"?>
<!-- Generator: Adobe Illustrator 19.0.0, SVG Export Plug-In . SVG Version: 6.00 Build 0)  -->
<svg version="1.1" id="Слой_1" xmlns="http://www.w3.org/2000/svg" xmlns:xlink="http://www.w3.org/1999/xlink" x="0px" y="0px" viewBox="-36 356.3 529.1 127.2" style="enable-background:new -36 356.3 529.1 127.2;" xml:space="preserve">
  <defs>
    <linearGradient id="grad" x1="100%" y1="0%" x2="100%" y2="100%">
      <stop offset="0%" style="stop-color:rgb(116,74,126);stop-opacity:1" />
      <stop offset="100%" style="stop-color:rgb(115,62,139);stop-opacity:1" />
    </linearGradient>
  </defs>
  <g>
    <path fill="url(#grad)" d="M392,386.6c6.3-9.1,12.6-18.2,19.4-27.9h-34c-1.6,0-2.8,0.2-3.7,1.8c-4.8,8.7-9.7,17.3-14.6,26
		c-3.1,4.5-5.9,9.3-8.3,14.3c0,0.1-0.1,0.2-0.1,0.2c0,0.1-0.1,0.3-0.1,0.4c0,0,0,0.1,0,0.1c0,0,0,0.1,0,0.1c0,0.1-0.1,0.2-0.2,0.3
		c-0.2,0.3-0.5,0.7-0.8,1c-0.1,0.1-0.3,0.1-0.4,0.1c-0.2,0-0.5-0.1-1-0.5c0,0,0,0,0,0c-0.1-0.4-0.1-0.7-0.2-1.1
		c-0.1-0.3-0.2-0.6-0.2-0.9c-0.9-4.6-1.7-9.3-2.5-13.9c0,0,0.1,0,0.1-0.1c-1.3-8.5-2.7-17-3.9-25.5c-0.3-2.4-1.8-2.4-3.5-2.4
		c-9.2,0.1-18.3,0.1-27.4,0c-3,0-3.3,0.9-2.5,3.5c2.4,8.1,4.4,16.2,6.6,24.4c1.4,5.4,2.4,11,4.5,16.3c0,0,0,0,0,0c0,0,0,0,0,0
		c0.4,4.1,1.5,8,2.9,11.8h0.1c1.7,6.5,3.5,13.1,5.1,19.6c-0.2,0.6-0.3,1.1-0.4,1.6c-1.9,6.5-3,13.1-4.3,19.7
		c-1.6,7.6-3.3,15.2-5,22.8c-0.6,2.3-0.1,3.3,2.5,3.3c8.9-0.1,17.9-0.1,26.9,0c2,0,3-0.6,3.4-2.7c1.6-7.9,3.2-15.8,4.7-23.6
		c0-0.3,0-0.5,0-0.8c0.2-3.2,1-6.3,1.5-9.4c0.2-1.4,0.4-2.9,0.8-4.3c0-0.7,0.2-1.4,0.4-2c0.3-0.9,0.8-1.8,1.5-2.5
		c1-2.9,2.7-5.5,4.5-8c3.1-4.4,6-9,9-13.5l0,0h0l0,0c2.9-4.3,5.9-8.7,8.9-13.1c0,0,0,0,0,0C385.3,396.6,388.7,391.6,392,386.6
		C392.1,386.6,392,386.6,392,386.6z" />
    <path fill="url(#grad)" d="M169.4,386.6h-0.1C169.3,386.6,169.4,386.6,169.4,386.6c-4.5-14.8-15.2-22.7-29.5-26
		c-15.9-3.6-32.2-1.3-48.3-1.9c-1.9-0.1-2.8,0.8-3.1,2.5c-1.6,8.5-3.3,16.9-5,25.4h0c0,0,0.1,0,0.1,0.1c-2,9.3-4,18.7-6,27.9
		c0,0,0.1,0,0.1,0c0,0-0.1,0.1-0.1,0.1c-3.1,13.2-6.1,26.4-8.3,39.8c0,0,0,0,0,0c-1.9,8.2-3.8,16.5-5.7,24.7
		c-0.6,2.4,0.7,2.4,2.4,2.4c16.7-0.4,33.4,1.3,49.9-1.1c17.5-2.4,32.3-9.8,42.5-24.9c3.8-4.7,6.6-10.1,8.3-15.9
		c3.6-8.3,5-17.1,5.5-26.1C172.6,404.5,173.2,395.3,169.4,386.6z M138.1,412.3c-0.1,0.7-0.2,1.4-0.2,2.1c0,0.1,0,0.1-0.1,0.2
		c-0.2,0.7-0.3,1.4-0.4,2.1c-0.1,0.9-0.1,1.7-0.1,2.6c-1.3,5.1-2.6,10.1-4.1,15c-0.1,0.2-0.1,0.4-0.2,0.5c-0.1,0.1-0.2,0.5-0.3,0.6
		c-0.3,0.6-0.6,1.2-0.9,1.7c-0.2,0.3-0.4,0.6-0.5,0.9c0,0.1-0.1,0.2-0.1,0.3c-0.3,0.4-0.6,0.9-1,1.3c-4.6,6.2-9.7,11.6-17.7,13.2
		c-0.2,0-0.4,0.1-0.6,0.2c-2.8,0.1-5.6,0-8.2-0.9c0.1-0.3,0.2-0.6,0.2-0.9c0.1-0.6,0.2-1.3,0.3-2c0.2-0.5,0.3-1.1,0.4-1.7
		c1.9-9.8,4.4-19.5,6.1-29.3c0.1-0.4,0.2-0.8,0.2-1.1c0.2-0.4,0.3-0.9,0.3-1.4c0.2-0.3,0.3-0.7,0.4-1.1c0-0.1,0-0.3,0.1-0.4
		c0-0.1,0.1-0.2,0.1-0.3c0.2-0.6,0.4-1.2,0.5-1.8c0.3-1.7,0.6-3.3,0.8-5c0.1-0.3,0.1-0.6,0.1-0.9c1.2-5.7,2.4-11.3,3.5-16.9
		c0.2-0.7,0.3-1.5,0.2-2.2c4.1-0.4,8.2,0,12.3,0.6c0.1,0.1,0.1,0.2,0.2,0.3c7.4,5.4,8.7,13.2,8.4,21.7
		C138.1,410.6,138,411.5,138.1,412.3z" />
    <g>
      <path fill="url(#grad)" d="M282.1,478.8c-0.8-7.4-1.4-14.9-2.1-22.3h0c0,0,0,0,0,0c0,0,0,0,0,0c-0.5-6.3-1.1-12.6-1.8-18.9
			c0,0-0.1-0.1-0.1-0.1c0.1,0,0.2,0,0.2,0c0-0.9-0.1-1.8-0.1-2.6l-0.3-1.2c-0.3-2.1-0.5-4.2-0.8-6.3v-1.1c-0.3-0.9-0.3-1.8-0.1-2.7
			c-0.2-0.7-0.3-1.4-0.3-2.1c0-0.2,0.1-0.3,0.2-0.4c0,0,0-0.1,0-0.1c-0.2-1-0.4-2-0.5-3c-0.2-1-0.1-1.9,0.1-2.7
			c0-0.2-0.1-0.5-0.1-0.7l0,0c-0.4-10.3-1.1-20.6-2.7-30.7c0-0.5-0.1-1.1-0.1-1.8c0.4-6.8-1.2-13.6-1.2-20.4c0-2.8-1.6-3.1-3.9-3.1
			c-11.8,0.1-23.7,0.1-35.5,0c-2,0-3.4,0.4-4.4,2.4c-4,8.3-8.1,16.4-12.1,24.6h0v0c-5.1,9.1-9.9,18.4-14.2,27.9
			c-2.4,3.7-4.4,7.6-6,11.7c0,0,0.1,0.1,0.1,0.1c-2.6,3.8-4.5,8-6.3,12.1c0,0,0.1,0,0.1,0c-0.1,0-0.1,0.1-0.2,0.1
			c-3.1,5.5-6.1,10.9-8.5,16.8c0,0-0.1,0.1-0.1,0.1c-4.6,8.8-9.3,17.6-14.2,27c11,0,21,0,31,0.1c2.4,0.1,3.6-0.7,4.5-2.9
			c2.5-5.8,5.3-11.5,7.8-17.3c0.9-2,2-2.9,4.4-2.9c10.5,0.1,21,0.1,31.5,0c2.3,0,3.2,0.7,3.2,3.1c0.1,5.7,0.5,11.3,0.7,17
			c0.1,1.9,0.3,3.1,2.7,3.1c9-0.1,18-0.1,27,0C282,481.6,282.3,480.6,282.1,478.8z M243.4,387.4c0.1-0.1,0.1-0.2,0.2-0.3
			c0.1-0.2,0.2-0.4,0.3-0.5c0,0,0,0,0,0c0.5-0.8,0.9-1.6,1.3-2.4c0,0,0-0.1,0.1-0.1c0.2,2.1,0.4,4.3,0.8,6.4c0,0,0,0.1,0,0.1
			c0.2,0.8,0.2,1.5,0.1,2.3c0.1,0.4,0.1,0.8,0.1,1.3c0,1.4,0,2.8,0,4.1c0,0,0,0,0,0c0,0.3,0.1,0.5,0.1,0.8c0,0,0,0,0,0
			c0,0.3,0,0.5,0,0.8c0,1.5,0,3,0.1,4.5c0,0.1,0,0.1,0,0.2c0,0,0,0,0,0c0,0,0,0,0,0c0,0.4,0.1,0.9,0.1,1.3c0,0,0,0,0,0
			c0,0.1,0,0.2,0,0.3c0,1.6,0,3.2,0,4.8c0,0.2,0.1,0.5,0.1,0.7c0,0,0,0,0,0c0,0.2,0,0.5,0.1,0.7c0.1,1.3,0.1,2.6,0.1,3.9
			c0,1.1,0,2.3,0,3.4c0.1,1.1,0.2,2.2,0.2,3.3c0,1.3,0,2.4,0,3.3c0.1,0.2,0.1,0.4,0.1,0.6c0,0.2,0,0.4,0,0.7c0,0,0,0.1,0,0.1
			c0,0,0,0.1,0,0.2c0.1,0.5,0.1,0.9,0.1,1.4c0,0.6-0.4,1.3-1.1,1.4c-0.7,0.1-1.3,0.1-2,0c-1.2,0.2-2.8,0.2-5.2,0.2
			c-1.7,0-3.6-0.2-5.2,0c0,0,0,0-0.1,0c-0.2,0-0.3,0-0.5,0c-0.5,0.1-1.1,0.1-1.6,0.1c-0.3,0-0.5,0-0.8,0c-0.1,0-0.2,0.1-0.3,0.1
			h-1.2c-0.4,0-0.9,0.1-1.3,0.1c-0.2,0-0.4,0-0.7,0.1c-1.1,0.1-2.2,0.2-3.3-0.1c-0.2-0.1-0.4-0.4-0.3-0.6c0.5-1.5,1.2-2.9,1.6-4.4h0
			c0.1-0.2,0.1-0.4,0.2-0.7c0-0.1,0.1-0.2,0.2-0.3c0-0.3,0.1-0.6,0.2-0.8c1.3-3.4,2.7-6.8,4.2-10.1c0,0,0,0,0,0
			c1.8-4.1,3.7-8.2,5.3-12.3c0-0.2,0.1-0.4,0.1-0.6c0.1-0.3,0.1-0.5,0.2-0.8c0.1-0.2,0.2-0.4,0.3-0.6c0,0,0,0,0-0.1
			c0-0.1,0-0.2,0.1-0.3c0-0.1,0.1-0.2,0.1-0.2c0,0,0,0,0,0c1.5-2.8,3-5.7,4.6-8.5C241.7,390,242.5,388.8,243.4,387.4
			C243.4,387.4,243.4,387.4,243.4,387.4z" />
    </g>
    <path fill="url(#grad)" d="M484,360.2c-3.1-1.4-6.3-2-9.5-2.4c0,0-0.1,0-0.2,0.1c-0.3,0-0.6-0.1-0.9-0.1c0,0,0,0,0,0c0,0-0.1,0-0.1,0
		c-5.6-0.7-11.2-0.7-16.8-0.5c-4,0.2-9.9-0.4-13.7,1.6c-13.6,4.1-24,11.7-27.5,26.5c0,0,0,0.1,0,0.1c0,0,0,0,0,0
		c-2.9,10.3-1.8,20,4,29c0.1,0,0.1,0.1,0.2,0.1c-0.1,0-0.1,0-0.2,0c3,5.9,7.5,10.4,12.9,14.2c0,0,0,0,0,0c0,0.1,0,0.1,0,0.1
		c3.3,3,6.7,5.9,9.8,9c2.5,2.5,3.8,4.7,4.2,7c0.4,1,0.4,2.2,0.3,3.4c-0.2,2.4-1.2,4.2-3.1,5.4c0,0,0,0,0,0.1l0,0h0
		c-4.4,2.7-9.2,3.3-14.3,2.3c-4.2-0.8-8.4-1.7-12.5-2.6c-4.9-2.2-9.9-4.5-15.1-6.9c-0.1,0.5-0.2,0.9-0.3,1.4
		c0.3,1.4,0.3,2.9,0.2,4.3c0.1,0.2,0.2,0.5,0.2,0.8c0,0.5-0.1,1-0.1,1.4c0,0,0,0,0,0c-0.1,1.3-0.1,2.7-0.2,4c0,2.6,0.1,5.3-0.1,7.9
		c0,2.3,0,4.5,0,6.8c0.8,2.6,3,4.2,6.2,5.5c4.3,1.8,8.9,2.1,13.2,3.7c1.3,0.2,2.5,0.4,3.8,0.8c1.4,0.2,2.9,0.2,4.3,0.2
		c1.7,0.4,3.7,0.3,5.4,0c1.8,0.1,3.6,0.1,5.4,0c1.4-0.1,3-0.2,4.4-0.6c0.4,0,0.9,0,1.3-0.1c2.1-0.3,4.3-1.1,6.3-2.1
		c13.1-4,22.8-11.6,26.3-26h0.2c2.1-10.1,2.3-19.9-3.8-28.7c0,0,0,0-0.1,0c0,0,0-0.1,0.1-0.1c-2.7-4.5-5.4-9.1-10-12c0,0,0,0,0,0
		c0,0,0-0.1,0-0.1c-4.5-3.8-9.3-7.5-13.5-11.6c-5.1-4.9-5.6-9.3-2.5-15.6c0,0,0.1,0,0.1-0.1c1.7-2.9,5.5-4.1,8.9-3.3
		c0.6,0.1,1.3,0.2,1.9,0.3c0,0,0.1,0,0.1,0c0.3,0,0.7,0,1,0.1c6.4,0.6,12.4,2.7,18.2,5.6c3.1,1.6,4.1,0.8,5.3-2.1
		c3-7,6.4-13.8,9.6-20.6v-1C490.9,362.7,487.3,361.7,484,360.2z" />
    <path fill="url(#grad)" d="M57.3,386.6h-0.1c0.7-12.8-5.9-22.5-18.7-27c-3.3-1.2-6.7-2-10.1-3h-2.5c-3.4-1.2-7.5-0.4-11.2-0.1
		c-2.6,0.2-5.1,0.4-7.3,1.2c-12.2,2.2-21.1,9.1-26.5,20.9c-0.5,0.9-0.9,1.9-1.2,2.9c0,0.1,0,0.2,0,0.3c-0.1,0.5-0.2,1-0.2,1.6
		c0,0,0,0.1,0,0.1c-0.5,3.7-0.2,7.4,0.2,11.2c0.1,1.2,0.3,2.3,0.3,3.3c0,0,0,0,0,0c0.1,0.3,0.1,0.6,0.1,0.9c0,0.1,0,0.1,0,0.2
		c0,0,0,0.1,0.1,0.1c0.6,2.8,1.6,5.5,3,8c0.9,0.6,1.7,1.3,2.3,2c1,1.1,2.1,2,3,3.1c0.5,0.7,1.1,1.5,1.3,2.4h0c0.1,0.4,0.1,0.9,0,1.4
		c0,0.1,0,0.1-0.1,0.2c-0.4,2.1-2.6,2.6-4.4,3.6c-2.1,1.1-4.2,2-6,3.5c-7.2,5.8-14,11.9-14.2,22c-0.8,3-0.9,6.2-0.8,9.5
		c0.2,4.2,0.5,8.4,2.7,11.8c3.8,7.6,10.6,12.2,19.4,15.1c1,0.3,2,0.5,2.9,0.7c9,2.5,20.3,2.7,29.5-0.4c0.7-0.1,1.3-0.2,1.9-0.3
		c15.8-3.5,26.1-13.8,28.4-28.6c0.1-0.2,0.1-0.4,0.2-0.6c1.9-13.2-1.7-24.6-11.8-33.6c-0.2,0-0.4-0.1-0.6-0.3c0,0-0.1,0-0.1-0.1
		c0,0,0,0,0,0c-0.3-0.1-0.5-0.2-0.7-0.4c-0.2-0.1-0.4-0.3-0.5-0.5c-0.2-0.1-0.3-0.3-0.4-0.5c-0.7-0.8-0.4-2.4,1-2.4
		c0.1,0,0.2-0.1,0.3-0.1c0.1,0,0.2,0,0.4,0c0,0,0.1,0,0.1,0c6.3-2.1,11.1-6,14.5-11.6c0-0.1,0-0.1,0-0.2c0,0.1,0.1,0.1,0.1,0.2
		C55.6,398.2,57.3,392.7,57.3,386.6z M9.1,386.8c0.8-1.7,2.2-3.1,4.3-4.2c3.1-1.6,6.7-1.9,10-0.7c0.4,0.1,0.8,0.3,1.1,0.5
		c0,0,0,0,0,0c1.1,0.6,1.9,1.3,2.6,2c0.1,0.1,0.1,0.2,0.2,0.2c0.1,0.2,0.3,0.4,0.4,0.6c0.1,0.1,0.2,0.3,0.3,0.4
		c0.1,0.1,0.1,0.3,0.2,0.4c0.1,0.2,0.2,0.4,0.2,0.6c0,0,0,0,0,0.1c0.1,0.1,0.1,0.3,0.1,0.4c0,0.1,0.1,0.3,0.1,0.5
		c0.5,1.9,0.2,3.9-0.6,5.8c-0.3,1.2-0.8,2.3-1.6,3.3c-1,1.6-2.4,2.9-4.1,3.7c0,0,0,0,0,0c-0.3,0.2-0.7,0.3-1,0.4
		c-1.1,0.4-2.4,0.4-3.5,0.1c-1,0.1-1.8,0-2.5-0.3c-2.3-0.5-4.2-1.8-5.6-3.9c-0.7-1.1-1.1-2.3-1.2-3.5C8.2,393,8,392.6,8,392.1
		C8,390.1,8.4,388.3,9.1,386.8z M-3.3,449.9c-0.1-6.4,3.1-11,7.7-14.6c3.1-0.3,5.9-0.5,8.8,0.2c4.1,4.2,5.8,9,4.4,15
		c-0.1,0.6-0.3,1.2-0.5,1.8c0,0,0,0-0.1,0.1c-0.2,0.2-0.5,0.5-0.7,0.7c-0.5,0.6-1,1.3-1.4,2c-0.4,0.3-0.7,0.5-1.1,0.8
		c-5.7,3.6-10.4,3.3-15.4-0.8c-0.1-0.1-0.2-0.2-0.4-0.3c-0.3-1.1-0.8-2.1-1.4-3.1C-3.2,451.1-3.3,450.5-3.3,449.9z" />
  </g>
</svg>
