<svg width="29" height="28" xmlns="http://www.w3.org/2000/svg" viewBox="0 0 28.375 28.34">
  <metadata><?xpacket begin="﻿" id="W5M0MpCehiHzreSzNTczkc9d"?>
<x:xmpmeta xmlns:x="adobe:ns:meta/" x:xmptk="Adobe XMP Core 5.6-c138 79.159824, 2016/09/14-01:09:01        ">
   <rdf:RDF xmlns:rdf="http://www.w3.org/1999/02/22-rdf-syntax-ns#">
      <rdf:Description rdf:about=""/>
   </rdf:RDF>
</x:xmpmeta>
                                                                                                    
                                                                                                    
                                                                                                    
                                                                                                    
                                                                                                    
                                                                                                    
                                                                                                    
                                                                                                    
                                                                                                    
                                                                                                    
                                                                                                    
                                                                                                    
                                                                                                    
                                                                                                    
                                                                                                    
                                                                                                    
                                                                                                    
                                                                                                    
                                                                                                    
                                                                                                    
                           
<?xpacket end="w"?></metadata>
  <path id="vk" fill="#937f7a" d="M255.819,1750a14.17,14.17,0,1,1-14.181,14.17A14.173,14.173,0,0,1,255.819,1750Zm2.616,13.86v-0.06a2.252,2.252,0,0,0,1.372-2.29,2.572,2.572,0,0,0-2.21-2.56c-0.284-.04-3.278-0.09-4.455-0.09a0.8,0.8,0,0,0-.875.92v8.83a0.961,0.961,0,0,0,.875.87h3.124c-0.835,0,4.154.25,3.985-3.1A2.617,2.617,0,0,0,258.435,1763.86Zm-2.486-.65-1.016.07v-2.65s0.265-.02.886,0a1.144,1.144,0,0,1,1.312,1.36A1.167,1.167,0,0,1,255.949,1763.21Zm0.313,4.5h-1.329v-2.65s0.807-.02,1.329,0a1.283,1.283,0,0,1,1.33,1.32A1.264,1.264,0,0,1,256.262,1767.71Z" transform="translate(-241.625 -1750)"/>
</svg>
