<svg xmlns="http://www.w3.org/2000/svg" viewBox="0 0 235.4 44.8"><linearGradient id="a" gradientUnits="userSpaceOnUse" x1=".375" y1="22.4502" x2="32.6016" y2="22.4502"><stop offset=".2706" stop-color="#50a8c3" stop-opacity=".7"/><stop offset="1" stop-color="#bee2d1"/></linearGradient><path d="M27.7 30.7c0 4.3-1.4 7.7-4.3 10.1-2.9 2.4-6.9 3.6-12 3.6-2.1 0-4.2-.2-6.1-.7-1.9-.5-3.6-1.2-5-2.1V31.4C2 32.4 3.9 33.3 6 34c2.1.7 4 1.1 5.8 1.1 1.4 0 2.5-.3 3.3-.9.7-.6 1.1-1.5 1.1-2.6 0-.5-.1-1-.4-1.5-.2-.5-.6-.9-1-1.4-.4-.5-1.6-1.5-3.5-3-2.3-1.8-3.9-3.7-5-5.6-1-1.9-1.6-4-1.6-6.3 0-2.6.6-4.9 1.9-6.9 1.3-2 3.1-3.6 5.4-4.7C14.5 1 17.1.4 20 .4c4.7 0 8.9 1 12.6 3.1l-4 8.7c-3.3-1.7-6.2-2.6-8.5-2.6-1.3 0-2.2.3-2.9.8-.7.5-1 1.3-1 2.4 0 1 .3 1.9 1 2.7.7.8 1.9 1.9 3.7 3.3 2.3 1.7 4 3.5 5.1 5.4s1.7 4.1 1.7 6.5z" fill="url(#a)"/><linearGradient id="b" gradientUnits="userSpaceOnUse" x1="32.9531" y1="22.4648" x2="67.4355" y2="22.4648"><stop offset=".2706" stop-color="#50a8c3" stop-opacity=".7"/><stop offset="1" stop-color="#bee2d1"/></linearGradient><path d="M58.4 43.9H33L42 1h25.4l-1.9 9.3h-14L50.1 17h13L61 26.3H48l-1.7 8.1h14l-1.9 9.5z" fill="url(#b)"/><linearGradient id="c" gradientUnits="userSpaceOnUse" x1="66.6738" y1="22.4648" x2="104.877" y2="22.4648"><stop offset=".2706" stop-color="#50a8c3" stop-opacity=".7"/><stop offset="1" stop-color="#bee2d1"/></linearGradient><path d="M104.9 17.3c0 5.5-1 10.2-2.9 14.2s-4.7 7.1-8.4 9.2c-3.7 2.1-8 3.2-13.1 3.2H66.7l9-42.9h12.2c5.4 0 9.6 1.4 12.5 4.2 3 2.9 4.5 6.9 4.5 12.1zM82.2 34.4c2.1 0 4.1-.7 5.8-2.1 1.7-1.4 3-3.3 3.9-5.8.9-2.5 1.4-5.4 1.4-8.7 0-2.4-.5-4.3-1.6-5.6s-2.5-1.9-4.4-1.9h-2.1l-5 24h2z" fill="url(#c)"/><linearGradient id="d" gradientUnits="userSpaceOnUse" x1="109.7988" y1="22.4209" x2="149.1152" y2="22.4209"><stop offset=".2706" stop-color="#50a8c3" stop-opacity=".7"/><stop offset="1" stop-color="#bee2d1"/></linearGradient><path d="M133 .4c5.1 0 9 1.5 11.9 4.4 2.8 2.9 4.2 6.9 4.2 12.1 0 5.2-1 9.9-2.9 14.3-1.9 4.3-4.6 7.6-8 9.9-3.4 2.3-7.4 3.4-11.9 3.4-5.3 0-9.3-1.5-12.2-4.4-2.9-2.9-4.3-7-4.3-12.1 0-5.2 1-9.9 3-14.3 2-4.3 4.8-7.6 8.2-9.9 3.5-2.3 7.5-3.4 12-3.4zm4.5 16.6c0-2.2-.5-4-1.4-5.2s-2.3-1.9-4.1-1.9c-1.9 0-3.7.8-5.3 2.5-1.6 1.6-2.9 3.9-3.9 6.8s-1.5 5.8-1.5 8.8c0 4.7 2 7.1 5.9 7.1 1.9 0 3.6-.8 5.2-2.4 1.6-1.6 2.8-3.8 3.8-6.6s1.3-5.9 1.3-9.1z" fill="url(#d)"/><linearGradient id="e" gradientUnits="userSpaceOnUse" x1="151.9277" y1="22.4648" x2="198.6563" y2="22.4648"><stop offset=".2706" stop-color="#50a8c3" stop-opacity=".7"/><stop offset="1" stop-color="#bee2d1"/></linearGradient><path d="M189.6 43.9h-13.3l-8.5-30.1h-.2c-.6 5.7-1.1 9.8-1.7 12.2l-3.8 17.9h-10.2L161 1h13.3l8.4 28.8h.3c.6-4.6 1.1-8.2 1.7-10.9L188.5 1h10.2l-9.1 42.9z" fill="url(#e)"/><linearGradient id="f" gradientUnits="userSpaceOnUse" x1="194.8184" y1="22.4648" x2="234.9551" y2="22.4648"><stop offset=".2706" stop-color="#50a8c3" stop-opacity=".7"/><stop offset="1" stop-color="#bee2d1"/></linearGradient><path d="M223.5 35.9h-13.1l-3.7 8h-11.9L216.6 1h14.7l3.6 42.8h-11.2l-.2-7.9zm-8.9-9.2h8.6l-.5-12.4-.1-2.5c0-1.5 0-2.7.1-3.8-.5 1.7-1.1 3.3-1.8 4.9l-6.3 13.8z" fill="url(#f)"/></svg>
