<svg xmlns="http://www.w3.org/2000/svg" version="1" width="747" height="653"><path d="M652 589l-608 1c-24 0-34-24-20-48L316 47c17-28 48-28 64 1l296 494c16 23 4 48-24 47z" font-size="12" fill="#ea0000" fill-rule="evenodd"/><path d="M347 99l-97 160L88 536l194 2 331-3-96-162L347 99z" font-size="12" fill="#fff" fill-rule="evenodd"/><path d="M590 519H345c-2 0-4 0-3-3l90-116c3-4 8-6 13-6h45c7 0 10 2 14 7l89 114c0 2 0 4-3 4z" font-size="12" fill-rule="evenodd"/><rect width="62" height="125" rx="11" ry="12" x="402" y="87" transform="matrix(.88545 .46474 -.40805 .91296 0 0)" font-size="12" fill="#000002" fill-rule="evenodd"/><rect width="100" height="33" rx="9" ry="8" x="267" y="269" font-size="12" fill-rule="evenodd"/><rect width="93" height="28" rx="9" ry="7" x="-111" y="375" transform="matrix(.46869 -.88336 .74464 .66747 0 0)" font-size="12" fill-rule="evenodd"/><rect width="293" height="16" rx="28" ry="4" x="361" y="185" transform="matrix(.88458 .46638 -.43668 .89962 0 0)" font-size="12" fill-rule="evenodd"/><rect width="135" height="27" rx="13" ry="7" x="-440" y="335" transform="matrix(-.0572 -.99836 .99704 -.07694 0 0)" font-size="12" fill-rule="evenodd"/><ellipse cx="419" cy="467" rx="31" ry="33" transform="matrix(.95757 0 0 .9728 -15 -201)" font-size="12" fill-rule="evenodd"/><rect width="78" height="31" rx="7" ry="8" x="-504" y="193" transform="matrix(-.234 -.97223 .98564 -.16883 0 0)" font-size="12" fill-rule="evenodd"/><rect width="78" height="31" rx="7" ry="8" x="-494" y="304" transform="matrix(-.00757 -.99997 .99703 .07697 0 0)" font-size="12" fill-rule="evenodd"/><rect width="157" height="32" rx="15" ry="8" x="-297" y="424" transform="matrix(.4947 -.86906 .81787 .5754 0 0)" font-size="12" fill-rule="evenodd"/></svg>
