<svg xmlns="http://www.w3.org/2000/svg" version="1" width="350" height="135"><g data-name="SAFE ZONE"><path data-name="&lt;Составной контур&gt;" d="M0-174v309h537v-309zM442 39H96V-78h346z" fill="none"/></g><g data-name="LOGO"><g data-name="&lt;Группа&gt;"><path data-name="&lt;Составной контур&gt;" d="M35 74l-20 44H0l22-48C12 65 5 56 5 38 5 14 21 1 39 1h19v117H45V74zm10-62h-6c-10 0-20 7-20 26s9 25 20 25h6z" fill="red"/><path data-name="&lt;Составной контур&gt;" d="M119 36v82h-13V81H87v37H74V36h13v35h19V36zm66 99h-12v-17h-35v17h-12v-27h5c8-18 9-43 9-65v-7h38v72h7zm-20-89h-14v2c0 17-1 42-7 60h21zm55 74c-17 0-28-14-28-39 0-27 8-46 25-46 14 0 23 10 23 38v7h-34c0 19 5 29 15 29 7 0 13-4 16-6l3 10a33 33 0 0 1-20 7zm-14-50h21c0-14-2-25-10-25s-10 10-11 25zm60 7v41h-13V36h13v38l20-38h13l-21 39 24 43h-14zm37 0c0-26 10-42 30-42 7 0 11 2 15 4l-2 12c-3-3-8-6-13-6-10 0-16 11-16 32 0 20 5 32 15 32a21 21 0 0 0 14-5l3 9a25 25 0 0 1-17 7c-18 0-29-15-29-43z"/></g></g></svg>
